SplineFontDB: 3.2
FontName: Titillium-Semibold
FullName: Titillium Semibold
FamilyName: Titillium Semibold
Weight: Semibold
Copyright: Copyright (c) 2008-2011 by Accademia di Belle Arti di Urbino and others. All rights reserved.
Version: 57.000
ItalicAngle: 0
UnderlinePosition: -110
UnderlineWidth: 30
Ascent: 750
Descent: 250
InvalidEm: 0
sfntRevision: 0x00010000
LayerCount: 2
Layer: 0 0 "Zur+APwA-ck" 1
Layer: 1 0 "Zeichen" 0
XUID: [1021 1010 -703601740 14619]
StyleMap: 0x0020
FSType: 8
OS2Version: 3
OS2_WeightWidthSlopeOnly: 0
OS2_UseTypoMetrics: 0
CreationTime: 1339467516
ModificationTime: 1577951742
PfmFamily: 81
TTFWeight: 600
TTFWidth: 5
LineGap: 200
VLineGap: 0
Panose: 0 0 7 0 0 0 0 0 0 0
OS2TypoAscent: 750
OS2TypoAOffset: 0
OS2TypoDescent: -250
OS2TypoDOffset: 0
OS2TypoLinegap: 200
OS2WinAscent: 1101
OS2WinAOffset: 0
OS2WinDescent: 300
OS2WinDOffset: 0
HheadAscent: 750
HheadAOffset: 0
HheadDescent: -250
HheadDOffset: 0
OS2SubXSize: 650
OS2SubYSize: 600
OS2SubXOff: 0
OS2SubYOff: 75
OS2SupXSize: 650
OS2SupYSize: 600
OS2SupXOff: 0
OS2SupYOff: 350
OS2StrikeYSize: 30
OS2StrikeYPos: 300
OS2CapHeight: 685
OS2XHeight: 500
OS2Vendor: 'UKWN'
OS2CodePages: 20000093.00000000
OS2UnicodeRanges: 00000007.00000001.00000000.00000000
Lookup: 1 0 0 "'locl' Localized Forms in Lateinisch lookup 0" { "'locl' Localized Forms in Lateinisch lookup 0 subtable"  } ['locl' ('DFLT' <'dflt' > 'latn' <'dflt' > ) ]
Lookup: 1 0 0 "'frac' Diagonal Fractions in Lateinisch lookup 1" { "'frac' Diagonal Fractions in Lateinisch lookup 1 subtable"  } ['frac' ('DFLT' <'dflt' > 'latn' <'dflt' > ) ]
Lookup: 6 0 0 "'frac' Diagonal Fractions in Lateinisch lookup 2" { "'frac' Diagonal Fractions in Lateinisch lookup 2 subtable"  } ['frac' ('DFLT' <'dflt' > 'latn' <'dflt' > ) ]
Lookup: 1 0 0 "'frac' Diagonal Fractions in Lateinisch lookup 3" { "'frac' Diagonal Fractions in Lateinisch lookup 3 subtable"  } ['frac' ('DFLT' <'dflt' > 'latn' <'dflt' > ) ]

StartChar: acute
Encoding: 180 180 2
Width: 268
Flags: MW
HStem: 576 172
VStem: 14 270<647 654>
LayerCount: 2
Fore
SplineSet
14 647 m 1
 250 748 l 1
 284 654 l 1
 40 576 l 1
 14 647 l 1
EndSplineSet
EndChar

StartChar: breve
Encoding: 728 728 3
Width: 254
Flags: MW
HStem: 579 75<117 161.5 117 186.5>
VStem: -19 84<728 728> 212 84<728 728>
LayerCount: 2
Fore
SplineSet
-19 728 m 1
 65 728 l 1
 69 684 95 654 139 654 c 0
 184 654 209 685 212 728 c 1
 296 728 l 1
 288 650 234 579 139 579 c 0
 43 579 -11 650 -19 728 c 1
EndSplineSet
EndChar

StartChar: caron
Encoding: 711 711 4
Width: 254
Flags: MW
HStem: 585 146<-19 106 -19 175>
VStem: -19 321<731 731>
LayerCount: 2
Fore
SplineSet
106 585 m 1
 -19 731 l 1
 83 731 l 1
 142 656 l 1
 200 731 l 1
 302 731 l 1
 175 585 l 1
 106 585 l 1
EndSplineSet
EndChar

StartChar: cedilla
Encoding: 184 184 5
Width: 264
Flags: MW
HStem: -231 73<103.5 108 83.5 156.5> -221 21G<35 35> -100 101<63 94 63 110>
VStem: 63 47<-42 1 -42 1 -42 1> 135 94<-138 -116.5>
LayerCount: 2
Fore
SplineSet
229 -127 m 0xb8
 229 -199 188 -231 125 -231 c 0xb0
 82 -231 35 -221 35 -221 c 1x70
 39 -156 l 1
 39 -156 73 -158 94 -158 c 0
 122 -158 135 -149 135 -127 c 0
 135 -106 122 -100 94 -100 c 2xb8
 63 -100 l 1
 63 1 l 1
 110 1 l 1
 110 -42 l 1xb0
 187 -43 229 -57 229 -127 c 0xb8
EndSplineSet
EndChar

StartChar: circumflex
Encoding: 710 710 6
Width: 254
Flags: MW
HStem: 585 146<-22 172 -22 172 103 197 103 299> 661 21G<139 139> 661 70<139 139>
VStem: -22 321<585 585>
LayerCount: 2
Fore
SplineSet
-22 585 m 1x90
 103 731 l 1
 172 731 l 1x30
 299 585 l 1
 197 585 l 1x90
 139 661 l 1x50
 81 585 l 1
 -22 585 l 1x90
EndSplineSet
EndChar

StartChar: commaaccent
Encoding: 63171 63171 7
Width: 170
Flags: MW
HStem: -300 223<7 157 51 104>
VStem: 7 150
LayerCount: 2
Fore
SplineSet
7 -300 m 1
 51 -77 l 1
 157 -77 l 1
 104 -300 l 1
 7 -300 l 1
EndSplineSet
EndChar

StartChar: dieresis
Encoding: 168 168 8
Width: 254
Flags: MW
HStem: 607 114<-22 82 -22 82 187 291 -22 187>
VStem: -22 104<607 721 607 721> 187 104<607 721 607 721>
LayerCount: 2
Fore
SplineSet
-22 607 m 1
 -22 721 l 1
 82 721 l 1
 82 607 l 1
 -22 607 l 1
187 607 m 1
 187 721 l 1
 291 721 l 1
 291 607 l 1
 187 607 l 1
EndSplineSet
EndChar

StartChar: dotaccent
Encoding: 729 729 9
Width: 254
Flags: MW
HStem: 579 114<73 181 73 181>
VStem: 73 108<579 693 579 693>
LayerCount: 2
Fore
SplineSet
73 579 m 1
 73 693 l 1
 181 693 l 1
 181 579 l 1
 73 579 l 1
EndSplineSet
EndChar

StartChar: hungarumlaut
Encoding: 733 733 10
Width: 254
Flags: MW
HStem: 571 223<228 278>
VStem: -50 413<626 737>
LayerCount: 2
Fore
SplineSet
149 626 m 1
 278 794 l 1
 363 737 l 1
 228 571 l 1
 149 626 l 1
-50 626 m 1
 79 793 l 1
 164 737 l 1
 29 571 l 1
 -50 626 l 1
EndSplineSet
EndChar

StartChar: grave
Encoding: 96 96 11
Width: 254
Flags: MW
HStem: 576 172
VStem: -10 270<647 654>
LayerCount: 2
Fore
SplineSet
24 748 m 1
 260 647 l 1
 234 576 l 1
 -10 654 l 1
 24 748 l 1
EndSplineSet
EndChar

StartChar: macron
Encoding: 175 175 12
Width: 254
Flags: MW
HStem: 609 82<-9 273 -9 273>
VStem: -9 282<609 691 609 691>
LayerCount: 2
Fore
SplineSet
-9 609 m 1
 -9 691 l 1
 273 691 l 1
 273 609 l 1
 -9 609 l 1
EndSplineSet
EndChar

StartChar: ogonek
Encoding: 731 731 13
Width: 464
Flags: MW
HStem: -212 84<278 349> 1 21G<372 372>
VStem: 206 102<-101.5 -83.5>
LayerCount: 2
Fore
SplineSet
372 1 m 1
 372 1 308 -56 308 -90 c 0
 308 -113 323 -128 344 -128 c 0
 354 -128 389 -123 389 -123 c 1
 399 -202 l 1
 399 -202 346 -212 307 -212 c 0
 249 -212 206 -177 206 -119 c 0
 206 -48 287 10 287 10 c 1
 372 1 l 1
EndSplineSet
EndChar

StartChar: ring
Encoding: 730 730 14
Width: 254
Flags: MW
HStem: 530 60<116.5 145 116.5 161> 691 61<116.5 145>
VStem: 19 62<626.5 655 626.5 672> 180 62<626.5 655>
LayerCount: 2
Fore
SplineSet
19 641 m 0
 19 703 67 752 130 752 c 0
 192 752 242 703 242 641 c 0
 242 577 192 530 130 530 c 0
 67 530 19 577 19 641 c 0
81 641 m 0
 81 612 102 590 131 590 c 0
 159 590 180 612 180 641 c 0
 180 669 159 691 131 691 c 0
 102 691 81 669 81 641 c 0
EndSplineSet
EndChar

StartChar: tilde
Encoding: 732 732 15
Width: 254
Flags: MW
HStem: 597 85<190.5 217 190.5 231> 637 85<61 90.5> 666 21G<-25 -25> 698 20G<280 280>
VStem: -25 329<654 666>
LayerCount: 2
Fore
SplineSet
280 718 m 1x38
 304 654 l 1
 304 654 254 597 208 597 c 0x98
 166 597 107 637 74 637 c 0
 48 637 -1 603 -1 603 c 1x48
 -25 666 l 1x38
 -25 666 26 722 73 722 c 0x48
 114 722 176 682 205 682 c 0x98
 229 682 280 718 280 718 c 1x38
EndSplineSet
EndChar

StartChar: A
Encoding: 65 65 16
Width: 599
Flags: MW
HStem: 0 21G<20 20 20 131 468 468 468 580> 147 98<190 409 190 431 168 409> 592 93<275 275 275 325>
VStem: 20 560<0 0>
LayerCount: 2
Fore
SplineSet
20 0 m 1
 189 685 l 1
 410 685 l 1
 580 0 l 1
 468 0 l 1
 431 147 l 1
 168 147 l 1
 131 0 l 1
 20 0 l 1
275 592 m 1
 190 245 l 1
 409 245 l 1
 325 592 l 1
 275 592 l 1
EndSplineSet
Position2: "'cpsp' Capital Spacing in Lateinisch lookup 0 subtable" dx=5 dy=0 dh=10 dv=0
EndChar

StartChar: Aacute
Encoding: 193 193 17
Width: 599
Flags: MW
HStem: 0 21G<20 20 20 131 468 468 468 580> 147 98<190 409 190 431 168 409> 592 93<275 275 275 325>
VStem: 20 560<0 0>
LayerCount: 2
Fore
SplineSet
20 0 m 1
 189 685 l 1
 410 685 l 1
 580 0 l 1
 468 0 l 1
 431 147 l 1
 168 147 l 1
 131 0 l 1
 20 0 l 1
275 592 m 1
 190 245 l 1
 409 245 l 1
 325 592 l 1
 275 592 l 1
172 836 m 1
 408 939 l 1
 443 842 l 1
 200 760 l 1
 172 836 l 1
EndSplineSet
Position2: "'cpsp' Capital Spacing in Lateinisch lookup 0 subtable" dx=5 dy=0 dh=10 dv=0
EndChar

StartChar: Abreve
Encoding: 258 258 18
Width: 599
Flags: MW
HStem: 0 21G<20 20 20 131 468 468 468 580> 147 98<190 409 190 431 168 409> 592 93<275 275 275 325> 771 78<275.5 318 275.5 350.5>
VStem: 20 560<0 0>
LayerCount: 2
Fore
SplineSet
20 0 m 1
 189 685 l 1
 410 685 l 1
 580 0 l 1
 468 0 l 1
 431 147 l 1
 168 147 l 1
 131 0 l 1
 20 0 l 1
275 592 m 1
 190 245 l 1
 409 245 l 1
 325 592 l 1
 275 592 l 1
123 914 m 1
 222 914 l 1
 225 876 255 849 296 849 c 0
 340 849 369 876 372 914 c 1
 471 914 l 1
 463 831 405 771 296 771 c 0
 188 771 130 831 123 914 c 1
EndSplineSet
Position2: "'cpsp' Capital Spacing in Lateinisch lookup 0 subtable" dx=5 dy=0 dh=10 dv=0
EndChar

StartChar: Acircumflex
Encoding: 194 194 19
Width: 599
Flags: MW
HStem: 0 21G<20 20 20 131 468 468 468 580> 147 98<190 409 190 431 168 409> 592 93<275 275 275 325> 776 143<117 345 117 345 251 363 251 479>
VStem: 20 560<0 0>
LayerCount: 2
Fore
SplineSet
20 0 m 1
 189 685 l 1
 410 685 l 1
 580 0 l 1
 468 0 l 1
 431 147 l 1
 168 147 l 1
 131 0 l 1
 20 0 l 1
275 592 m 1
 190 245 l 1
 409 245 l 1
 325 592 l 1
 275 592 l 1
117 776 m 1
 251 919 l 1
 345 919 l 1
 479 776 l 1
 363 776 l 1
 299 843 l 1
 234 776 l 1
 117 776 l 1
EndSplineSet
Position2: "'cpsp' Capital Spacing in Lateinisch lookup 0 subtable" dx=5 dy=0 dh=10 dv=0
EndChar

StartChar: Agrave
Encoding: 192 192 20
Width: 599
Flags: MW
HStem: 0 21G<20 20 20 131 468 468 468 580> 147 98<190 409 190 431 168 409> 592 93<275 275 275 325>
VStem: 20 560<0 0>
LayerCount: 2
Fore
SplineSet
20 0 m 1
 189 685 l 1
 410 685 l 1
 580 0 l 1
 468 0 l 1
 431 147 l 1
 168 147 l 1
 131 0 l 1
 20 0 l 1
275 592 m 1
 190 245 l 1
 409 245 l 1
 325 592 l 1
 275 592 l 1
186 939 m 1
 422 836 l 1
 394 760 l 1
 151 842 l 1
 186 939 l 1
EndSplineSet
Position2: "'cpsp' Capital Spacing in Lateinisch lookup 0 subtable" dx=5 dy=0 dh=10 dv=0
EndChar

StartChar: Adieresis
Encoding: 196 196 21
Width: 599
Flags: MW
HStem: 0 21G<20 20 20 131 468 468 468 580> 147 98<190 409 190 431 168 409> 592 93<275 275 275 325> 783 114<142 246 142 246 351 455 142 351>
VStem: 142 104<783 897 783 897> 351 104<783 897 783 897>
LayerCount: 2
Fore
SplineSet
20 0 m 1
 189 685 l 1
 410 685 l 1
 580 0 l 1
 468 0 l 1
 431 147 l 1
 168 147 l 1
 131 0 l 1
 20 0 l 1
275 592 m 1
 190 245 l 1
 409 245 l 1
 325 592 l 1
 275 592 l 1
142 783 m 1
 142 897 l 1
 246 897 l 1
 246 783 l 1
 142 783 l 1
351 783 m 1
 351 897 l 1
 455 897 l 1
 455 783 l 1
 351 783 l 1
EndSplineSet
Position2: "'cpsp' Capital Spacing in Lateinisch lookup 0 subtable" dx=5 dy=0 dh=10 dv=0
EndChar

StartChar: Amacron
Encoding: 256 256 22
Width: 599
Flags: MW
HStem: 0 21G<20 20 20 131 468 468 468 580> 147 98<190 409 190 431 168 409> 592 93<275 275 275 325> 795 81<131 463 131 463>
VStem: 20 560<0 0>
LayerCount: 2
Fore
SplineSet
20 0 m 1
 189 685 l 1
 410 685 l 1
 580 0 l 1
 468 0 l 1
 431 147 l 1
 168 147 l 1
 131 0 l 1
 20 0 l 1
275 592 m 1
 190 245 l 1
 409 245 l 1
 325 592 l 1
 275 592 l 1
131 795 m 1
 131 876 l 1
 463 876 l 1
 463 795 l 1
 131 795 l 1
EndSplineSet
Position2: "'cpsp' Capital Spacing in Lateinisch lookup 0 subtable" dx=5 dy=0 dh=10 dv=0
EndChar

StartChar: Aogonek
Encoding: 260 260 23
Width: 599
Flags: MW
HStem: -212 84<474 545> 0 21G<20 20 20 131 468 468 468 470 566 566 566 580> 147 98<190 409 190 431 168 409> 592 93<275 275 275 325>
VStem: 402 102<-101.5 -92>
LayerCount: 2
Fore
SplineSet
20 0 m 1
 189 685 l 1
 410 685 l 1
 580 0 l 1
 566 0 l 1
 560 -5 504 -58 504 -90 c 0
 504 -113 519 -128 540 -128 c 0
 550 -128 585 -123 585 -123 c 1
 595 -202 l 1
 595 -202 542 -212 503 -212 c 0
 445 -212 402 -177 402 -119 c 0
 402 -65 448 -19 470 0 c 1
 468 0 l 1
 431 147 l 1
 168 147 l 1
 131 0 l 1
 20 0 l 1
275 592 m 1
 190 245 l 1
 409 245 l 1
 325 592 l 1
 275 592 l 1
EndSplineSet
Position2: "'cpsp' Capital Spacing in Lateinisch lookup 0 subtable" dx=5 dy=0 dh=10 dv=0
EndChar

StartChar: Aring
Encoding: 197 197 24
Width: 599
Flags: MW
HStem: 0 21G<20 131 20 20 468 580 468 468> 147 98<190 409 190 431 168 409> 592 93<275 317.5 280.5 317.5 280.5 325> 664 21G 778 70<280.5 317.5>
VStem: 163 76<717.5 745.5 716.5 768.5> 360 76<717.5 745.5>
LayerCount: 2
Fore
SplineSet
436 731 m 0xde
 436 704 428 682 415 664 c 1
 580 0 l 1
 468 0 l 1
 431 147 l 1
 168 147 l 1
 131 0 l 1
 20 0 l 1
 184 664 l 1
 171 682 163 704 163 731 c 0
 163 806 224 848 299 848 c 0
 374 848 436 806 436 731 c 0xde
275 592 m 1xee
 190 245 l 1
 409 245 l 1
 325 592 l 1
 275 592 l 1xee
239 731 m 0
 239 702 262 685 299 685 c 0
 336 685 360 702 360 731 c 0
 360 760 336 778 299 778 c 0
 262 778 239 760 239 731 c 0
EndSplineSet
Position2: "'cpsp' Capital Spacing in Lateinisch lookup 0 subtable" dx=5 dy=0 dh=10 dv=0
EndChar

StartChar: Atilde
Encoding: 195 195 25
Width: 599
Flags: MW
HStem: 0 21G<20 20 20 131 468 468 468 580> 147 98<190 409 190 431 168 409> 592 93<275 275 275 325> 777 96<361.5 388 361.5 403> 827 96<199 228.5>
VStem: 20 560<0 0>
LayerCount: 2
Fore
SplineSet
20 0 m 1xf4
 189 685 l 1
 410 685 l 1
 580 0 l 1
 468 0 l 1
 431 147 l 1
 168 147 l 1
 131 0 l 1
 20 0 l 1xf4
275 592 m 1
 190 245 l 1
 409 245 l 1
 325 592 l 1
 275 592 l 1
452 917 m 1
 476 838 l 1
 476 838 427 777 379 777 c 0xf4
 329 777 245 827 212 827 c 0
 186 827 136 783 136 783 c 1
 112 861 l 1
 112 861 163 923 211 923 c 0xec
 267 923 347 873 376 873 c 0
 400 873 452 917 452 917 c 1
EndSplineSet
Position2: "'cpsp' Capital Spacing in Lateinisch lookup 0 subtable" dx=5 dy=0 dh=10 dv=0
EndChar

StartChar: AE
Encoding: 198 198 26
Width: 873
Flags: MW
HStem: 0 107<509 829 509 829> 142 107<198 399 198 399 170 399> 300 105<509 769 509 769> 586 107<296 296 296 400 509 829 509 509>
VStem: 399.5 109.5
LayerCount: 2
Fore
SplineSet
399 0 m 1
 399 142 l 1
 170 142 l 1
 128 0 l 1
 15 0 l 1
 217 693 l 1
 829 693 l 1
 829 586 l 1
 509 586 l 1
 509 405 l 1
 769 405 l 1
 769 300 l 1
 509 300 l 1
 509 107 l 1
 829 107 l 1
 829 0 l 1
 399 0 l 1
296 586 m 1
 198 249 l 1
 399 249 l 1
 400 586 l 1
 296 586 l 1
EndSplineSet
Position2: "'cpsp' Capital Spacing in Lateinisch lookup 0 subtable" dx=5 dy=0 dh=10 dv=0
EndChar

StartChar: AEacute
Encoding: 508 508 27
Width: 874
Flags: MW
HStem: 0 107<510 830 510 830> 142 107<199 400 199 400 171 400> 300 105<510 770 510 770> 586 107<297 297 297 401 510 830 510 510>
VStem: 400.5 109.5
LayerCount: 2
Fore
SplineSet
400 0 m 1
 400 142 l 1
 171 142 l 1
 129 0 l 1
 16 0 l 1
 218 693 l 1
 830 693 l 1
 830 586 l 1
 510 586 l 1
 510 405 l 1
 770 405 l 1
 770 300 l 1
 510 300 l 1
 510 107 l 1
 830 107 l 1
 830 0 l 1
 400 0 l 1
297 586 m 1
 199 249 l 1
 400 249 l 1
 401 586 l 1
 297 586 l 1
386 836 m 1
 622 939 l 1
 657 842 l 1
 414 760 l 1
 386 836 l 1
EndSplineSet
Position2: "'cpsp' Capital Spacing in Lateinisch lookup 0 subtable" dx=5 dy=0 dh=10 dv=0
EndChar

StartChar: B
Encoding: 66 66 28
Width: 612
Flags: MW
HStem: 0 96<190 341 341 347> 299 94<190 337 337 339 190 337> 589 96<190 333 190 190>
VStem: 79 111<96 299 96 393 393 589> 435 113<465.5 527> 451 114<159 239>
LayerCount: 2
Fore
SplineSet
79 685 m 1xf4
 339 685 l 2
 475 685 548 634 548 507 c 0xf8
 548 424 522 383 467 353 c 1
 526 330 565 288 565 194 c 0
 565 54 480 0 347 0 c 2
 79 0 l 1
 79 685 l 1xf4
339 299 m 2
 190 299 l 1
 190 96 l 1
 341 96 l 2
 410 96 451 118 451 200 c 0xf4
 451 278 393 299 339 299 c 2
333 589 m 2
 190 589 l 1
 190 393 l 1
 337 393 l 2
 405 393 435 427 435 494 c 0xf8
 435 560 401 589 333 589 c 2
EndSplineSet
Position2: "'cpsp' Capital Spacing in Lateinisch lookup 0 subtable" dx=5 dy=0 dh=10 dv=0
EndChar

StartChar: C
Encoding: 67 67 29
Width: 544
Flags: MW
HStem: -11 99<259.5 341> 597 99<261 344.5 206.5 348.5> 671 21G<505 505>
VStem: 52 115<248 439 248 465.5>
LayerCount: 2
Fore
SplineSet
501 103 m 1xb0
 504 11 l 1
 457 1 373 -11 309 -11 c 0
 100 -11 52 108 52 342 c 0
 52 589 104 696 309 696 c 0xd0
 380 696 462 681 505 671 c 1xb0
 501 581 l 1
 456 589 373 597 324 597 c 0xd0
 198 597 167 536 167 342 c 0
 167 154 192 88 327 88 c 0
 378 88 458 96 501 103 c 1xb0
EndSplineSet
Position2: "'cpsp' Capital Spacing in Lateinisch lookup 0 subtable" dx=5 dy=0 dh=10 dv=0
EndChar

StartChar: Cacute
Encoding: 262 262 30
Width: 544
Flags: MW
HStem: -11 99<259.5 341> 597 99<261 344.5 206.5 348.5> 671 21G<505 505>
VStem: 52 115<248 439 248 465.5>
LayerCount: 2
Fore
SplineSet
501 103 m 1xb0
 504 11 l 1
 457 1 373 -11 309 -11 c 0
 100 -11 52 108 52 342 c 0
 52 589 104 696 309 696 c 0xd0
 380 696 462 681 505 671 c 1xb0
 501 581 l 1
 456 589 373 597 324 597 c 0xd0
 198 597 167 536 167 342 c 0
 167 154 192 88 327 88 c 0
 378 88 458 96 501 103 c 1xb0
162 836 m 1
 398 939 l 1
 433 842 l 1
 190 760 l 1
 162 836 l 1
EndSplineSet
Position2: "'cpsp' Capital Spacing in Lateinisch lookup 0 subtable" dx=5 dy=0 dh=10 dv=0
EndChar

StartChar: Ccaron
Encoding: 268 268 31
Width: 544
Flags: MW
HStem: -11 99<259.5 341> 597 99<261 344.5 206.5 348.5> 671 21G<505 505> 776 143<125 259 125 353>
VStem: 52 115<248 439 248 465.5>
LayerCount: 2
Fore
SplineSet
501 103 m 1xb8
 504 11 l 1
 457 1 373 -11 309 -11 c 0
 100 -11 52 108 52 342 c 0
 52 589 104 696 309 696 c 0xd8
 380 696 462 681 505 671 c 1xb8
 501 581 l 1
 456 589 373 597 324 597 c 0xd8
 198 597 167 536 167 342 c 0
 167 154 192 88 327 88 c 0
 378 88 458 96 501 103 c 1xb8
259 776 m 1
 125 919 l 1
 242 919 l 1
 307 853 l 1
 370 919 l 1
 487 919 l 1
 353 776 l 1
 259 776 l 1
EndSplineSet
Position2: "'cpsp' Capital Spacing in Lateinisch lookup 0 subtable" dx=5 dy=0 dh=10 dv=0
EndChar

StartChar: Ccedilla
Encoding: 199 199 32
Width: 544
Flags: MW
HStem: -231 73<311.5 316 291.5 364.5> -221 21G<243 243> -100 58<271 318 271 318> -11 99<318 318> 597 99<261 344.5 206.5 348.5> 671 21G<505 505>
VStem: 52 115<248 439 248 465.5> 271 47<-42 -11 -42 -9 -42 -9> 343 94<-138 -116.5>
LayerCount: 2
Fore
SplineSet
437 -127 m 0xb780
 437 -199 396 -231 333 -231 c 0xb7
 290 -231 243 -221 243 -221 c 1x77
 247 -156 l 1
 247 -156 281 -158 302 -158 c 0
 330 -158 343 -149 343 -127 c 0
 343 -106 330 -100 302 -100 c 2xb780
 271 -100 l 1
 271 -9 l 1
 94 4 52 123 52 342 c 0
 52 589 104 696 309 696 c 0xbb
 380 696 462 681 505 671 c 1xb7
 501 581 l 1
 456 589 373 597 324 597 c 0
 198 597 167 536 167 342 c 0
 167 154 192 88 327 88 c 0
 378 88 458 96 501 103 c 1
 504 11 l 1
 459 1 380 -10 318 -11 c 1
 318 -42 l 1xbb
 395 -43 437 -57 437 -127 c 0xb780
EndSplineSet
Position2: "'cpsp' Capital Spacing in Lateinisch lookup 0 subtable" dx=5 dy=0 dh=10 dv=0
EndChar

StartChar: Ccircumflex
Encoding: 264 264 33
Width: 544
Flags: MW
HStem: -11 99<259.5 341> 597 99<261 344.5 206.5 348.5> 671 21G<505 505> 776 143<123 351 123 351 257 369 257 485>
VStem: 52 115<248 439 248 465.5>
LayerCount: 2
Fore
SplineSet
501 103 m 1xb8
 504 11 l 1
 457 1 373 -11 309 -11 c 0
 100 -11 52 108 52 342 c 0
 52 589 104 696 309 696 c 0xd8
 380 696 462 681 505 671 c 1xb8
 501 581 l 1
 456 589 373 597 324 597 c 0xd8
 198 597 167 536 167 342 c 0
 167 154 192 88 327 88 c 0
 378 88 458 96 501 103 c 1xb8
123 776 m 1
 257 919 l 1
 351 919 l 1
 485 776 l 1
 369 776 l 1
 305 843 l 1
 240 776 l 1
 123 776 l 1
EndSplineSet
Position2: "'cpsp' Capital Spacing in Lateinisch lookup 0 subtable" dx=5 dy=0 dh=10 dv=0
EndChar

StartChar: Cdotaccent
Encoding: 266 266 34
Width: 544
Flags: MW
HStem: -11 99<259.5 341> 597 99<261 344.5 206.5 348.5> 671 21G<505 505> 777 114<235 343 235 343>
VStem: 52 115<248 439 248 465.5> 235 108<777 891 777 891>
LayerCount: 2
Fore
SplineSet
501 103 m 1xbc
 504 11 l 1
 457 1 373 -11 309 -11 c 0
 100 -11 52 108 52 342 c 0
 52 589 104 696 309 696 c 0xdc
 380 696 462 681 505 671 c 1xbc
 501 581 l 1
 456 589 373 597 324 597 c 0xdc
 198 597 167 536 167 342 c 0
 167 154 192 88 327 88 c 0
 378 88 458 96 501 103 c 1xbc
235 777 m 1
 235 891 l 1
 343 891 l 1
 343 777 l 1
 235 777 l 1
EndSplineSet
Position2: "'cpsp' Capital Spacing in Lateinisch lookup 0 subtable" dx=5 dy=0 dh=10 dv=0
EndChar

StartChar: D
Encoding: 68 68 35
Width: 641
Flags: MW
HStem: 0 98<190 316 190 316> 588 97<190 316 190 190>
VStem: 79 111<98 588 98 685 98 685> 475 115<279 429>
LayerCount: 2
Fore
SplineSet
316 0 m 2
 79 0 l 1
 79 685 l 1
 316 685 l 2
 537 685 590 567 590 354 c 0
 590 137 542 0 316 0 c 2
475 354 m 0
 475 504 454 588 316 588 c 2
 190 588 l 1
 190 98 l 1
 316 98 l 2
 454 98 475 204 475 354 c 0
EndSplineSet
Position2: "'cpsp' Capital Spacing in Lateinisch lookup 0 subtable" dx=5 dy=0 dh=10 dv=0
EndChar

StartChar: Dcaron
Encoding: 270 270 36
Width: 641
Flags: MW
HStem: 0 98<190 316 190 316> 588 97<190 316 190 190> 776 143<119 253 119 347>
VStem: 79 111<98 588 98 685 98 685> 475 115<279 429>
LayerCount: 2
Fore
SplineSet
316 0 m 2
 79 0 l 1
 79 685 l 1
 316 685 l 2
 537 685 590 567 590 354 c 0
 590 137 542 0 316 0 c 2
475 354 m 0
 475 504 454 588 316 588 c 2
 190 588 l 1
 190 98 l 1
 316 98 l 2
 454 98 475 204 475 354 c 0
253 776 m 1
 119 919 l 1
 236 919 l 1
 301 853 l 1
 364 919 l 1
 481 919 l 1
 347 776 l 1
 253 776 l 1
EndSplineSet
Position2: "'cpsp' Capital Spacing in Lateinisch lookup 0 subtable" dx=5 dy=0 dh=10 dv=0
EndChar

StartChar: Dcroat
Encoding: 272 272 37
Width: 644
Flags: MW
HStem: 0 106<193 318 193 318> 292 106<23 83 23 83 193 335> 587 106<193 318 193 193>
VStem: 83 110<106 292 106 292 106 292 398 587> 478 115<286.5 430>
LayerCount: 2
Fore
SplineSet
23 292 m 1
 23 398 l 1
 83 398 l 1
 83 693 l 1
 318 693 l 2
 540 693 593 573 593 359 c 0
 593 140 545 0 318 0 c 2
 83 0 l 1
 83 292 l 1
 23 292 l 1
478 359 m 0
 478 501 457 587 318 587 c 2
 193 587 l 1
 193 398 l 1
 335 398 l 1
 335 292 l 1
 193 292 l 1
 193 106 l 1
 318 106 l 2
 457 106 478 214 478 359 c 0
EndSplineSet
Position2: "'cpsp' Capital Spacing in Lateinisch lookup 0 subtable" dx=5 dy=0 dh=10 dv=0
EndChar

StartChar: E
Encoding: 69 69 38
Width: 553
Flags: MW
HStem: 0 98<190 511 190 511> 298 96<190 451 190 451> 588 97<190 511 190 190>
VStem: 79 111<98 298 394 588>
LayerCount: 2
Fore
SplineSet
79 0 m 1
 79 685 l 1
 511 685 l 1
 511 588 l 1
 190 588 l 1
 190 394 l 1
 451 394 l 1
 451 298 l 1
 190 298 l 1
 190 98 l 1
 511 98 l 1
 511 0 l 1
 79 0 l 1
EndSplineSet
Position2: "'cpsp' Capital Spacing in Lateinisch lookup 0 subtable" dx=5 dy=0 dh=10 dv=0
EndChar

StartChar: Eacute
Encoding: 201 201 39
Width: 553
Flags: MW
HStem: 0 98<190 511 190 511> 298 96<190 451 190 451> 588 97<190 511 190 190>
VStem: 79 111<98 298 394 588>
LayerCount: 2
Fore
SplineSet
79 0 m 1
 79 685 l 1
 511 685 l 1
 511 588 l 1
 190 588 l 1
 190 394 l 1
 451 394 l 1
 451 298 l 1
 190 298 l 1
 190 98 l 1
 511 98 l 1
 511 0 l 1
 79 0 l 1
164 836 m 1
 400 939 l 1
 435 842 l 1
 192 760 l 1
 164 836 l 1
EndSplineSet
Position2: "'cpsp' Capital Spacing in Lateinisch lookup 0 subtable" dx=5 dy=0 dh=10 dv=0
EndChar

StartChar: Ebreve
Encoding: 276 276 40
Width: 553
Flags: MW
HStem: 0 98<190 511 190 511> 298 96<190 451 190 451> 588 97<190 511 190 190> 771 78<280.5 323 280.5 355.5>
VStem: 79 111<98 298 394 588>
LayerCount: 2
Fore
SplineSet
79 0 m 1
 79 685 l 1
 511 685 l 1
 511 588 l 1
 190 588 l 1
 190 394 l 1
 451 394 l 1
 451 298 l 1
 190 298 l 1
 190 98 l 1
 511 98 l 1
 511 0 l 1
 79 0 l 1
128 914 m 1
 227 914 l 1
 230 876 260 849 301 849 c 0
 345 849 374 876 377 914 c 1
 476 914 l 1
 468 831 410 771 301 771 c 0
 193 771 135 831 128 914 c 1
EndSplineSet
Position2: "'cpsp' Capital Spacing in Lateinisch lookup 0 subtable" dx=5 dy=0 dh=10 dv=0
EndChar

StartChar: Ecaron
Encoding: 282 282 41
Width: 553
Flags: MW
HStem: 0 98<190 511 190 511> 298 96<190 451 190 451> 588 97<190 511 190 190> 776 143<103 237 103 331>
VStem: 79 111<98 298 394 588>
LayerCount: 2
Fore
SplineSet
79 0 m 1
 79 685 l 1
 511 685 l 1
 511 588 l 1
 190 588 l 1
 190 394 l 1
 451 394 l 1
 451 298 l 1
 190 298 l 1
 190 98 l 1
 511 98 l 1
 511 0 l 1
 79 0 l 1
237 776 m 1
 103 919 l 1
 220 919 l 1
 285 853 l 1
 348 919 l 1
 465 919 l 1
 331 776 l 1
 237 776 l 1
EndSplineSet
Position2: "'cpsp' Capital Spacing in Lateinisch lookup 0 subtable" dx=5 dy=0 dh=10 dv=0
EndChar

StartChar: Ecircumflex
Encoding: 202 202 42
Width: 553
Flags: MW
HStem: 0 98<190 511 190 511> 298 96<190 451 190 451> 588 97<190 511 190 190> 776 143<115 343 115 343 249 361 249 477>
VStem: 79 111<98 298 394 588>
LayerCount: 2
Fore
SplineSet
79 0 m 1
 79 685 l 1
 511 685 l 1
 511 588 l 1
 190 588 l 1
 190 394 l 1
 451 394 l 1
 451 298 l 1
 190 298 l 1
 190 98 l 1
 511 98 l 1
 511 0 l 1
 79 0 l 1
115 776 m 1
 249 919 l 1
 343 919 l 1
 477 776 l 1
 361 776 l 1
 297 843 l 1
 232 776 l 1
 115 776 l 1
EndSplineSet
Position2: "'cpsp' Capital Spacing in Lateinisch lookup 0 subtable" dx=5 dy=0 dh=10 dv=0
EndChar

StartChar: Edieresis
Encoding: 203 203 43
Width: 553
Flags: MW
HStem: 0 98<190 511 190 511> 298 96<190 451 190 451> 588 97<190 511 190 190> 783 114<138 242 138 242 347 451 138 347>
VStem: 79 111<98 298 394 588> 138 104<783 897 783 897> 347 104<783 897>
LayerCount: 2
Fore
SplineSet
79 0 m 1xfa
 79 685 l 1
 511 685 l 1
 511 588 l 1
 190 588 l 1
 190 394 l 1
 451 394 l 1
 451 298 l 1
 190 298 l 1
 190 98 l 1
 511 98 l 1
 511 0 l 1
 79 0 l 1xfa
138 783 m 1xf6
 138 897 l 1
 242 897 l 1
 242 783 l 1
 138 783 l 1xf6
347 783 m 1
 347 897 l 1
 451 897 l 1
 451 783 l 1
 347 783 l 1
EndSplineSet
Position2: "'cpsp' Capital Spacing in Lateinisch lookup 0 subtable" dx=5 dy=0 dh=10 dv=0
EndChar

StartChar: Edotaccent
Encoding: 278 278 44
Width: 553
Flags: MW
HStem: 0 98<190 511 190 511> 298 96<190 451 190 451> 588 97<190 511 190 190> 782 114<244 352 244 352>
VStem: 79 111<98 298 394 588> 244 108<782 896 782 896>
LayerCount: 2
Fore
SplineSet
79 0 m 1
 79 685 l 1
 511 685 l 1
 511 588 l 1
 190 588 l 1
 190 394 l 1
 451 394 l 1
 451 298 l 1
 190 298 l 1
 190 98 l 1
 511 98 l 1
 511 0 l 1
 79 0 l 1
244 782 m 1
 244 896 l 1
 352 896 l 1
 352 782 l 1
 244 782 l 1
EndSplineSet
Position2: "'cpsp' Capital Spacing in Lateinisch lookup 0 subtable" dx=5 dy=0 dh=10 dv=0
EndChar

StartChar: Egrave
Encoding: 200 200 45
Width: 553
Flags: MW
HStem: 0 98<190 511 190 511> 298 96<190 451 190 451> 588 97<190 511 190 190>
VStem: 79 111<98 298 394 588>
LayerCount: 2
Fore
SplineSet
79 0 m 1
 79 685 l 1
 511 685 l 1
 511 588 l 1
 190 588 l 1
 190 394 l 1
 451 394 l 1
 451 298 l 1
 190 298 l 1
 190 98 l 1
 511 98 l 1
 511 0 l 1
 79 0 l 1
187 939 m 1
 423 836 l 1
 395 760 l 1
 152 842 l 1
 187 939 l 1
EndSplineSet
Position2: "'cpsp' Capital Spacing in Lateinisch lookup 0 subtable" dx=5 dy=0 dh=10 dv=0
EndChar

StartChar: Emacron
Encoding: 274 274 46
Width: 553
Flags: MW
HStem: 0 98<190 511 190 511> 298 96<190 451 190 451> 588 97<190 511 190 190> 795 81<125 457 125 457>
VStem: 79 111<98 298 394 588>
LayerCount: 2
Fore
SplineSet
79 0 m 1
 79 685 l 1
 511 685 l 1
 511 588 l 1
 190 588 l 1
 190 394 l 1
 451 394 l 1
 451 298 l 1
 190 298 l 1
 190 98 l 1
 511 98 l 1
 511 0 l 1
 79 0 l 1
125 795 m 1
 125 876 l 1
 457 876 l 1
 457 795 l 1
 125 795 l 1
EndSplineSet
Position2: "'cpsp' Capital Spacing in Lateinisch lookup 0 subtable" dx=5 dy=0 dh=10 dv=0
EndChar

StartChar: Eogonek
Encoding: 280 280 47
Width: 553
Flags: MW
HStem: -212 84<390 461> 0 98<190 386 482 482 482 511> 298 96<190 451 190 451> 588 97<190 511 190 190>
VStem: 79 111<98 298 394 588> 318 102<-101.5 -92>
LayerCount: 2
Fore
SplineSet
79 0 m 1
 79 685 l 1
 511 685 l 1
 511 588 l 1
 190 588 l 1
 190 394 l 1
 451 394 l 1
 451 298 l 1
 190 298 l 1
 190 98 l 1
 511 98 l 1
 511 0 l 1
 482 0 l 1
 476 -5 420 -58 420 -90 c 0
 420 -113 435 -128 456 -128 c 0
 466 -128 501 -123 501 -123 c 1
 511 -202 l 1
 511 -202 458 -212 419 -212 c 0
 361 -212 318 -177 318 -119 c 0
 318 -65 364 -19 386 0 c 1
 79 0 l 1
EndSplineSet
Position2: "'cpsp' Capital Spacing in Lateinisch lookup 0 subtable" dx=5 dy=0 dh=10 dv=0
EndChar

StartChar: F
Encoding: 70 70 48
Width: 529
Flags: MW
HStem: 0 21G<79 79 79 190> 260 97<190 451 190 451> 588 97<190 504 190 190>
VStem: 79 111<0 260 357 588>
LayerCount: 2
Fore
SplineSet
79 0 m 1
 79 685 l 1
 504 685 l 1
 504 588 l 1
 190 588 l 1
 190 357 l 1
 451 357 l 1
 451 260 l 1
 190 260 l 1
 190 0 l 1
 79 0 l 1
EndSplineSet
Position2: "'cpsp' Capital Spacing in Lateinisch lookup 0 subtable" dx=5 dy=0 dh=10 dv=0
EndChar

StartChar: G
Encoding: 71 71 49
Width: 613
Flags: MW
HStem: -11 97<264 356.5 264 365.5> 262 98<358 553 358 443> 597 99<268.5 372.5 218 382.5> 669 21G<553 553>
VStem: 50 115<249 438.5 249 462> 443 110<95 262 262 262>
LayerCount: 2
Fore
SplineSet
358 262 m 1xdc
 358 360 l 1
 553 360 l 1
 553 12 l 1
 544 10 407 -11 324 -11 c 0
 106 -11 50 115 50 342 c 0
 50 582 116 696 320 696 c 0xec
 425 696 553 669 553 669 c 1xdc
 549 581 l 1
 549 581 428 597 337 597 c 0xec
 200 597 165 535 165 342 c 0
 165 156 194 86 334 86 c 0
 379 86 431 92 443 95 c 1
 443 262 l 1
 358 262 l 1xdc
EndSplineSet
Position2: "'cpsp' Capital Spacing in Lateinisch lookup 0 subtable" dx=5 dy=0 dh=10 dv=0
EndChar

StartChar: Gbreve
Encoding: 286 286 50
Width: 613
Flags: MW
HStem: -11 97<264 356.5 264 365.5> 262 98<358 553 358 443> 597 99<268.5 372.5 218 382.5> 669 21G<553 553> 771 78<303.5 346 303.5 378.5>
VStem: 50 115<249 438.5 249 462> 443 110<95 262 262 262>
LayerCount: 2
Fore
SplineSet
358 262 m 1xde
 358 360 l 1
 553 360 l 1
 553 12 l 1
 544 10 407 -11 324 -11 c 0
 106 -11 50 115 50 342 c 0
 50 582 116 696 320 696 c 0xee
 425 696 553 669 553 669 c 1xde
 549 581 l 1
 549 581 428 597 337 597 c 0xee
 200 597 165 535 165 342 c 0
 165 156 194 86 334 86 c 0
 379 86 431 92 443 95 c 1
 443 262 l 1
 358 262 l 1xde
151 914 m 1
 250 914 l 1
 253 876 283 849 324 849 c 0
 368 849 397 876 400 914 c 1
 499 914 l 1
 491 831 433 771 324 771 c 0
 216 771 158 831 151 914 c 1
EndSplineSet
Position2: "'cpsp' Capital Spacing in Lateinisch lookup 0 subtable" dx=5 dy=0 dh=10 dv=0
EndChar

StartChar: Gcircumflex
Encoding: 284 284 51
Width: 613
Flags: MW
HStem: -10 97<264 356.5 264 365.5> 263 98<358 553 358 443> 598 99<268.5 372.5 218 382.5> 670 21G<553 553> 775 143<145 373 145 373 279 391 279 507>
VStem: 50 115<250 439.5 250 463> 443 110<96 263 263 263>
LayerCount: 2
Fore
SplineSet
358 263 m 1xde
 358 361 l 1
 553 361 l 1
 553 13 l 1
 544 11 407 -10 324 -10 c 0
 106 -10 50 116 50 343 c 0
 50 583 116 697 320 697 c 0xee
 425 697 553 670 553 670 c 1xde
 549 582 l 1
 549 582 428 598 337 598 c 0xee
 200 598 165 536 165 343 c 0
 165 157 194 87 334 87 c 0
 379 87 431 93 443 96 c 1
 443 263 l 1
 358 263 l 1xde
145 775 m 1
 279 918 l 1
 373 918 l 1
 507 775 l 1
 391 775 l 1
 327 842 l 1
 262 775 l 1
 145 775 l 1
EndSplineSet
Position2: "'cpsp' Capital Spacing in Lateinisch lookup 0 subtable" dx=5 dy=0 dh=10 dv=0
EndChar

StartChar: Gcommaaccent
Encoding: 290 290 52
Width: 613
Flags: MW
HStem: -77 163<281 281 281 356.5 264 387> -11 97<264 356.5 264 365.5> 262 98<358 553 358 443> 597 99<268.5 372.5 218 382.5> 669 21G<553 553>
VStem: 50 115<249 438.5 249 462> 443 110<95 262 262 262>
LayerCount: 2
Fore
SplineSet
358 262 m 1x6e
 358 360 l 1
 553 360 l 1
 553 12 l 1
 544 10 407 -11 324 -11 c 0
 106 -11 50 115 50 342 c 0
 50 582 116 696 320 696 c 0x76
 425 696 553 669 553 669 c 1x6e
 549 581 l 1
 549 581 428 597 337 597 c 0x76
 200 597 165 535 165 342 c 0
 165 156 194 86 334 86 c 0
 379 86 431 92 443 95 c 1
 443 262 l 1
 358 262 l 1x6e
281 -77 m 1xae
 237 -300 l 1
 334 -300 l 1
 387 -77 l 1
 281 -77 l 1xae
EndSplineSet
Position2: "'cpsp' Capital Spacing in Lateinisch lookup 0 subtable" dx=5 dy=0 dh=10 dv=0
EndChar

StartChar: Gdotaccent
Encoding: 288 288 53
Width: 613
Flags: MW
HStem: -11 97<264 356.5 264 365.5> 262 98<358 553 358 443> 597 99<268.5 372.5 218 382.5> 669 21G<553 553> 782 114<258 366 258 366>
VStem: 50 115<249 438.5 249 462> 258 108<782 896 782 896> 443 110<95 262 262 262>
LayerCount: 2
Fore
SplineSet
358 262 m 1xdf
 358 360 l 1
 553 360 l 1
 553 12 l 1
 544 10 407 -11 324 -11 c 0
 106 -11 50 115 50 342 c 0
 50 582 116 696 320 696 c 0xef
 425 696 553 669 553 669 c 1xdf
 549 581 l 1
 549 581 428 597 337 597 c 0xef
 200 597 165 535 165 342 c 0
 165 156 194 86 334 86 c 0
 379 86 431 92 443 95 c 1
 443 262 l 1
 358 262 l 1xdf
258 782 m 1
 258 896 l 1
 366 896 l 1
 366 782 l 1
 258 782 l 1
EndSplineSet
Position2: "'cpsp' Capital Spacing in Lateinisch lookup 0 subtable" dx=5 dy=0 dh=10 dv=0
EndChar

StartChar: H
Encoding: 72 72 54
Width: 676
Flags: MW
HStem: 0 21G<79 190 79 79 486 598 486 486> 296 97<190 486 190 486>
VStem: 79 111<0 296 0 393 393 685> 486 112<0 296 296 296 393 685 0 685>
LayerCount: 2
Fore
SplineSet
486 0 m 1
 486 296 l 1
 190 296 l 1
 190 0 l 1
 79 0 l 1
 79 685 l 1
 190 685 l 1
 190 393 l 1
 486 393 l 1
 486 685 l 1
 598 685 l 1
 598 0 l 1
 486 0 l 1
EndSplineSet
Position2: "'cpsp' Capital Spacing in Lateinisch lookup 0 subtable" dx=5 dy=0 dh=10 dv=0
EndChar

StartChar: Hbar
Encoding: 294 294 55
Width: 685
Flags: MW
HStem: 0 21G<83 194 83 83 490 602 490 490> 296 97<194 490 194 490> 495 95<17 83 17 83 194 490 602 675>
VStem: 83 111<0 296 393 495 590 685> 490 112<0 296 296 296 393 495 0 495 590 685>
LayerCount: 2
Fore
SplineSet
17 495 m 1
 17 590 l 1
 83 590 l 1
 83 685 l 1
 194 685 l 1
 194 590 l 1
 490 590 l 1
 490 685 l 1
 602 685 l 1
 602 590 l 1
 675 590 l 1
 675 495 l 1
 602 495 l 1
 602 0 l 1
 490 0 l 1
 490 296 l 1
 194 296 l 1
 194 0 l 1
 83 0 l 1
 83 495 l 1
 17 495 l 1
194 393 m 1
 490 393 l 1
 490 495 l 1
 194 495 l 1
 194 393 l 1
EndSplineSet
Position2: "'cpsp' Capital Spacing in Lateinisch lookup 0 subtable" dx=5 dy=0 dh=10 dv=0
EndChar

StartChar: Hcircumflex
Encoding: 292 292 56
Width: 676
Flags: MW
HStem: 0 21G<79 190 79 79 486 598 486 486> 296 97<190 486 190 486> 776 143<157 385 157 385 291 403 291 519>
VStem: 79 111<0 296 0 393 393 685> 486 112<0 296 296 296 393 685 0 685>
LayerCount: 2
Fore
SplineSet
486 0 m 1
 486 296 l 1
 190 296 l 1
 190 0 l 1
 79 0 l 1
 79 685 l 1
 190 685 l 1
 190 393 l 1
 486 393 l 1
 486 685 l 1
 598 685 l 1
 598 0 l 1
 486 0 l 1
157 776 m 1
 291 919 l 1
 385 919 l 1
 519 776 l 1
 403 776 l 1
 339 843 l 1
 274 776 l 1
 157 776 l 1
EndSplineSet
Position2: "'cpsp' Capital Spacing in Lateinisch lookup 0 subtable" dx=5 dy=0 dh=10 dv=0
EndChar

StartChar: I
Encoding: 73 73 57
Width: 269
Flags: MW
HStem: 0 21G<79 79 79 190>
VStem: 79 111<0 685 0 685>
LayerCount: 2
Fore
SplineSet
79 0 m 1
 79 685 l 1
 190 685 l 1
 190 0 l 1
 79 0 l 1
EndSplineSet
Position2: "'cpsp' Capital Spacing in Lateinisch lookup 0 subtable" dx=5 dy=0 dh=10 dv=0
EndChar

StartChar: Iacute
Encoding: 205 205 58
Width: 269
Flags: MW
HStem: 0 21G<79 79 79 190>
VStem: 79 111<0 685 0 685>
LayerCount: 2
Fore
SplineSet
79 0 m 1
 79 685 l 1
 190 685 l 1
 190 0 l 1
 79 0 l 1
10 836 m 1
 246 939 l 1
 281 842 l 1
 38 760 l 1
 10 836 l 1
EndSplineSet
Position2: "'cpsp' Capital Spacing in Lateinisch lookup 0 subtable" dx=5 dy=0 dh=10 dv=0
EndChar

StartChar: Ibreve
Encoding: 300 300 59
Width: 269
Flags: MW
HStem: 0 21G<79 79 79 190> 771 78<126.5 169 126.5 201.5>
VStem: 79 111<0 685 0 685>
LayerCount: 2
Fore
SplineSet
79 0 m 1
 79 685 l 1
 190 685 l 1
 190 0 l 1
 79 0 l 1
-26 914 m 1
 73 914 l 1
 76 876 106 849 147 849 c 0
 191 849 220 876 223 914 c 1
 322 914 l 1
 314 831 256 771 147 771 c 0
 39 771 -19 831 -26 914 c 1
EndSplineSet
Position2: "'cpsp' Capital Spacing in Lateinisch lookup 0 subtable" dx=5 dy=0 dh=10 dv=0
EndChar

StartChar: Icircumflex
Encoding: 206 206 60
Width: 269
Flags: MW
HStem: 0 21G<79 79 79 190> 776 143<-49 179 -49 179 85 197 85 313>
VStem: 79 111<0 685 0 685>
LayerCount: 2
Fore
SplineSet
79 0 m 1
 79 685 l 1
 190 685 l 1
 190 0 l 1
 79 0 l 1
-49 776 m 1
 85 919 l 1
 179 919 l 1
 313 776 l 1
 197 776 l 1
 133 843 l 1
 68 776 l 1
 -49 776 l 1
EndSplineSet
Position2: "'cpsp' Capital Spacing in Lateinisch lookup 0 subtable" dx=5 dy=0 dh=10 dv=0
EndChar

StartChar: Idieresis
Encoding: 207 207 61
Width: 269
Flags: MW
HStem: 0 21G<79 79 79 190> 783 114<-22 82 -22 82 187 291 -22 187>
VStem: -22 104<783 897 783 897> 79 111<0 685 0 685> 187 104<783 897 783 897>
LayerCount: 2
Fore
SplineSet
79 0 m 1xd0
 79 685 l 1
 190 685 l 1
 190 0 l 1
 79 0 l 1xd0
-22 783 m 1xe8
 -22 897 l 1
 82 897 l 1
 82 783 l 1
 -22 783 l 1xe8
187 783 m 1
 187 897 l 1
 291 897 l 1
 291 783 l 1
 187 783 l 1
EndSplineSet
Position2: "'cpsp' Capital Spacing in Lateinisch lookup 0 subtable" dx=5 dy=0 dh=10 dv=0
EndChar

StartChar: Idotaccent
Encoding: 304 304 62
Width: 269
Flags: MW
HStem: 0 21G<79 79 79 190> 782 114<80 188 80 188>
VStem: 79 111<0 685 0 685>
LayerCount: 2
Fore
SplineSet
79 0 m 1
 79 685 l 1
 190 685 l 1
 190 0 l 1
 79 0 l 1
80 782 m 1
 80 896 l 1
 188 896 l 1
 188 782 l 1
 80 782 l 1
EndSplineSet
Position2: "'cpsp' Capital Spacing in Lateinisch lookup 0 subtable" dx=5 dy=0 dh=10 dv=0
EndChar

StartChar: Igrave
Encoding: 204 204 63
Width: 269
Flags: MW
HStem: 0 21G<79 79 79 190>
VStem: 79 111<0 685 0 685>
LayerCount: 2
Fore
SplineSet
79 0 m 1
 79 685 l 1
 190 685 l 1
 190 0 l 1
 79 0 l 1
12 939 m 1
 248 836 l 1
 220 760 l 1
 -23 842 l 1
 12 939 l 1
EndSplineSet
Position2: "'cpsp' Capital Spacing in Lateinisch lookup 0 subtable" dx=5 dy=0 dh=10 dv=0
EndChar

StartChar: Imacron
Encoding: 298 298 64
Width: 269
Flags: MW
HStem: 0 21G<79 79 79 190> 795 81<-29 303 -29 303>
VStem: 79 111<0 685 0 685>
LayerCount: 2
Fore
SplineSet
79 0 m 1
 79 685 l 1
 190 685 l 1
 190 0 l 1
 79 0 l 1
-29 795 m 1
 -29 876 l 1
 303 876 l 1
 303 795 l 1
 -29 795 l 1
EndSplineSet
Position2: "'cpsp' Capital Spacing in Lateinisch lookup 0 subtable" dx=5 dy=0 dh=10 dv=0
EndChar

StartChar: Iogonek
Encoding: 302 302 65
Width: 269
Flags: MW
HStem: -212 84<90 160.5> 0 21G<79 79 79 88 190 190>
VStem: 79 111<0 685 0 685>
LayerCount: 2
Fore
SplineSet
79 0 m 1
 79 685 l 1
 190 685 l 1
 190 0 l 1
 190 0 120 -56 120 -90 c 0
 120 -113 135 -128 155 -128 c 0
 166 -128 201 -123 201 -123 c 1
 211 -202 l 1
 211 -202 158 -212 119 -212 c 0
 61 -212 17 -177 17 -119 c 0
 17 -65 64 -19 88 0 c 1
 79 0 l 1
EndSplineSet
Position2: "'cpsp' Capital Spacing in Lateinisch lookup 0 subtable" dx=5 dy=0 dh=10 dv=0
EndChar

StartChar: Itilde
Encoding: 296 296 66
Width: 269
Flags: MW
HStem: 0 21G<79 79 79 190> 777 96<199.5 226 199.5 241> 827 96<37 66.5>
VStem: 79 111<0 685 0 685>
LayerCount: 2
Fore
SplineSet
79 0 m 1xb0
 79 685 l 1
 190 685 l 1
 190 0 l 1
 79 0 l 1xb0
290 917 m 1xd0
 314 838 l 1
 314 838 265 777 217 777 c 0xd0
 167 777 83 827 50 827 c 0
 24 827 -26 783 -26 783 c 1
 -50 861 l 1
 -50 861 1 923 49 923 c 0xb0
 105 923 185 873 214 873 c 0
 238 873 290 917 290 917 c 1xd0
EndSplineSet
Position2: "'cpsp' Capital Spacing in Lateinisch lookup 0 subtable" dx=5 dy=0 dh=10 dv=0
EndChar

StartChar: J
Encoding: 74 74 67
Width: 296
Flags: MW
HStem: -71 98<19 52.5 19 90>
VStem: 111 111<31 685>
LayerCount: 2
Fore
SplineSet
221 685 m 1
 222 106 l 2
 222 -44 161 -71 19 -71 c 1
 19 27 l 1
 86 27 111 38 111 114 c 2
 111 685 l 1
 221 685 l 1
EndSplineSet
Position2: "'cpsp' Capital Spacing in Lateinisch lookup 0 subtable" dx=5 dy=0 dh=10 dv=0
EndChar

StartChar: Jcircumflex
Encoding: 308 308 68
Width: 296
Flags: MW
HStem: -71 98<19 52.5 19 90> 775 143<-15 213 -15 213 119 231 119 347>
VStem: 111 111<31 685>
LayerCount: 2
Fore
SplineSet
221 685 m 1
 222 106 l 2
 222 -44 161 -71 19 -71 c 1
 19 27 l 1
 86 27 111 38 111 114 c 2
 111 685 l 1
 221 685 l 1
-15 775 m 1
 119 918 l 1
 213 918 l 1
 347 775 l 1
 231 775 l 1
 167 842 l 1
 102 775 l 1
 -15 775 l 1
EndSplineSet
Position2: "'cpsp' Capital Spacing in Lateinisch lookup 0 subtable" dx=5 dy=0 dh=10 dv=0
EndChar

StartChar: K
Encoding: 75 75 69
Width: 583
Flags: MW
HStem: 0 21G<79 190 79 79 437 566 437 437> 282.5 97.5
VStem: 79 111<0 279 0 376 376 685>
LayerCount: 2
Fore
SplineSet
437 0 m 1
 292 286 l 1
 190 279 l 1
 190 0 l 1
 79 0 l 1
 79 685 l 1
 190 685 l 1
 190 376 l 1
 292 384 l 1
 432 685 l 1
 559 685 l 1
 390 341 l 1
 566 0 l 1
 437 0 l 1
EndSplineSet
Position2: "'cpsp' Capital Spacing in Lateinisch lookup 0 subtable" dx=5 dy=0 dh=10 dv=0
EndChar

StartChar: Kcommaaccent
Encoding: 310 310 70
Width: 581
Flags: MW
HStem: 0 21G<79 190 79 79 437 566 437 437> 282.5 107
VStem: 79 111<0 279 0 386 386 693>
LayerCount: 2
Fore
SplineSet
437 0 m 1
 292 286 l 1
 190 279 l 1
 190 0 l 1
 79 0 l 1
 79 693 l 1
 190 693 l 1
 190 386 l 1
 290 393 l 1
 430 693 l 1
 559 693 l 1
 390 347 l 1
 566 0 l 1
 437 0 l 1
253 -77 m 1
 210 -300 l 1
 306 -300 l 1
 359 -77 l 1
 253 -77 l 1
EndSplineSet
Position2: "'cpsp' Capital Spacing in Lateinisch lookup 0 subtable" dx=5 dy=0 dh=10 dv=0
EndChar

StartChar: L
Encoding: 76 76 71
Width: 475
Flags: MW
HStem: 0 99<190 463 190 463>
VStem: 79 111<99 685 99 685 99 685>
LayerCount: 2
Fore
SplineSet
463 0 m 1
 79 0 l 1
 79 685 l 1
 190 685 l 1
 190 99 l 1
 463 99 l 1
 463 0 l 1
EndSplineSet
Position2: "'cpsp' Capital Spacing in Lateinisch lookup 0 subtable" dx=5 dy=0 dh=10 dv=0
EndChar

StartChar: Lacute
Encoding: 313 313 72
Width: 476
Flags: MW
HStem: 0 107<190 463 190 463>
VStem: 79 111<107 693 107 693 107 693>
LayerCount: 2
Fore
SplineSet
463 0 m 1
 79 0 l 1
 79 693 l 1
 190 693 l 1
 190 107 l 1
 463 107 l 1
 463 0 l 1
120 836 m 1
 356 939 l 1
 391 842 l 1
 148 760 l 1
 120 836 l 1
EndSplineSet
Position2: "'cpsp' Capital Spacing in Lateinisch lookup 0 subtable" dx=5 dy=0 dh=10 dv=0
EndChar

StartChar: Lcaron
Encoding: 317 317 73
Width: 496
Flags: MW
HStem: 0 99<190 463 190 463> 444 249<346 451 346 451>
VStem: 79 111<99 685 99 685 99 685> 346 105<444 693 444 693>
LayerCount: 2
Fore
SplineSet
451 693 m 1
 451 444 l 1
 346 444 l 1
 346 693 l 1
 451 693 l 1
463 0 m 1
 79 0 l 1
 79 685 l 1
 190 685 l 1
 190 99 l 1
 463 99 l 1
 463 0 l 1
EndSplineSet
Position2: "'cpsp' Capital Spacing in Lateinisch lookup 0 subtable" dx=5 dy=0 dh=10 dv=0
EndChar

StartChar: Lcommaaccent
Encoding: 315 315 74
Width: 475
Flags: MW
HStem: -77 176<220 220 220 326> 0 99<190 463 190 463>
VStem: 79 111<99 685 99 685 99 685>
LayerCount: 2
Fore
SplineSet
220 -77 m 1xa0
 176 -300 l 1
 273 -300 l 1
 326 -77 l 1
 220 -77 l 1xa0
463 0 m 1x60
 79 0 l 1
 79 685 l 1
 190 685 l 1
 190 99 l 1
 463 99 l 1
 463 0 l 1x60
EndSplineSet
Position2: "'cpsp' Capital Spacing in Lateinisch lookup 0 subtable" dx=5 dy=0 dh=10 dv=0
EndChar

StartChar: Lslash
Encoding: 321 321 75
Width: 482
Flags: MW
HStem: 0 99<197 470 197 470> 492 20G<315 315>
VStem: 86 111<99 240 240 240 429 685>
LayerCount: 2
Fore
SplineSet
470 0 m 1
 86 0 l 1
 86 240 l 1
 38 207 l 1
 -15 281 l 1
 86 351 l 1
 86 685 l 1
 197 685 l 1
 197 429 l 1
 315 512 l 1
 368 439 l 1
 197 318 l 1
 197 99 l 1
 470 99 l 1
 470 0 l 1
EndSplineSet
Position2: "'cpsp' Capital Spacing in Lateinisch lookup 0 subtable" dx=5 dy=0 dh=10 dv=0
EndChar

StartChar: M
Encoding: 77 77 76
Width: 850
Flags: MW
HStem: 0 21G<79 79 79 190 660 660 660 772> 562 123<190 205 190 190 645 660 645 645>
VStem: 79 111<0 562 0 685> 660 112<0 562 562 562>
LayerCount: 2
Fore
SplineSet
79 0 m 1
 79 685 l 1
 272 685 l 1
 425 150 l 1
 578 685 l 1
 772 685 l 1
 772 0 l 1
 660 0 l 1
 660 562 l 1
 645 562 l 1
 483 28 l 1
 367 28 l 1
 205 562 l 1
 190 562 l 1
 190 0 l 1
 79 0 l 1
EndSplineSet
Position2: "'cpsp' Capital Spacing in Lateinisch lookup 0 subtable" dx=5 dy=0 dh=10 dv=0
EndChar

StartChar: N
Encoding: 78 78 77
Width: 686
Flags: MW
HStem: 0 98<417 496 481 496 481 607> 588 97<190 204 190 190>
VStem: 79 111<0 588 0 685 0 685> 496 111<98 685 0 685>
LayerCount: 2
Fore
SplineSet
79 0 m 1
 79 685 l 1
 273 685 l 1
 481 98 l 1
 496 98 l 1
 496 685 l 1
 607 685 l 1
 607 0 l 1
 417 0 l 1
 204 588 l 1
 190 588 l 1
 190 0 l 1
 79 0 l 1
EndSplineSet
Position2: "'cpsp' Capital Spacing in Lateinisch lookup 0 subtable" dx=5 dy=0 dh=10 dv=0
EndChar

StartChar: Nacute
Encoding: 323 323 78
Width: 686
Flags: MW
HStem: 0 98<417 496 481 496 481 607> 588 97<190 204 190 190>
VStem: 79 111<0 588 0 685 0 685> 496 111<98 685 0 685>
LayerCount: 2
Fore
SplineSet
79 0 m 1
 79 685 l 1
 273 685 l 1
 481 98 l 1
 496 98 l 1
 496 685 l 1
 607 685 l 1
 607 0 l 1
 417 0 l 1
 204 588 l 1
 190 588 l 1
 190 0 l 1
 79 0 l 1
210 836 m 1
 446 939 l 1
 481 842 l 1
 238 760 l 1
 210 836 l 1
EndSplineSet
Position2: "'cpsp' Capital Spacing in Lateinisch lookup 0 subtable" dx=5 dy=0 dh=10 dv=0
EndChar

StartChar: Ncaron
Encoding: 327 327 79
Width: 686
Flags: MW
HStem: 0 98<417 496 481 496 481 607> 588 97<190 204 190 190> 775 143<163 297 163 391>
VStem: 79 111<0 588 0 685 0 685> 496 111<98 685 0 685>
LayerCount: 2
Fore
SplineSet
79 0 m 1
 79 685 l 1
 273 685 l 1
 481 98 l 1
 496 98 l 1
 496 685 l 1
 607 685 l 1
 607 0 l 1
 417 0 l 1
 204 588 l 1
 190 588 l 1
 190 0 l 1
 79 0 l 1
297 775 m 1
 163 918 l 1
 280 918 l 1
 345 852 l 1
 408 918 l 1
 525 918 l 1
 391 775 l 1
 297 775 l 1
EndSplineSet
Position2: "'cpsp' Capital Spacing in Lateinisch lookup 0 subtable" dx=5 dy=0 dh=10 dv=0
EndChar

StartChar: Ncommaaccent
Encoding: 325 325 80
Width: 686
Flags: MW
HStem: 0 98<417 496 481 496 481 607> 588 97<190 204 190 190>
VStem: 79 111<0 588 0 685 0 685> 496 111<98 685 0 685>
LayerCount: 2
Fore
SplineSet
310 -77 m 1
 266 -300 l 1
 363 -300 l 1
 415 -77 l 1
 310 -77 l 1
79 0 m 1
 79 685 l 1
 273 685 l 1
 481 98 l 1
 496 98 l 1
 496 685 l 1
 607 685 l 1
 607 0 l 1
 417 0 l 1
 204 588 l 1
 190 588 l 1
 190 0 l 1
 79 0 l 1
EndSplineSet
Position2: "'cpsp' Capital Spacing in Lateinisch lookup 0 subtable" dx=5 dy=0 dh=10 dv=0
EndChar

StartChar: Ntilde
Encoding: 209 209 81
Width: 686
Flags: MW
HStem: 0 98<417 496 481 496 481 607> 588 97<190 204 190 190> 777 96<406.5 433 406.5 448> 827 96<244 273.5>
VStem: 79 111<0 588 0 685 0 685> 496 111<98 685 0 685>
LayerCount: 2
Fore
SplineSet
79 0 m 1xdc
 79 685 l 1
 273 685 l 1
 481 98 l 1
 496 98 l 1
 496 685 l 1
 607 685 l 1
 607 0 l 1
 417 0 l 1
 204 588 l 1
 190 588 l 1
 190 0 l 1
 79 0 l 1xdc
497 917 m 1xec
 521 838 l 1
 521 838 472 777 424 777 c 0xec
 374 777 290 827 257 827 c 0
 231 827 181 783 181 783 c 1
 157 861 l 1
 157 861 208 923 256 923 c 0xdc
 312 923 392 873 421 873 c 0
 445 873 497 917 497 917 c 1xec
EndSplineSet
Position2: "'cpsp' Capital Spacing in Lateinisch lookup 0 subtable" dx=5 dy=0 dh=10 dv=0
EndChar

StartChar: O
Encoding: 79 79 82
Width: 656
Flags: MW
HStem: -11 97<261.5 394.5 261.5 435> 599 97<262 394>
VStem: 49 115<253.5 424 253.5 453.5> 491 115<252 424>
LayerCount: 2
Fore
SplineSet
328 86 m 0
 461 86 491 165 491 339 c 0
 491 509 460 599 328 599 c 0
 196 599 164 509 164 339 c 0
 164 168 195 86 328 86 c 0
328 -11 m 0
 113 -11 49 108 49 339 c 0
 49 568 114 696 328 696 c 0
 542 696 606 569 606 339 c 0
 606 106 542 -11 328 -11 c 0
EndSplineSet
Position2: "'cpsp' Capital Spacing in Lateinisch lookup 0 subtable" dx=5 dy=0 dh=10 dv=0
EndChar

StartChar: Oacute
Encoding: 211 211 83
Width: 656
Flags: MW
HStem: -11 97<261.5 394.5 261.5 435> 599 97<262 394>
VStem: 49 115<253.5 424 253.5 453.5> 491 115<252 424>
LayerCount: 2
Fore
SplineSet
328 86 m 0
 461 86 491 165 491 339 c 0
 491 509 460 599 328 599 c 0
 196 599 164 509 164 339 c 0
 164 168 195 86 328 86 c 0
328 -11 m 0
 113 -11 49 108 49 339 c 0
 49 568 114 696 328 696 c 0
 542 696 606 569 606 339 c 0
 606 106 542 -11 328 -11 c 0
181 836 m 1
 417 939 l 1
 452 842 l 1
 209 760 l 1
 181 836 l 1
EndSplineSet
Position2: "'cpsp' Capital Spacing in Lateinisch lookup 0 subtable" dx=5 dy=0 dh=10 dv=0
EndChar

StartChar: Obreve
Encoding: 334 334 84
Width: 656
Flags: MW
HStem: -11 97<261.5 394.5 261.5 435> 599 97<262 394> 771 78<307.5 350 307.5 382.5>
VStem: 49 115<253.5 424 253.5 453.5> 491 115<252 424>
LayerCount: 2
Fore
SplineSet
328 86 m 0
 461 86 491 165 491 339 c 0
 491 509 460 599 328 599 c 0
 196 599 164 509 164 339 c 0
 164 168 195 86 328 86 c 0
328 -11 m 0
 113 -11 49 108 49 339 c 0
 49 568 114 696 328 696 c 0
 542 696 606 569 606 339 c 0
 606 106 542 -11 328 -11 c 0
155 914 m 1
 254 914 l 1
 257 876 287 849 328 849 c 0
 372 849 401 876 404 914 c 1
 503 914 l 1
 495 831 437 771 328 771 c 0
 220 771 162 831 155 914 c 1
EndSplineSet
Position2: "'cpsp' Capital Spacing in Lateinisch lookup 0 subtable" dx=5 dy=0 dh=10 dv=0
EndChar

StartChar: Ocircumflex
Encoding: 212 212 85
Width: 656
Flags: MW
HStem: -11 97<261.5 394.5 261.5 435> 599 97<262 394> 776 143<148 376 148 376 282 394 282 510>
VStem: 49 115<253.5 424 253.5 453.5> 491 115<252 424>
LayerCount: 2
Fore
SplineSet
328 86 m 0
 461 86 491 165 491 339 c 0
 491 509 460 599 328 599 c 0
 196 599 164 509 164 339 c 0
 164 168 195 86 328 86 c 0
328 -11 m 0
 113 -11 49 108 49 339 c 0
 49 568 114 696 328 696 c 0
 542 696 606 569 606 339 c 0
 606 106 542 -11 328 -11 c 0
148 776 m 1
 282 919 l 1
 376 919 l 1
 510 776 l 1
 394 776 l 1
 330 843 l 1
 265 776 l 1
 148 776 l 1
EndSplineSet
Position2: "'cpsp' Capital Spacing in Lateinisch lookup 0 subtable" dx=5 dy=0 dh=10 dv=0
EndChar

StartChar: Odieresis
Encoding: 214 214 86
Width: 656
Flags: MW
HStem: -11 97<261.5 394.5 261.5 435> 599 97<262 394> 783 114<172 276 172 276 381 485 172 381>
VStem: 49 115<253.5 424 253.5 453.5> 172 104<783 897 783 897> 381 104<783 897 783 897> 491 115<252 424>
LayerCount: 2
Fore
SplineSet
328 86 m 0
 461 86 491 165 491 339 c 0
 491 509 460 599 328 599 c 0
 196 599 164 509 164 339 c 0
 164 168 195 86 328 86 c 0
328 -11 m 0
 113 -11 49 108 49 339 c 0
 49 568 114 696 328 696 c 0
 542 696 606 569 606 339 c 0
 606 106 542 -11 328 -11 c 0
172 783 m 1xfc
 172 897 l 1
 276 897 l 1
 276 783 l 1
 172 783 l 1xfc
381 783 m 1
 381 897 l 1
 485 897 l 1
 485 783 l 1
 381 783 l 1
EndSplineSet
Position2: "'cpsp' Capital Spacing in Lateinisch lookup 0 subtable" dx=5 dy=0 dh=10 dv=0
EndChar

StartChar: Ograve
Encoding: 210 210 87
Width: 656
Flags: MW
HStem: -11 97<261.5 394.5 261.5 435> 599 97<262 394>
VStem: 49 115<253.5 424 253.5 453.5> 491 115<252 424>
LayerCount: 2
Fore
SplineSet
328 86 m 0
 461 86 491 165 491 339 c 0
 491 509 460 599 328 599 c 0
 196 599 164 509 164 339 c 0
 164 168 195 86 328 86 c 0
328 -11 m 0
 113 -11 49 108 49 339 c 0
 49 568 114 696 328 696 c 0
 542 696 606 569 606 339 c 0
 606 106 542 -11 328 -11 c 0
214 939 m 1
 450 836 l 1
 422 760 l 1
 179 842 l 1
 214 939 l 1
EndSplineSet
Position2: "'cpsp' Capital Spacing in Lateinisch lookup 0 subtable" dx=5 dy=0 dh=10 dv=0
EndChar

StartChar: Ohungarumlaut
Encoding: 336 336 88
Width: 656
Flags: MW
HStem: -11 97<261.5 394.5 261.5 435> 599 97<262 394>
VStem: 49 115<253.5 424 253.5 453.5> 491 115<252 424>
LayerCount: 2
Fore
SplineSet
328 86 m 0
 461 86 491 165 491 339 c 0
 491 509 460 599 328 599 c 0
 196 599 164 509 164 339 c 0
 164 168 195 86 328 86 c 0
328 -11 m 0
 113 -11 49 108 49 339 c 0
 49 568 114 696 328 696 c 0
 542 696 606 569 606 339 c 0
 606 106 542 -11 328 -11 c 0
358 779 m 1
 457 948 l 1
 547 909 l 1
 439 745 l 1
 358 779 l 1
154 780 m 1
 254 949 l 1
 343 910 l 1
 236 746 l 1
 154 780 l 1
EndSplineSet
Position2: "'cpsp' Capital Spacing in Lateinisch lookup 0 subtable" dx=5 dy=0 dh=10 dv=0
EndChar

StartChar: Omacron
Encoding: 332 332 89
Width: 656
Flags: MW
HStem: -11 97<261.5 394.5 261.5 435> 599 97<262 394> 795 81<159 491 159 491>
VStem: 49 115<253.5 424 253.5 453.5> 491 115<252 424>
LayerCount: 2
Fore
SplineSet
328 86 m 0
 461 86 491 165 491 339 c 0
 491 509 460 599 328 599 c 0
 196 599 164 509 164 339 c 0
 164 168 195 86 328 86 c 0
328 -11 m 0
 113 -11 49 108 49 339 c 0
 49 568 114 696 328 696 c 0
 542 696 606 569 606 339 c 0
 606 106 542 -11 328 -11 c 0
159 795 m 1
 159 876 l 1
 491 876 l 1
 491 795 l 1
 159 795 l 1
EndSplineSet
Position2: "'cpsp' Capital Spacing in Lateinisch lookup 0 subtable" dx=5 dy=0 dh=10 dv=0
EndChar

StartChar: Oslash
Encoding: 216 216 90
Width: 656
Flags: MW
HStem: -11 97<315.5 394.5 315.5 435> 1 21G<221 221> 599 97<262 341.5>
VStem: 49 115<297.5 424> 491 115<252 378>
LayerCount: 2
Fore
SplineSet
328 -11 m 0xb8
 287 -11 252 -7 221 1 c 1x78
 164 -122 l 1
 84 -83 l 1
 142 41 l 1
 73 97 49 197 49 339 c 0
 49 568 114 696 328 696 c 0
 371 696 408 690 440 680 c 1
 498 805 l 1
 580 770 l 1
 518 637 l 1
 583 578 606 477 606 339 c 0
 606 106 542 -11 328 -11 c 0xb8
164 339 m 0
 164 256 171 194 194 152 c 1
 397 588 l 1
 378 595 355 599 328 599 c 0
 196 599 164 509 164 339 c 0
328 86 m 0
 461 86 491 165 491 339 c 0
 491 417 484 478 464 522 c 1
 265 94 l 1
 283 89 303 86 328 86 c 0
EndSplineSet
Position2: "'cpsp' Capital Spacing in Lateinisch lookup 0 subtable" dx=5 dy=0 dh=10 dv=0
EndChar

StartChar: Oslashacute
Encoding: 510 510 91
Width: 658
Flags: MW
HStem: -11 97<316.5 395.5 316.5 436> 1 21G<222 222> 599 97<263 342.5>
VStem: 50 115<297.5 424> 492 115<252 378>
LayerCount: 2
Fore
SplineSet
329 -11 m 0xb8
 288 -11 253 -7 222 1 c 1x78
 165 -122 l 1
 85 -83 l 1
 143 41 l 1
 74 97 50 197 50 339 c 0
 50 568 115 696 329 696 c 0
 372 696 409 690 441 680 c 1
 499 805 l 1
 581 770 l 1
 519 637 l 1
 584 578 607 477 607 339 c 0
 607 106 543 -11 329 -11 c 0xb8
165 339 m 0
 165 256 172 194 195 152 c 1
 398 588 l 1
 379 595 356 599 329 599 c 0
 197 599 165 509 165 339 c 0
329 86 m 0
 462 86 492 165 492 339 c 0
 492 417 485 478 465 522 c 1
 266 94 l 1
 284 89 304 86 329 86 c 0
187 836 m 1
 423 939 l 1
 458 842 l 1
 215 760 l 1
 187 836 l 1
EndSplineSet
Position2: "'cpsp' Capital Spacing in Lateinisch lookup 0 subtable" dx=5 dy=0 dh=10 dv=0
EndChar

StartChar: Otilde
Encoding: 213 213 92
Width: 656
Flags: MW
HStem: -11 97<261.5 394.5 261.5 435> 599 97<262 394> 777 96<393.5 420 393.5 435> 827 96<231 260.5>
VStem: 49 115<253.5 424 253.5 453.5> 491 115<252 424>
LayerCount: 2
Fore
SplineSet
328 86 m 0xec
 461 86 491 165 491 339 c 0
 491 509 460 599 328 599 c 0
 196 599 164 509 164 339 c 0
 164 168 195 86 328 86 c 0xec
328 -11 m 0
 113 -11 49 108 49 339 c 0
 49 568 114 696 328 696 c 0
 542 696 606 569 606 339 c 0
 606 106 542 -11 328 -11 c 0
484 917 m 1
 508 838 l 1
 508 838 459 777 411 777 c 0xec
 361 777 277 827 244 827 c 0
 218 827 168 783 168 783 c 1
 144 861 l 1
 144 861 195 923 243 923 c 0xdc
 299 923 379 873 408 873 c 0
 432 873 484 917 484 917 c 1
EndSplineSet
Position2: "'cpsp' Capital Spacing in Lateinisch lookup 0 subtable" dx=5 dy=0 dh=10 dv=0
EndChar

StartChar: OE
Encoding: 338 338 93
Width: 912
Flags: MW
HStem: -11 109<262 331.5> 0 98 0 107<550 868 550 868> 299 106<550 808 550 808> 586 107<550 868 550 550> 594 110<264.5 331.5 214 340.5>
VStem: 51 115<255 440 255 471> 440 110<107 299 405 586>
LayerCount: 2
Fore
SplineSet
868 0 m 1x3b
 442 0 l 1x3b
 403 -6 350 -11 313 -11 c 0
 101 -11 51 108 51 345 c 0
 51 597 115 704 313 704 c 0x97
 350 704 403 699 440 693 c 1
 868 693 l 1
 868 586 l 1
 550 586 l 1
 550 405 l 1
 808 405 l 1
 808 299 l 1
 550 299 l 1
 550 107 l 1
 868 107 l 1
 868 0 l 1x3b
331 98 m 0x57
 353 98 406 102 440 105 c 1
 440 587 l 1
 405 590 353 594 328 594 c 0
 201 594 166 534 166 346 c 0
 166 164 193 98 331 98 c 0x57
EndSplineSet
Position2: "'cpsp' Capital Spacing in Lateinisch lookup 0 subtable" dx=5 dy=0 dh=10 dv=0
EndChar

StartChar: P
Encoding: 80 80 94
Width: 591
Flags: MW
HStem: 0 21G<79 190 79 79> 213 96<190 329 329 330 190 329> 589 96<190 329 190 190>
VStem: 79 111<0 213 309 589> 449 114<407.5 502>
LayerCount: 2
Fore
SplineSet
330 213 m 2
 190 213 l 1
 190 0 l 1
 79 0 l 1
 79 685 l 1
 330 685 l 2
 486 685 563 609 563 455 c 0
 563 300 486 213 330 213 c 2
190 309 m 1
 329 309 l 2
 412 309 449 360 449 455 c 0
 449 549 412 589 329 589 c 2
 190 589 l 1
 190 309 l 1
EndSplineSet
Position2: "'cpsp' Capital Spacing in Lateinisch lookup 0 subtable" dx=5 dy=0 dh=10 dv=0
EndChar

StartChar: Q
Encoding: 81 81 95
Width: 656
Flags: MW
HStem: -11 97<261.5 339> 599 97<262 394>
VStem: 49 115<253 424 253 453.5> 491 115<261.5 424>
LayerCount: 2
Fore
SplineSet
478 -151 m 1
 389 -5 l 1
 376 -9 350 -11 328 -11 c 0
 113 -11 49 107 49 339 c 0
 49 568 114 696 328 696 c 0
 542 696 606 569 606 339 c 0
 606 184 577 85 497 32 c 1
 581 -103 l 1
 478 -151 l 1
328 86 m 0
 461 86 491 164 491 339 c 0
 491 509 460 599 328 599 c 0
 196 599 164 509 164 339 c 0
 164 167 195 86 328 86 c 0
EndSplineSet
Position2: "'cpsp' Capital Spacing in Lateinisch lookup 0 subtable" dx=5 dy=0 dh=10 dv=0
EndChar

StartChar: R
Encoding: 82 82 96
Width: 618
Flags: MW
HStem: 0 21G<79 190 79 79 450 450 450 572> 244 96<190 341 341 351 190 341> 589 96<190 339 190 190>
VStem: 79 111<0 244 0 340 340 589> 457 114<430.5 505>
LayerCount: 2
Fore
SplineSet
351 244 m 1
 190 244 l 1
 190 0 l 1
 79 0 l 1
 79 685 l 1
 339 685 l 2
 490 685 571 619 571 467 c 0
 571 370 532 303 459 269 c 1
 572 0 l 1
 450 0 l 1
 351 244 l 1
457 466 m 0
 457 544 419 589 339 589 c 2
 190 589 l 1
 190 340 l 1
 341 340 l 2
 425 340 457 395 457 466 c 0
EndSplineSet
Position2: "'cpsp' Capital Spacing in Lateinisch lookup 0 subtable" dx=5 dy=0 dh=10 dv=0
EndChar

StartChar: Racute
Encoding: 340 340 97
Width: 618
Flags: MW
HStem: 340 249<190 339 339 341 190 339> 685 21G<79 339 79 79>
VStem: 190 267<0 505 244 505 430.5 505 430.5 589 430.5 589>
LayerCount: 2
Fore
SplineSet
190 244 m 1
 351 244 l 1
 450 0 l 1
 572 0 l 1
 459 269 l 1
 532 303 571 370 571 467 c 0
 571 619 490 685 339 685 c 2
 79 685 l 1
 79 0 l 1
 190 0 l 1
 190 244 l 1
457 466 m 0
 457 395 425 340 341 340 c 2
 190 340 l 1
 190 589 l 1
 339 589 l 2
 419 589 457 544 457 466 c 0
178 836 m 1
 414 939 l 1
 449 842 l 1
 206 760 l 1
 178 836 l 1
EndSplineSet
Position2: "'cpsp' Capital Spacing in Lateinisch lookup 0 subtable" dx=5 dy=0 dh=10 dv=0
EndChar

StartChar: Rcaron
Encoding: 344 344 98
Width: 618
Flags: MW
HStem: 0 21G<79 190 79 79 450 450 450 572> 244 96<190 341 341 351 190 341> 589 96<190 339 190 190> 776 143<119 253 119 347>
VStem: 79 111<0 244 0 340 340 589> 457 114<430.5 505>
LayerCount: 2
Fore
SplineSet
351 244 m 1
 190 244 l 1
 190 0 l 1
 79 0 l 1
 79 685 l 1
 339 685 l 2
 490 685 571 619 571 467 c 0
 571 370 532 303 459 269 c 1
 572 0 l 1
 450 0 l 1
 351 244 l 1
457 466 m 0
 457 544 419 589 339 589 c 2
 190 589 l 1
 190 340 l 1
 341 340 l 2
 425 340 457 395 457 466 c 0
253 776 m 1
 119 919 l 1
 236 919 l 1
 301 853 l 1
 364 919 l 1
 481 919 l 1
 347 776 l 1
 253 776 l 1
EndSplineSet
Position2: "'cpsp' Capital Spacing in Lateinisch lookup 0 subtable" dx=5 dy=0 dh=10 dv=0
EndChar

StartChar: Rcommaaccent
Encoding: 342 342 99
Width: 618
Flags: MW
HStem: -300 223<226 375 269 323> 0 21G<79 190 79 79 450 450 450 572> 244 96<190 341 341 351 190 341> 589 96<190 339 190 190>
VStem: 79 111<0 244 0 340 340 589> 457 114<430.5 505>
LayerCount: 2
Fore
SplineSet
226 -300 m 1
 269 -77 l 1
 375 -77 l 1
 323 -300 l 1
 226 -300 l 1
351 244 m 1
 190 244 l 1
 190 0 l 1
 79 0 l 1
 79 685 l 1
 339 685 l 2
 490 685 571 619 571 467 c 0
 571 370 532 303 459 269 c 1
 572 0 l 1
 450 0 l 1
 351 244 l 1
457 466 m 0
 457 544 419 589 339 589 c 2
 190 589 l 1
 190 340 l 1
 341 340 l 2
 425 340 457 395 457 466 c 0
EndSplineSet
Position2: "'cpsp' Capital Spacing in Lateinisch lookup 0 subtable" dx=5 dy=0 dh=10 dv=0
EndChar

StartChar: S
Encoding: 83 83 100
Width: 543
Flags: MW
HStem: -11 98<230.5 308.5 230.5 340.5> 599 98<238 309>
VStem: 42 111<478 539.5 478 571> 390 112<161 226>
LayerCount: 2
Fore
SplineSet
487 673 m 1
 478 583 l 1
 478 583 338 599 280 599 c 0
 196 599 153 569 153 510 c 0
 153 446 189 431 306 399 c 0
 450 359 502 321 502 204 c 0
 502 54 408 -11 273 -11 c 0
 184 -11 49 16 49 16 c 1
 60 105 l 1
 60 105 195 87 266 87 c 0
 351 87 390 125 390 197 c 0
 390 255 359 275 254 300 c 0
 106 338 42 383 42 502 c 0
 42 640 133 697 270 697 c 0
 357 697 487 673 487 673 c 1
EndSplineSet
Position2: "'cpsp' Capital Spacing in Lateinisch lookup 0 subtable" dx=5 dy=0 dh=10 dv=0
EndChar

StartChar: Sacute
Encoding: 346 346 101
Width: 543
Flags: MW
HStem: -11 98<230.5 308.5 230.5 340.5> 599 98<238 309>
VStem: 42 111<478 539.5 478 571> 390 112<161 226>
LayerCount: 2
Fore
SplineSet
487 673 m 1
 478 583 l 1
 478 583 338 599 280 599 c 0
 196 599 153 569 153 510 c 0
 153 446 189 431 306 399 c 0
 450 359 502 321 502 204 c 0
 502 54 408 -11 273 -11 c 0
 184 -11 49 16 49 16 c 1
 60 105 l 1
 60 105 195 87 266 87 c 0
 351 87 390 125 390 197 c 0
 390 255 359 275 254 300 c 0
 106 338 42 383 42 502 c 0
 42 640 133 697 270 697 c 0
 357 697 487 673 487 673 c 1
153 836 m 1
 389 939 l 1
 424 842 l 1
 181 760 l 1
 153 836 l 1
EndSplineSet
Position2: "'cpsp' Capital Spacing in Lateinisch lookup 0 subtable" dx=5 dy=0 dh=10 dv=0
EndChar

StartChar: Scaron
Encoding: 352 352 102
Width: 543
Flags: MW
HStem: -11 98<230.5 308.5 230.5 340.5> 599 98<238 309> 776 143<108 242 108 336>
VStem: 42 111<478 539.5 478 571> 390 112<161 226>
LayerCount: 2
Fore
SplineSet
487 673 m 1
 478 583 l 1
 478 583 338 599 280 599 c 0
 196 599 153 569 153 510 c 0
 153 446 189 431 306 399 c 0
 450 359 502 321 502 204 c 0
 502 54 408 -11 273 -11 c 0
 184 -11 49 16 49 16 c 1
 60 105 l 1
 60 105 195 87 266 87 c 0
 351 87 390 125 390 197 c 0
 390 255 359 275 254 300 c 0
 106 338 42 383 42 502 c 0
 42 640 133 697 270 697 c 0
 357 697 487 673 487 673 c 1
242 776 m 1
 108 919 l 1
 225 919 l 1
 290 853 l 1
 353 919 l 1
 470 919 l 1
 336 776 l 1
 242 776 l 1
EndSplineSet
Position2: "'cpsp' Capital Spacing in Lateinisch lookup 0 subtable" dx=5 dy=0 dh=10 dv=0
EndChar

StartChar: Scedilla
Encoding: 350 350 103
Width: 543
Flags: MW
HStem: -231 73<298.5 303 278.5 351.5> -221 21G<230 230> -100 58<258 305 258 305> -11 21G<258 258> -9 21G<305 305> 599 98<238 309>
VStem: 42 111<478 539.5 478 571> 258 47<-42 -11 -11 -11> 330 94<-138 -116.5> 390 112<161 226>
LayerCount: 2
Fore
SplineSet
424 -127 m 0xaf80
 424 -199 383 -231 320 -231 c 0xaf40
 277 -231 230 -221 230 -221 c 1x6f40
 234 -156 l 1
 234 -156 268 -158 289 -158 c 0
 317 -158 330 -149 330 -127 c 0
 330 -106 317 -100 289 -100 c 2xaf80
 258 -100 l 1
 258 -11 l 1
 169 -8 49 16 49 16 c 1xb740
 60 105 l 1
 60 105 195 87 266 87 c 0
 351 87 390 125 390 197 c 0
 390 255 359 275 254 300 c 0
 106 338 42 383 42 502 c 0
 42 640 133 697 270 697 c 0
 357 697 487 673 487 673 c 1
 478 583 l 1
 478 583 338 599 280 599 c 0
 196 599 153 569 153 510 c 0
 153 446 189 431 306 399 c 0
 450 359 502 321 502 204 c 0
 502 66 422 0 305 -9 c 1
 305 -42 l 1xaf40
 382 -43 424 -57 424 -127 c 0xaf80
EndSplineSet
Substitution2: "'locl' Localized Forms in Lateinisch lookup 0 subtable" Scommaaccent
Position2: "'cpsp' Capital Spacing in Lateinisch lookup 0 subtable" dx=5 dy=0 dh=10 dv=0
EndChar

StartChar: Scircumflex
Encoding: 348 348 104
Width: 543
Flags: MW
HStem: -11 98<230.5 308.5 230.5 340.5> 599 98<238 309> 775 143<94 322 94 322 228 340 228 456>
VStem: 42 111<478 539.5 478 571> 390 112<161 226>
LayerCount: 2
Fore
SplineSet
487 673 m 1
 478 583 l 1
 478 583 338 599 280 599 c 0
 196 599 153 569 153 510 c 0
 153 446 189 431 306 399 c 0
 450 359 502 321 502 204 c 0
 502 54 408 -11 273 -11 c 0
 184 -11 49 16 49 16 c 1
 60 105 l 1
 60 105 195 87 266 87 c 0
 351 87 390 125 390 197 c 0
 390 255 359 275 254 300 c 0
 106 338 42 383 42 502 c 0
 42 640 133 697 270 697 c 0
 357 697 487 673 487 673 c 1
94 775 m 1
 228 918 l 1
 322 918 l 1
 456 775 l 1
 340 775 l 1
 276 842 l 1
 211 775 l 1
 94 775 l 1
EndSplineSet
Position2: "'cpsp' Capital Spacing in Lateinisch lookup 0 subtable" dx=5 dy=0 dh=10 dv=0
EndChar

StartChar: Scommaaccent
Encoding: 536 536 105
Width: 543
Flags: MW
HStem: -77 164<230 308.5 230.5 308.5 230.5 336> -11 98<230.5 308.5 230.5 340.5> 599 98<238 309>
VStem: 42 111<478 539.5 478 571> 390 112<161 226>
LayerCount: 2
Fore
SplineSet
230 -77 m 1xb8
 186 -300 l 1
 283 -300 l 1
 336 -77 l 1
 230 -77 l 1xb8
487 673 m 1
 478 583 l 1
 478 583 338 599 280 599 c 0
 196 599 153 569 153 510 c 0
 153 446 189 431 306 399 c 0
 450 359 502 321 502 204 c 0
 502 54 408 -11 273 -11 c 0
 184 -11 49 16 49 16 c 1
 60 105 l 1
 60 105 195 87 266 87 c 0x78
 351 87 390 125 390 197 c 0
 390 255 359 275 254 300 c 0
 106 338 42 383 42 502 c 0
 42 640 133 697 270 697 c 0
 357 697 487 673 487 673 c 1
EndSplineSet
Position2: "'cpsp' Capital Spacing in Lateinisch lookup 0 subtable" dx=5 dy=0 dh=10 dv=0
EndChar

StartChar: T
Encoding: 84 84 106
Width: 526
Flags: MW
HStem: 0 21G<208 320 208 208> 586 99<13 513 13 208 320 320 320 513>
VStem: 208 112<0 586 0 586>
LayerCount: 2
Fore
SplineSet
13 586 m 1
 13 685 l 1
 513 685 l 1
 513 586 l 1
 320 586 l 1
 320 0 l 1
 208 0 l 1
 208 586 l 1
 13 586 l 1
EndSplineSet
Position2: "'cpsp' Capital Spacing in Lateinisch lookup 0 subtable" dx=5 dy=0 dh=10 dv=0
EndChar

StartChar: Tbar
Encoding: 358 358 107
Width: 529
Flags: MW
HStem: 0 21G<209 321 209 209> 274 94<64 209 64 209 321 471> 586 99<14 514 14 209 321 321 321 514>
VStem: 209 112<0 274 0 274 368 586>
LayerCount: 2
Fore
SplineSet
14 586 m 1
 14 685 l 1
 514 685 l 1
 514 586 l 1
 321 586 l 1
 321 368 l 1
 471 368 l 1
 471 274 l 1
 321 274 l 1
 321 0 l 1
 209 0 l 1
 209 274 l 1
 64 274 l 1
 64 368 l 1
 209 368 l 1
 209 586 l 1
 14 586 l 1
EndSplineSet
Position2: "'cpsp' Capital Spacing in Lateinisch lookup 0 subtable" dx=5 dy=0 dh=10 dv=0
EndChar

StartChar: Tcaron
Encoding: 356 356 108
Width: 526
Flags: MW
HStem: 0 21G<208 320 208 208> 586 99<13 513 13 208 320 320 320 513> 776 143<83 217 83 311>
VStem: 208 112<0 586 0 586>
LayerCount: 2
Fore
SplineSet
13 586 m 1
 13 685 l 1
 513 685 l 1
 513 586 l 1
 320 586 l 1
 320 0 l 1
 208 0 l 1
 208 586 l 1
 13 586 l 1
217 776 m 1
 83 919 l 1
 200 919 l 1
 265 853 l 1
 328 919 l 1
 445 919 l 1
 311 776 l 1
 217 776 l 1
EndSplineSet
Position2: "'cpsp' Capital Spacing in Lateinisch lookup 0 subtable" dx=5 dy=0 dh=10 dv=0
EndChar

StartChar: Tcommaaccent
Encoding: 538 538 109
Width: 526
Flags: MW
HStem: 0 21G<208 320 208 208> 586 99<13 513 13 208 320 320 320 513>
VStem: 208 112<0 586 0 586>
LayerCount: 2
Fore
SplineSet
233 -77 m 1
 189 -300 l 1
 286 -300 l 1
 339 -77 l 1
 233 -77 l 1
13 586 m 1
 13 685 l 1
 513 685 l 1
 513 586 l 1
 320 586 l 1
 320 0 l 1
 208 0 l 1
 208 586 l 1
 13 586 l 1
EndSplineSet
Position2: "'cpsp' Capital Spacing in Lateinisch lookup 0 subtable" dx=5 dy=0 dh=10 dv=0
EndChar

StartChar: U
Encoding: 85 85 110
Width: 650
Flags: MW
HStem: -11 97<278.5 370 278.5 406>
VStem: 73 112<221 685> 465 112<219 221 221 685>
LayerCount: 2
Fore
SplineSet
185 219 m 2
 185 126 233 86 324 86 c 0
 416 86 465 127 465 219 c 2
 465 685 l 1
 577 685 l 1
 577 221 l 2
 577 56 488 -11 324 -11 c 0
 161 -11 73 56 73 221 c 2
 73 685 l 1
 185 685 l 1
 185 219 l 2
EndSplineSet
Position2: "'cpsp' Capital Spacing in Lateinisch lookup 0 subtable" dx=5 dy=0 dh=10 dv=0
EndChar

StartChar: Uacute
Encoding: 218 218 111
Width: 650
Flags: MW
HStem: -11 97<278.5 370 278.5 406>
VStem: 73 112<221 685> 465 112<219 221 221 685>
LayerCount: 2
Fore
SplineSet
185 219 m 2
 185 126 233 86 324 86 c 0
 416 86 465 127 465 219 c 2
 465 685 l 1
 577 685 l 1
 577 221 l 2
 577 56 488 -11 324 -11 c 0
 161 -11 73 56 73 221 c 2
 73 685 l 1
 185 685 l 1
 185 219 l 2
185 836 m 1
 421 939 l 1
 456 842 l 1
 213 760 l 1
 185 836 l 1
EndSplineSet
Position2: "'cpsp' Capital Spacing in Lateinisch lookup 0 subtable" dx=5 dy=0 dh=10 dv=0
EndChar

StartChar: Ubreve
Encoding: 364 364 112
Width: 650
Flags: MW
HStem: -11 97<278.5 370 278.5 406> 771 78<306.5 349 306.5 381.5>
VStem: 73 112<221 685> 465 112<219 221 221 685>
LayerCount: 2
Fore
SplineSet
185 219 m 2
 185 126 233 86 324 86 c 0
 416 86 465 127 465 219 c 2
 465 685 l 1
 577 685 l 1
 577 221 l 2
 577 56 488 -11 324 -11 c 0
 161 -11 73 56 73 221 c 2
 73 685 l 1
 185 685 l 1
 185 219 l 2
154 914 m 1
 253 914 l 1
 256 876 286 849 327 849 c 0
 371 849 400 876 403 914 c 1
 502 914 l 1
 494 831 436 771 327 771 c 0
 219 771 161 831 154 914 c 1
EndSplineSet
Position2: "'cpsp' Capital Spacing in Lateinisch lookup 0 subtable" dx=5 dy=0 dh=10 dv=0
EndChar

StartChar: Ucircumflex
Encoding: 219 219 113
Width: 650
Flags: MW
HStem: -11 97<278.5 370 278.5 406> 776 143<144 372 144 372 278 390 278 506>
VStem: 73 112<221 685> 465 112<219 221 221 685>
LayerCount: 2
Fore
SplineSet
185 219 m 2
 185 126 233 86 324 86 c 0
 416 86 465 127 465 219 c 2
 465 685 l 1
 577 685 l 1
 577 221 l 2
 577 56 488 -11 324 -11 c 0
 161 -11 73 56 73 221 c 2
 73 685 l 1
 185 685 l 1
 185 219 l 2
144 776 m 1
 278 919 l 1
 372 919 l 1
 506 776 l 1
 390 776 l 1
 326 843 l 1
 261 776 l 1
 144 776 l 1
EndSplineSet
Position2: "'cpsp' Capital Spacing in Lateinisch lookup 0 subtable" dx=5 dy=0 dh=10 dv=0
EndChar

StartChar: Udieresis
Encoding: 220 220 114
Width: 650
Flags: MW
HStem: -11 97<278.5 370 278.5 406> 783 114<169 273 169 273 378 482 169 378>
VStem: 73 112<221 685> 169 104<783 897 783 897> 378 104<783 897 783 897> 465 112<219 221 221 685>
LayerCount: 2
Fore
SplineSet
185 219 m 2xe4
 185 126 233 86 324 86 c 0
 416 86 465 127 465 219 c 2
 465 685 l 1
 577 685 l 1
 577 221 l 2
 577 56 488 -11 324 -11 c 0
 161 -11 73 56 73 221 c 2
 73 685 l 1
 185 685 l 1
 185 219 l 2xe4
169 783 m 1xd8
 169 897 l 1
 273 897 l 1
 273 783 l 1
 169 783 l 1xd8
378 783 m 1
 378 897 l 1
 482 897 l 1
 482 783 l 1
 378 783 l 1
EndSplineSet
Position2: "'cpsp' Capital Spacing in Lateinisch lookup 0 subtable" dx=5 dy=0 dh=10 dv=0
EndChar

StartChar: Ugrave
Encoding: 217 217 115
Width: 650
Flags: MW
HStem: -11 97<278.5 370 278.5 406>
VStem: 73 112<221 685> 465 112<219 221 221 685>
LayerCount: 2
Fore
SplineSet
185 219 m 2
 185 126 233 86 324 86 c 0
 416 86 465 127 465 219 c 2
 465 685 l 1
 577 685 l 1
 577 221 l 2
 577 56 488 -11 324 -11 c 0
 161 -11 73 56 73 221 c 2
 73 685 l 1
 185 685 l 1
 185 219 l 2
219 939 m 1
 455 836 l 1
 427 760 l 1
 184 842 l 1
 219 939 l 1
EndSplineSet
Position2: "'cpsp' Capital Spacing in Lateinisch lookup 0 subtable" dx=5 dy=0 dh=10 dv=0
EndChar

StartChar: Uhungarumlaut
Encoding: 368 368 116
Width: 650
Flags: MW
HStem: -11 97<278.5 370 278.5 406>
VStem: 73 112<221 685> 465 112<219 221 221 685>
LayerCount: 2
Fore
SplineSet
185 219 m 2
 185 126 233 86 324 86 c 0
 416 86 465 127 465 219 c 2
 465 685 l 1
 577 685 l 1
 577 221 l 2
 577 56 488 -11 324 -11 c 0
 161 -11 73 56 73 221 c 2
 73 685 l 1
 185 685 l 1
 185 219 l 2
357 779 m 1
 456 948 l 1
 546 909 l 1
 438 745 l 1
 357 779 l 1
153 780 m 1
 253 949 l 1
 342 910 l 1
 235 746 l 1
 153 780 l 1
EndSplineSet
Position2: "'cpsp' Capital Spacing in Lateinisch lookup 0 subtable" dx=5 dy=0 dh=10 dv=0
EndChar

StartChar: Umacron
Encoding: 362 362 117
Width: 650
Flags: MW
HStem: -11 97<278.5 370 278.5 406> 795 81<162 494 162 494>
VStem: 73 112<221 685> 465 112<219 221 221 685>
LayerCount: 2
Fore
SplineSet
185 219 m 2
 185 126 233 86 324 86 c 0
 416 86 465 127 465 219 c 2
 465 685 l 1
 577 685 l 1
 577 221 l 2
 577 56 488 -11 324 -11 c 0
 161 -11 73 56 73 221 c 2
 73 685 l 1
 185 685 l 1
 185 219 l 2
162 795 m 1
 162 876 l 1
 494 876 l 1
 494 795 l 1
 162 795 l 1
EndSplineSet
Position2: "'cpsp' Capital Spacing in Lateinisch lookup 0 subtable" dx=5 dy=0 dh=10 dv=0
EndChar

StartChar: Uogonek
Encoding: 370 370 118
Width: 651
Flags: MW
HStem: -212 84<327 398> -11 97
VStem: 73 112<221 685> 255 102<-101.5 -96.5> 465 112<219 221 221 685>
LayerCount: 2
Fore
SplineSet
185 219 m 2
 185 126 233 86 324 86 c 0
 416 86 465 127 465 219 c 2
 465 685 l 1
 577 685 l 1
 577 221 l 2
 577 91 521 22 418 -1 c 1
 407 -11 357 -59 357 -90 c 0
 357 -113 372 -128 393 -128 c 0
 403 -128 438 -123 438 -123 c 1
 448 -202 l 1
 448 -202 395 -212 356 -212 c 0
 298 -212 255 -177 255 -119 c 0
 255 -74 287 -34 311 -11 c 1
 156 -7 73 60 73 221 c 2
 73 685 l 1
 185 685 l 1
 185 219 l 2
EndSplineSet
Position2: "'cpsp' Capital Spacing in Lateinisch lookup 0 subtable" dx=5 dy=0 dh=10 dv=0
EndChar

StartChar: Uring
Encoding: 366 366 119
Width: 650
Flags: MW
HStem: -11 97<278.5 370 278.5 406> 725 71<308.5 345.5 308.5 364.5> 889 70<308.5 345.5>
VStem: 73 112<221 685> 191 76<827.5 856.5 827.5 879.5> 388 76<827.5 856.5> 465 112<219 221 221 685>
LayerCount: 2
Fore
SplineSet
185 219 m 2
 185 126 233 86 324 86 c 0
 416 86 465 127 465 219 c 2
 465 685 l 1
 577 685 l 1
 577 221 l 2
 577 56 488 -11 324 -11 c 0
 161 -11 73 56 73 221 c 2
 73 685 l 1
 185 685 l 1
 185 219 l 2
464 842 m 0xec
 464 767 402 725 327 725 c 0
 252 725 191 767 191 842 c 0
 191 917 252 959 327 959 c 0
 402 959 464 917 464 842 c 0xec
267 842 m 0
 267 813 290 796 327 796 c 0
 364 796 388 813 388 842 c 0
 388 871 364 889 327 889 c 0
 290 889 267 871 267 842 c 0
EndSplineSet
Position2: "'cpsp' Capital Spacing in Lateinisch lookup 0 subtable" dx=5 dy=0 dh=10 dv=0
EndChar

StartChar: Utilde
Encoding: 360 360 120
Width: 650
Flags: MW
HStem: -11 97<278.5 370 278.5 406> 777 96<388.5 415 388.5 430> 827 96<226 255.5>
VStem: 73 112<221 685> 465 112<219 221 221 685>
LayerCount: 2
Fore
SplineSet
185 219 m 2xb8
 185 126 233 86 324 86 c 0
 416 86 465 127 465 219 c 2
 465 685 l 1
 577 685 l 1
 577 221 l 2
 577 56 488 -11 324 -11 c 0
 161 -11 73 56 73 221 c 2
 73 685 l 1
 185 685 l 1
 185 219 l 2xb8
479 917 m 1xd8
 503 838 l 1
 503 838 454 777 406 777 c 0xd8
 356 777 272 827 239 827 c 0
 213 827 163 783 163 783 c 1
 139 861 l 1
 139 861 190 923 238 923 c 0xb8
 294 923 374 873 403 873 c 0
 427 873 479 917 479 917 c 1xd8
EndSplineSet
Position2: "'cpsp' Capital Spacing in Lateinisch lookup 0 subtable" dx=5 dy=0 dh=10 dv=0
EndChar

StartChar: V
Encoding: 86 86 121
Width: 594
Flags: MW
HStem: 0 98<272 322 272 406 188 322>
VStem: 20 554<685 685>
LayerCount: 2
Fore
SplineSet
458 685 m 1
 574 685 l 1
 406 0 l 1
 188 0 l 1
 20 685 l 1
 136 685 l 1
 272 98 l 1
 322 98 l 1
 458 685 l 1
EndSplineSet
Position2: "'cpsp' Capital Spacing in Lateinisch lookup 0 subtable" dx=5 dy=0 dh=10 dv=0
EndChar

StartChar: W
Encoding: 87 87 122
Width: 911
Flags: MW
HStem: 0 96<239 260 239 338 158 260 650 672>
VStem: 24 863<685 685>
LayerCount: 2
Fore
SplineSet
24 685 m 1
 141 685 l 1
 239 96 l 1
 260 96 l 1
 390 683 l 1
 520 683 l 1
 650 96 l 1
 672 96 l 1
 770 685 l 1
 887 685 l 1
 752 0 l 1
 573 0 l 1
 455 549 l 1
 338 0 l 1
 158 0 l 1
 24 685 l 1
EndSplineSet
Position2: "'cpsp' Capital Spacing in Lateinisch lookup 0 subtable" dx=5 dy=0 dh=10 dv=0
EndChar

StartChar: Wacute
Encoding: 7810 7810 123
Width: 911
Flags: MW
HStem: 0 96<239 260 239 338 158 260 650 672>
VStem: 24 863<685 685>
LayerCount: 2
Fore
SplineSet
24 685 m 1
 141 685 l 1
 239 96 l 1
 260 96 l 1
 390 683 l 1
 520 683 l 1
 650 96 l 1
 672 96 l 1
 770 685 l 1
 887 685 l 1
 752 0 l 1
 573 0 l 1
 455 549 l 1
 338 0 l 1
 158 0 l 1
 24 685 l 1
330 836 m 1
 566 939 l 1
 601 842 l 1
 358 760 l 1
 330 836 l 1
EndSplineSet
Position2: "'cpsp' Capital Spacing in Lateinisch lookup 0 subtable" dx=5 dy=0 dh=10 dv=0
EndChar

StartChar: Wcircumflex
Encoding: 372 372 124
Width: 911
Flags: MW
HStem: 0 96<239 260 239 338 158 260 650 672> 775 143<275 503 275 503 409 521 409 637>
VStem: 24 863<685 685>
LayerCount: 2
Fore
SplineSet
24 685 m 1
 141 685 l 1
 239 96 l 1
 260 96 l 1
 390 683 l 1
 520 683 l 1
 650 96 l 1
 672 96 l 1
 770 685 l 1
 887 685 l 1
 752 0 l 1
 573 0 l 1
 455 549 l 1
 338 0 l 1
 158 0 l 1
 24 685 l 1
275 775 m 1
 409 918 l 1
 503 918 l 1
 637 775 l 1
 521 775 l 1
 457 842 l 1
 392 775 l 1
 275 775 l 1
EndSplineSet
Position2: "'cpsp' Capital Spacing in Lateinisch lookup 0 subtable" dx=5 dy=0 dh=10 dv=0
EndChar

StartChar: Wdieresis
Encoding: 7812 7812 125
Width: 911
Flags: MW
HStem: 0 96<239 260 239 338 158 260 650 672> 783 114<298 402 298 402 507 611 298 507>
VStem: 298 104<783 897 783 897> 507 104<783 897 783 897>
LayerCount: 2
Fore
SplineSet
24 685 m 1
 141 685 l 1
 239 96 l 1
 260 96 l 1
 390 683 l 1
 520 683 l 1
 650 96 l 1
 672 96 l 1
 770 685 l 1
 887 685 l 1
 752 0 l 1
 573 0 l 1
 455 549 l 1
 338 0 l 1
 158 0 l 1
 24 685 l 1
298 783 m 1
 298 897 l 1
 402 897 l 1
 402 783 l 1
 298 783 l 1
507 783 m 1
 507 897 l 1
 611 897 l 1
 611 783 l 1
 507 783 l 1
EndSplineSet
Position2: "'cpsp' Capital Spacing in Lateinisch lookup 0 subtable" dx=5 dy=0 dh=10 dv=0
EndChar

StartChar: Wgrave
Encoding: 7808 7808 126
Width: 911
Flags: MW
HStem: 0 96<239 260 239 338 158 260 650 672>
VStem: 24 863<685 685>
LayerCount: 2
Fore
SplineSet
24 685 m 1
 141 685 l 1
 239 96 l 1
 260 96 l 1
 390 683 l 1
 520 683 l 1
 650 96 l 1
 672 96 l 1
 770 685 l 1
 887 685 l 1
 752 0 l 1
 573 0 l 1
 455 549 l 1
 338 0 l 1
 158 0 l 1
 24 685 l 1
358 939 m 1
 594 836 l 1
 566 760 l 1
 323 842 l 1
 358 939 l 1
EndSplineSet
Position2: "'cpsp' Capital Spacing in Lateinisch lookup 0 subtable" dx=5 dy=0 dh=10 dv=0
EndChar

StartChar: X
Encoding: 88 88 127
Width: 564
Flags: MW
HStem: 0 21G<13 130 13 13 427 551 427 427>
VStem: 13 538<0 0>
LayerCount: 2
Fore
SplineSet
138 685 m 1
 285 415 l 1
 434 685 l 1
 551 685 l 1
 348 337 l 1
 551 0 l 1
 427 0 l 1
 280 258 l 1
 130 0 l 1
 13 0 l 1
 217 331 l 1
 13 685 l 1
 138 685 l 1
EndSplineSet
Position2: "'cpsp' Capital Spacing in Lateinisch lookup 0 subtable" dx=5 dy=0 dh=10 dv=0
EndChar

StartChar: Y
Encoding: 89 89 128
Width: 549
Flags: MW
HStem: 0 21G<219 331 219 219>
VStem: 219 112<0 282 0 282>
LayerCount: 2
Fore
SplineSet
331 282 m 1
 331 0 l 1
 219 0 l 1
 219 282 l 1
 4 685 l 1
 129 685 l 1
 274 391 l 1
 420 685 l 1
 544 685 l 1
 331 282 l 1
EndSplineSet
Position2: "'cpsp' Capital Spacing in Lateinisch lookup 0 subtable" dx=5 dy=0 dh=10 dv=0
EndChar

StartChar: Yacute
Encoding: 221 221 129
Width: 549
Flags: MW
HStem: 0 21G<219 331 219 219>
VStem: 219 112<0 282 0 282>
LayerCount: 2
Fore
SplineSet
331 282 m 1
 331 0 l 1
 219 0 l 1
 219 282 l 1
 4 685 l 1
 129 685 l 1
 274 391 l 1
 420 685 l 1
 544 685 l 1
 331 282 l 1
148 836 m 1
 384 939 l 1
 419 842 l 1
 176 760 l 1
 148 836 l 1
EndSplineSet
Position2: "'cpsp' Capital Spacing in Lateinisch lookup 0 subtable" dx=5 dy=0 dh=10 dv=0
EndChar

StartChar: Ycircumflex
Encoding: 374 374 130
Width: 549
Flags: MW
HStem: 0 21G<219 331 219 219> 776 143<95 323 95 323 229 341 229 457>
VStem: 219 112<0 282 0 282>
LayerCount: 2
Fore
SplineSet
331 282 m 1
 331 0 l 1
 219 0 l 1
 219 282 l 1
 4 685 l 1
 129 685 l 1
 274 391 l 1
 420 685 l 1
 544 685 l 1
 331 282 l 1
95 776 m 1
 229 919 l 1
 323 919 l 1
 457 776 l 1
 341 776 l 1
 277 843 l 1
 212 776 l 1
 95 776 l 1
EndSplineSet
Position2: "'cpsp' Capital Spacing in Lateinisch lookup 0 subtable" dx=5 dy=0 dh=10 dv=0
EndChar

StartChar: Ydieresis
Encoding: 376 376 131
Width: 549
Flags: MW
HStem: 0 21G<219 331 219 219> 783 114<116 220 116 220 325 429 116 325>
VStem: 116 104<783 897 783 897> 219 112<0 282 0 282> 325 104<783 897 783 897>
LayerCount: 2
Fore
SplineSet
331 282 m 1xd0
 331 0 l 1
 219 0 l 1
 219 282 l 1
 4 685 l 1
 129 685 l 1
 274 391 l 1
 420 685 l 1
 544 685 l 1
 331 282 l 1xd0
116 783 m 1xe8
 116 897 l 1
 220 897 l 1
 220 783 l 1
 116 783 l 1xe8
325 783 m 1
 325 897 l 1
 429 897 l 1
 429 783 l 1
 325 783 l 1
EndSplineSet
Position2: "'cpsp' Capital Spacing in Lateinisch lookup 0 subtable" dx=5 dy=0 dh=10 dv=0
EndChar

StartChar: Ygrave
Encoding: 7922 7922 132
Width: 549
Flags: MW
HStem: 0 21G<219 331 219 219>
VStem: 219 112<0 282 0 282>
LayerCount: 2
Fore
SplineSet
331 282 m 1
 331 0 l 1
 219 0 l 1
 219 282 l 1
 4 685 l 1
 129 685 l 1
 274 391 l 1
 420 685 l 1
 544 685 l 1
 331 282 l 1
175 939 m 1
 411 836 l 1
 383 760 l 1
 140 842 l 1
 175 939 l 1
EndSplineSet
Position2: "'cpsp' Capital Spacing in Lateinisch lookup 0 subtable" dx=5 dy=0 dh=10 dv=0
EndChar

StartChar: Z
Encoding: 90 90 133
Width: 534
Flags: MW
HStem: 0 97<174 492 174 492> 588 97<42 492 42 359>
VStem: 42 132<97 106 106 106> 359 133<578 588 588 588>
LayerCount: 2
Fore
SplineSet
42 588 m 1
 42 685 l 1
 492 685 l 1
 492 578 l 1
 174 116 l 1
 174 97 l 1
 492 97 l 1
 492 0 l 1
 42 0 l 1
 42 106 l 1
 359 568 l 1
 359 588 l 1
 42 588 l 1
EndSplineSet
Position2: "'cpsp' Capital Spacing in Lateinisch lookup 0 subtable" dx=5 dy=0 dh=10 dv=0
EndChar

StartChar: Zacute
Encoding: 377 377 134
Width: 534
Flags: MW
HStem: 0 97<174 492 174 492> 588 97<42 492 42 359>
VStem: 42 132<97 106 106 106> 359 133<578 588 588 588>
LayerCount: 2
Fore
SplineSet
42 588 m 1
 42 685 l 1
 492 685 l 1
 492 578 l 1
 174 116 l 1
 174 97 l 1
 492 97 l 1
 492 0 l 1
 42 0 l 1
 42 106 l 1
 359 568 l 1
 359 588 l 1
 42 588 l 1
135 836 m 1
 371 939 l 1
 406 842 l 1
 163 760 l 1
 135 836 l 1
EndSplineSet
Position2: "'cpsp' Capital Spacing in Lateinisch lookup 0 subtable" dx=5 dy=0 dh=10 dv=0
EndChar

StartChar: Zcaron
Encoding: 381 381 135
Width: 534
Flags: MW
HStem: 0 97<174 492 174 492> 588 97<42 492 42 359> 776 143<91 225 91 319>
VStem: 42 132<97 106 106 106> 359 133<578 588 588 588>
LayerCount: 2
Fore
SplineSet
42 588 m 1
 42 685 l 1
 492 685 l 1
 492 578 l 1
 174 116 l 1
 174 97 l 1
 492 97 l 1
 492 0 l 1
 42 0 l 1
 42 106 l 1
 359 568 l 1
 359 588 l 1
 42 588 l 1
225 776 m 1
 91 919 l 1
 208 919 l 1
 273 853 l 1
 336 919 l 1
 453 919 l 1
 319 776 l 1
 225 776 l 1
EndSplineSet
Position2: "'cpsp' Capital Spacing in Lateinisch lookup 0 subtable" dx=5 dy=0 dh=10 dv=0
EndChar

StartChar: Zdotaccent
Encoding: 379 379 136
Width: 534
Flags: MW
HStem: 0 97<174 492 174 492> 588 97<42 492 42 359> 782 114<213 321 213 321>
VStem: 42 132<97 106 106 106> 213 108<782 896 782 896> 359 133<578 588 588 588>
LayerCount: 2
Fore
SplineSet
42 588 m 1
 42 685 l 1
 492 685 l 1
 492 578 l 1
 174 116 l 1
 174 97 l 1
 492 97 l 1
 492 0 l 1
 42 0 l 1
 42 106 l 1
 359 568 l 1
 359 588 l 1
 42 588 l 1
213 782 m 1
 213 896 l 1
 321 896 l 1
 321 782 l 1
 213 782 l 1
EndSplineSet
Position2: "'cpsp' Capital Spacing in Lateinisch lookup 0 subtable" dx=5 dy=0 dh=10 dv=0
EndChar

StartChar: g
Encoding: 103 103 139
Width: 525
Flags: MW
HStem: -232 89<227.5 313.5 227.5 339> -7 88 163 84<241 282.5 217 312.5> 415.5 85.5 425 85<217 272 191.5 282.5>
VStem: 42 107<-101 -62.5 -101 -62.5> 49 108<305.5 366 305.5 399> 85 103<104 117.5> 342 108<305.5 355.5 268 366> 394 109<-98.5 -47>
LayerCount: 2
Fore
SplineSet
272 -232 m 0xf440
 121 -232 42 -202 42 -88 c 0xf440
 42 -37 67 -6 118 33 c 1
 97 47 85 75 85 106 c 0xf140
 85 129 121 186 121 186 c 1
 84 208 49 246 49 336 c 0
 49 462 134 510 249 510 c 0xea80
 295 510 351 497 351 497 c 1
 506 501 l 1
 506 413 l 1
 423 418 l 1
 436 401 450 375 450 336 c 0
 450 200 379 163 246 163 c 0
 236 163 211 165 202 167 c 1
 202 167 188 133 188 120 c 0xf180
 188 88 199 82 296 81 c 0
 454 80 503 47 503 -68 c 0
 503 -186 406 -232 272 -232 c 0xf440
287 -13 m 0
 256 -13 189 -7 189 -7 c 1
 161 -30 149 -47 149 -78 c 0
 149 -124 182 -143 273 -143 c 0
 354 -143 394 -123 394 -74 c 0
 394 -20 368 -14 287 -13 c 0
249 247 m 0xea80
 316 247 342 275 342 336 c 0
 342 396 316 425 249 425 c 0
 185 425 157 396 157 336 c 0
 157 275 185 247 249 247 c 0xea80
EndSplineSet
EndChar

StartChar: h
Encoding: 104 104 140
Width: 546
Flags: MW
HStem: 0 21G<66 175 66 66 376 376 376 485> 414 97<280.5 325.5> 688 20G<66 175 175 175>
VStem: 66 109<0 392 474 708> 376 109<0 265 265 268 0 315>
LayerCount: 2
Fore
SplineSet
175 0 m 1
 66 0 l 1
 66 708 l 1
 175 708 l 1
 175 474 l 1
 175 474 249 511 312 511 c 0
 451 511 485 432 485 268 c 2
 485 0 l 1
 376 0 l 1
 376 265 l 2
 376 365 364 414 287 414 c 0
 232 414 175 392 175 392 c 1
 175 0 l 1
EndSplineSet
EndChar

StartChar: s
Encoding: 115 115 141
Width: 469
Flags: MW
HStem: -11 21G<197.5 294> -11 97<197.5 258 196.5 294> 413 97<205 263.5 177.5 265> 490 20G<177.5 263.5>
VStem: 40 108<341.5 378.5 341.5 411.5> 322 108<123 162.5>
LayerCount: 2
Fore
SplineSet
415 488 m 1x5c
 413 397 l 1
 413 397 295 413 235 413 c 0
 175 413 148 399 148 358 c 0
 148 325 169 316 267 299 c 0
 387 278 430 248 430 148 c 0
 430 31 356 -11 232 -11 c 0x6c
 163 -11 47 11 47 11 c 1xac
 51 102 l 1
 51 102 171 86 222 86 c 0
 294 86 322 101 322 145 c 0
 322 180 305 191 206 207 c 0
 96 225 40 249 40 355 c 0
 40 468 128 510 227 510 c 0x6c
 300 510 415 488 415 488 c 1x5c
EndSplineSet
EndChar

StartChar: endash
Encoding: 8211 8211 143
Width: 622
Flags: MW
HStem: 220 93<61 561 61 561>
VStem: 61 500<220 313 220 313>
LayerCount: 2
Fore
SplineSet
61 313 m 1
 561 313 l 1
 561 220 l 1
 61 220 l 1
 61 313 l 1
EndSplineSet
Substitution2: "'case' Case-Sensitive Forms in Lateinisch lookup 4 subtable" endash.cap
EndChar

StartChar: dollar
Encoding: 36 36 144
Width: 560
Flags: MW
HStem: -11 95<274 286 274 286> -7 21G<210 210> 577 94<285 285> 666 21G<360 360>
VStem: 59 107<465.5 519 465.5 550> 395 108<156.5 213>
LayerCount: 2
Fore
SplineSet
488 648 m 1x9c
 479 562 l 1
 479 562 408 570 349 574 c 1
 324 381 l 1
 454 344 503 306 503 196 c 0
 503 52 412 -11 282 -11 c 2
 274 -11 l 1xac
 260 -127 l 1
 260 -127 196 -124 196 -120 c 2
 210 -7 l 1
 138 0 66 15 66 15 c 1
 77 101 l 1
 77 101 156 90 222 86 c 1
 249 293 l 1
 116 329 59 373 59 484 c 0
 59 616 147 671 279 671 c 2
 297 671 l 1x6c
 314 805 l 1
 378 805 l 1
 360 666 l 1
 426 659 488 648 488 648 c 1x9c
166 491 m 0
 166 440 190 421 262 398 c 1
 285 577 l 1
 206 576 166 547 166 491 c 0
395 190 m 0
 395 236 374 257 311 276 c 1
 286 84 l 1
 360 87 395 123 395 190 c 0
EndSplineSet
EndChar

StartChar: exclam
Encoding: 33 33 145
Width: 266
Flags: MW
HStem: 0 140<74 191 74 191>
VStem: 74 117<0 140 0 140> 80 106
LayerCount: 2
Fore
SplineSet
74 0 m 1xc0
 74 140 l 1
 191 140 l 1
 191 0 l 1
 74 0 l 1xc0
85 241 m 1xa0
 75 685 l 1
 191 685 l 1
 181 241 l 1
 85 241 l 1xa0
EndSplineSet
EndChar

StartChar: summation
Encoding: 8721 8721 146
Width: 560
Flags: MW
HStem: -172 97<154 523 154 523> 659 98<154 523 154 154>
VStem: 36 118<-75 -55 -75 -50 -75 -50 641 659>
LayerCount: 2
Fore
SplineSet
286 302 m 1
 36 635 l 1
 36 757 l 1
 523 757 l 1
 523 659 l 1
 154 659 l 1
 154 641 l 1
 387 340 l 1
 387 263 l 1
 154 -55 l 1
 154 -75 l 1
 523 -75 l 1
 523 -172 l 1
 36 -172 l 1
 36 -50 l 1
 286 302 l 1
EndSplineSet
EndChar

StartChar: a
Encoding: 97 97 147
Width: 507
Flags: MW
HStem: -11 89<183 223.5> 227.5 77 418 93<221.5 279.5>
VStem: 34 109<128.5 173.5 128.5 201> 328 108<118 233 233 233 310 346 118 373.5>
LayerCount: 2
Fore
SplineSet
436 346 m 2
 436 118 l 2
 438 88 451 76 480 72 c 1
 477 -11 l 1
 416 -11 381 -3 344 26 c 1
 344 26 264 -11 183 -11 c 0
 84 -11 34 44 34 148 c 0
 34 254 92 290 199 299 c 2
 328 310 l 1
 328 346 l 2
 328 401 304 418 255 418 c 0
 188 418 67 408 67 408 c 1
 63 485 l 1
 63 485 172 511 264 511 c 0
 386 511 436 460 436 346 c 2
328 233 m 1
 212 222 l 2
 166 218 143 196 143 151 c 0
 143 106 162 78 204 78 c 0
 261 78 328 100 328 100 c 1
 328 233 l 1
EndSplineSet
EndChar

StartChar: o
Encoding: 111 111 148
Width: 530
Flags: MW
HStem: -11 92<218.5 311.5 218.5 351> 419 92<221 309>
VStem: 42 110<195 311 195 334> 378 110<195 311>
LayerCount: 2
Fore
SplineSet
265 511 m 0
 432 511 488 415 488 253 c 0
 488 87 437 -11 265 -11 c 0
 94 -11 42 87 42 253 c 0
 42 415 98 511 265 511 c 0
265 81 m 0
 358 81 378 137 378 253 c 0
 378 369 353 419 265 419 c 0
 177 419 152 369 152 253 c 0
 152 137 172 81 265 81 c 0
EndSplineSet
EndChar

StartChar: n
Encoding: 110 110 149
Width: 546
Flags: MW
HStem: 0 21G<66 175 66 66 377 377 377 485> 414 97<279.5 326> 469 31<66 174>
VStem: 66 109<0 388> 377 108<0 265 265 268 0 315>
LayerCount: 2
Fore
SplineSet
175 0 m 1xd8
 66 0 l 1
 66 500 l 1
 174 500 l 1
 174 469 l 1xb8
 174 469 247 511 312 511 c 0
 451 511 485 432 485 268 c 2
 485 0 l 1
 377 0 l 1
 377 265 l 2
 377 365 364 414 288 414 c 0
 230 414 175 388 175 388 c 1
 175 0 l 1xd8
EndSplineSet
EndChar

StartChar: numbersign
Encoding: 35 35 150
Width: 560
Flags: MW
HStem: 0 21G<122 217 122 122 343 438 343 343> 160 91<20 122 20 122 217 343 438 540> 403 91<20 122 20 122 217 343 438 540>
VStem: 122 95<0 160 0 160 251 403 494 663> 343 95<0 160 0 160 251 403 494 663>
LayerCount: 2
Fore
SplineSet
540 160 m 1
 438 160 l 1
 438 0 l 1
 343 0 l 1
 343 160 l 1
 217 160 l 1
 217 0 l 1
 122 0 l 1
 122 160 l 1
 20 160 l 1
 20 251 l 1
 122 251 l 1
 122 403 l 1
 20 403 l 1
 20 494 l 1
 122 494 l 1
 122 663 l 1
 217 663 l 1
 217 494 l 1
 343 494 l 1
 343 663 l 1
 438 663 l 1
 438 494 l 1
 540 494 l 1
 540 403 l 1
 438 403 l 1
 438 251 l 1
 540 251 l 1
 540 160 l 1
343 251 m 1
 343 403 l 1
 217 403 l 1
 217 251 l 1
 343 251 l 1
EndSplineSet
EndChar

StartChar: at
Encoding: 64 64 151
Width: 975
Flags: MW
HStem: -206 95<377.5 527 377.5 531> -3 91<725.5 778 725.5 812.5> -2 95<453.5 497 453.5 504> 407 95<459 503 407.5 519> 477 14<584 692> 631 95<387 618>
VStem: 44 108<128.5 383.5 128.5 422.5> 286 110<189.5 302 189.5 331.5> 584 108<262 307 307 392 392 392 477 491> 830 109<295 305 180 306 180 419.5>
LayerCount: 2
Fore
SplineSet
939 305 m 2xcfc0
 939 295 l 2
 939 65 871 -3 754 -3 c 0xcfc0
 652 -3 628 55 628 55 c 1
 628 55 540 -2 468 -2 c 0
 362 -2 286 50 286 249 c 0xb7c0
 286 414 333 502 482 502 c 0
 524 502 584 477 584 477 c 1
 584 491 l 1
 692 491 l 1
 692 307 l 2
 692 106 697 88 754 88 c 0
 802 88 830 117 830 295 c 2
 830 306 l 2
 830 533 733 631 503 631 c 0
 271 631 152 506 152 261 c 0
 152 -4 252 -111 503 -111 c 0
 551 -111 646 -102 646 -102 c 1
 651 -197 l 1
 651 -197 559 -206 503 -206 c 0
 207 -206 44 -100 44 261 c 0
 44 584 222 726 503 726 c 0
 801 726 939 582 939 305 c 2xcfc0
477 93 m 0xb7c0
 517 93 574 119 591 127 c 1
 587 150 584 207 584 262 c 2
 584 392 l 1
 584 392 534 407 504 407 c 0
 414 407 396 356 396 248 c 0
 396 131 430 93 477 93 c 0xb7c0
EndSplineSet
EndChar

StartChar: ydieresis
Encoding: 255 255 152
Width: 492
Flags: MW
HStem: -215 21G<177 284 177 177> 0 93<233 237 151 260> 480 20G<20 127 127 127 366 474 474 474> 607 114<90 194 90 194 299 403 90 299>
VStem: 90 104<607 721 607 721> 299 104<607 721 607 721>
LayerCount: 2
Fore
SplineSet
20 500 m 1
 127 500 l 1
 233 93 l 1
 260 93 l 1
 366 500 l 1
 474 500 l 1
 284 -215 l 1
 177 -215 l 1
 237 0 l 1
 151 0 l 1
 20 500 l 1
90 607 m 1
 90 721 l 1
 194 721 l 1
 194 607 l 1
 90 607 l 1
299 607 m 1
 299 721 l 1
 403 721 l 1
 403 607 l 1
 299 607 l 1
EndSplineSet
EndChar

StartChar: scaron
Encoding: 353 353 153
Width: 469
Flags: MW
HStem: -11 21G<197.5 294> -11 97<197.5 258 196.5 294> 413 97<205 263.5 177.5 265> 490 20G<177.5 263.5> 585 146<84 209 84 278>
VStem: 40 108<341.5 378.5 341.5 411.5> 322 108<123 162.5>
LayerCount: 2
Fore
SplineSet
415 488 m 1x5e
 413 397 l 1
 413 397 295 413 235 413 c 0
 175 413 148 399 148 358 c 0
 148 325 169 316 267 299 c 0
 387 278 430 248 430 148 c 0
 430 31 356 -11 232 -11 c 0x6e
 163 -11 47 11 47 11 c 1xae
 51 102 l 1
 51 102 171 86 222 86 c 0
 294 86 322 101 322 145 c 0
 322 180 305 191 206 207 c 0
 96 225 40 249 40 355 c 0
 40 468 128 510 227 510 c 0x6e
 300 510 415 488 415 488 c 1x5e
209 585 m 1
 84 731 l 1
 186 731 l 1
 245 656 l 1
 303 731 l 1
 405 731 l 1
 278 585 l 1
 209 585 l 1
EndSplineSet
EndChar

StartChar: yacute
Encoding: 253 253 154
Width: 492
Flags: MW
HStem: -215 21G<177 284 177 177> 0 93<233 237 151 260> 480 20G<20 127 127 127 366 474 474 474>
VStem: 20 454<500 500>
LayerCount: 2
Fore
SplineSet
20 500 m 1
 127 500 l 1
 233 93 l 1
 260 93 l 1
 366 500 l 1
 474 500 l 1
 284 -215 l 1
 177 -215 l 1
 237 0 l 1
 151 0 l 1
 20 500 l 1
136 647 m 1
 372 748 l 1
 406 654 l 1
 162 576 l 1
 136 647 l 1
EndSplineSet
EndChar

StartChar: zcaron
Encoding: 382 382 155
Width: 454
Flags: MW
HStem: 0 97<172 412 41 41> 403 97<41 412 41 282 41 412> 585 146<74 199 74 268>
VStem: 41 371<0 97 0 97 403 500>
LayerCount: 2
Fore
SplineSet
41 403 m 1
 41 500 l 1
 412 500 l 1
 412 403 l 1
 172 97 l 1
 412 97 l 1
 412 0 l 1
 41 0 l 1
 41 97 l 1
 282 403 l 1
 41 403 l 1
199 585 m 1
 74 731 l 1
 176 731 l 1
 235 656 l 1
 293 731 l 1
 395 731 l 1
 268 585 l 1
 199 585 l 1
EndSplineSet
EndChar

StartChar: degree
Encoding: 176 176 156
Width: 560
Flags: MW
HStem: 405 62<255.5 304.5 255.5 323.5> 634 62<255.5 304.5>
VStem: 134 64<525.5 574.5 525.5 593.5> 364 62<525.5 574.5>
LayerCount: 2
Fore
SplineSet
134 550 m 0
 134 637 193 696 280 696 c 0
 367 696 426 637 426 550 c 0
 426 463 367 405 280 405 c 0
 193 405 134 463 134 550 c 0
198 550 m 0
 198 501 231 467 280 467 c 0
 329 467 364 501 364 550 c 0
 364 599 329 634 280 634 c 0
 231 634 198 599 198 550 c 0
EndSplineSet
EndChar

StartChar: section
Encoding: 167 167 157
Width: 509
Flags: MW
HStem: -173 94<212 275 210.5 316> 550 94<233 298>
VStem: 43 109<225.5 257.5> 61 105<449.5 500.5 449.5 530> 347 104<-30 21.5> 351 110<219.5 253>
LayerCount: 2
Fore
SplineSet
438 623 m 1xd8
 433 534 l 1
 433 534 322 550 274 550 c 0
 192 550 166 528 166 473 c 0
 166 426 207 414 305 393 c 0
 417 368 461 343 461 245 c 0xd4
 461 194 435 138 414 109 c 1
 438 88 451 64 451 4 c 0
 451 -119 386 -173 246 -173 c 0
 178 -173 64 -152 64 -152 c 1
 75 -64 l 1
 75 -64 183 -79 238 -79 c 0
 312 -79 347 -56 347 -4 c 0
 347 47 311 54 205 78 c 0
 93 103 43 133 43 231 c 0xe8
 43 284 82 343 105 362 c 1
 76 383 61 412 61 471 c 0
 61 589 135 644 267 644 c 0
 336 644 438 623 438 623 c 1xd8
255 305 m 0
 227 312 198 317 177 325 c 1
 171 316 152 279 152 250 c 0
 152 201 174 189 235 175 c 0xe8
 274 166 306 157 330 148 c 1
 337 157 351 197 351 230 c 0
 351 276 326 289 255 305 c 0
EndSplineSet
EndChar

StartChar: copyright
Encoding: 169 169 158
Width: 644
Flags: MW
HStem: 155 53<259 384 259 403> 272 79<318 351.5 318 353> 517 78<317 352> 661 52<260 383.5>
VStem: 52 54<372 496 372 514> 205 85<407.5 465.5 407.5 494> 538 54<371.5 496>
LayerCount: 2
Fore
SplineSet
52 434 m 0
 52 594 166 713 322 713 c 0
 485 713 592 586 592 434 c 0
 592 277 485 155 321 155 c 0
 166 155 52 277 52 434 c 0
106 434 m 0
 106 310 197 208 321 208 c 0
 447 208 538 309 538 434 c 0
 538 558 445 661 322 661 c 0
 198 661 106 558 106 434 c 0
404 357 m 1
 410 288 l 1
 410 288 378 272 328 272 c 0
 240 272 205 313 205 437 c 0
 205 551 240 595 331 595 c 0
 377 595 410 582 410 582 c 1
 404 510 l 1
 404 510 368 517 336 517 c 0
 298 517 290 494 290 437 c 0
 290 378 300 351 336 351 c 0
 367 351 404 357 404 357 c 1
EndSplineSet
EndChar

StartChar: trademark
Encoding: 8482 8482 159
Width: 668
Flags: MW
HStem: 331 307<85 313 313 382 529 529 529 598> 571 67<85 285 85 159 233 233 233 285>
VStem: 159 74<332 571 332 571> 313 69<331 527 331 638> 529 69<331 527 527 527>
LayerCount: 2
Fore
SplineSet
85 571 m 1x78
 85 638 l 1
 285 638 l 1
 285 571 l 1
 233 571 l 1
 233 332 l 1
 159 332 l 1
 159 571 l 1
 85 571 l 1x78
313 331 m 1
 313 638 l 1
 402 638 l 1x78
 454 458 l 1
 510 638 l 1
 598 638 l 1
 598 331 l 1
 529 331 l 1xb8
 529 527 l 1
 481 349 l 1
 431 349 l 1
 382 527 l 1
 382 331 l 1
 313 331 l 1
EndSplineSet
EndChar

StartChar: registered
Encoding: 174 174 160
Width: 644
Flags: MW
HStem: 155 53<261 384.5 261 403.5> 378 60<286 326 326 328 286 286> 527 61<285 285 285 321> 661 52<260 383.5>
VStem: 52 54<372 496 372 514> 206 80<279 378 279 588> 368 77<468 497> 538 54<371.5 496>
LayerCount: 2
Fore
SplineSet
52 434 m 0
 52 594 166 713 322 713 c 0
 485 713 592 586 592 434 c 0
 592 277 485 155 322 155 c 0
 166 155 52 277 52 434 c 0
106 434 m 0
 106 310 200 208 322 208 c 0
 447 208 538 309 538 434 c 0
 538 558 445 661 322 661 c 0
 198 661 106 558 106 434 c 0
365 279 m 1
 328 378 l 1
 286 378 l 1
 286 279 l 1
 206 279 l 1
 206 588 l 1
 331 588 l 2
 399 588 445 561 445 488 c 0
 445 437 434 412 401 391 c 1
 449 279 l 1
 365 279 l 1
285 527 m 1
 285 438 l 1
 326 438 l 2
 354 438 368 454 368 482 c 0
 368 512 353 527 321 527 c 2
 285 527 l 1
EndSplineSet
EndChar

StartChar: aacute
Encoding: 225 225 161
Width: 507
Flags: MW
HStem: -11 89<183 223.5> 227.5 77 418 93<221.5 279.5>
VStem: 34 109<128.5 173.5 128.5 201> 328 108<118 233 233 233 310 346 118 373.5>
LayerCount: 2
Fore
SplineSet
436 346 m 2
 436 118 l 2
 438 88 451 76 480 72 c 1
 477 -11 l 1
 416 -11 381 -3 344 26 c 1
 344 26 264 -11 183 -11 c 0
 84 -11 34 44 34 148 c 0
 34 254 92 290 199 299 c 2
 328 310 l 1
 328 346 l 2
 328 401 304 418 255 418 c 0
 188 418 67 408 67 408 c 1
 63 485 l 1
 63 485 172 511 264 511 c 0
 386 511 436 460 436 346 c 2
328 233 m 1
 212 222 l 2
 166 218 143 196 143 151 c 0
 143 106 162 78 204 78 c 0
 261 78 328 100 328 100 c 1
 328 233 l 1
105 647 m 1
 341 748 l 1
 375 654 l 1
 131 576 l 1
 105 647 l 1
EndSplineSet
EndChar

StartChar: agrave
Encoding: 224 224 162
Width: 507
Flags: MW
HStem: -11 89<183 223.5> 227.5 77 418 93<221.5 279.5>
VStem: 34 109<128.5 173.5 128.5 201> 328 108<118 233 233 233 310 346 118 373.5>
LayerCount: 2
Fore
SplineSet
436 346 m 2
 436 118 l 2
 438 88 451 76 480 72 c 1
 477 -11 l 1
 416 -11 381 -3 344 26 c 1
 344 26 264 -11 183 -11 c 0
 84 -11 34 44 34 148 c 0
 34 254 92 290 199 299 c 2
 328 310 l 1
 328 346 l 2
 328 401 304 418 255 418 c 0
 188 418 67 408 67 408 c 1
 63 485 l 1
 63 485 172 511 264 511 c 0
 386 511 436 460 436 346 c 2
328 233 m 1
 212 222 l 2
 166 218 143 196 143 151 c 0
 143 106 162 78 204 78 c 0
 261 78 328 100 328 100 c 1
 328 233 l 1
145 748 m 1
 381 647 l 1
 355 576 l 1
 111 654 l 1
 145 748 l 1
EndSplineSet
EndChar

StartChar: acircumflex
Encoding: 226 226 163
Width: 507
Flags: MW
HStem: -11 89<183 223.5> 227.5 77 418 93<221.5 279.5> 585 146<88 282 88 282 213 307 213 409> 661 21G<249 249> 661 70<249 249>
VStem: 34 109<128.5 173.5 128.5 201> 328 108<118 233 233 233 310 346 118 373.5>
LayerCount: 2
Fore
SplineSet
436 346 m 2xeb
 436 118 l 2
 438 88 451 76 480 72 c 1
 477 -11 l 1
 416 -11 381 -3 344 26 c 1
 344 26 264 -11 183 -11 c 0
 84 -11 34 44 34 148 c 0
 34 254 92 290 199 299 c 2
 328 310 l 1
 328 346 l 2
 328 401 304 418 255 418 c 0
 188 418 67 408 67 408 c 1
 63 485 l 1
 63 485 172 511 264 511 c 0
 386 511 436 460 436 346 c 2xeb
328 233 m 1
 212 222 l 2
 166 218 143 196 143 151 c 0
 143 106 162 78 204 78 c 0
 261 78 328 100 328 100 c 1
 328 233 l 1
88 585 m 1xf3
 213 731 l 1
 282 731 l 1xe7
 409 585 l 1
 307 585 l 1xf3
 249 661 l 1xeb
 191 585 l 1
 88 585 l 1xf3
EndSplineSet
EndChar

StartChar: adieresis
Encoding: 228 228 164
Width: 507
Flags: MW
HStem: -11 89<183 223.5> 227.5 77 418 93<221.5 279.5> 607 114<83 187 83 187 292 396 83 292>
VStem: 34 109<128.5 173.5 128.5 201> 83 104<607 721 607 721> 292 104<607 721 607 721> 328 108<118 233 233 233 310 346 118 373.5>
LayerCount: 2
Fore
SplineSet
436 346 m 2xf5
 436 118 l 2
 438 88 451 76 480 72 c 1
 477 -11 l 1
 416 -11 381 -3 344 26 c 1
 344 26 264 -11 183 -11 c 0
 84 -11 34 44 34 148 c 0xf9
 34 254 92 290 199 299 c 2
 328 310 l 1
 328 346 l 2
 328 401 304 418 255 418 c 0
 188 418 67 408 67 408 c 1
 63 485 l 1
 63 485 172 511 264 511 c 0
 386 511 436 460 436 346 c 2xf5
328 233 m 1
 212 222 l 2
 166 218 143 196 143 151 c 0
 143 106 162 78 204 78 c 0
 261 78 328 100 328 100 c 1
 328 233 l 1
83 607 m 1xf6
 83 721 l 1
 187 721 l 1
 187 607 l 1
 83 607 l 1xf6
292 607 m 1
 292 721 l 1
 396 721 l 1
 396 607 l 1
 292 607 l 1
EndSplineSet
EndChar

StartChar: atilde
Encoding: 227 227 165
Width: 507
Flags: MW
HStem: -11 89<183 223.5> 227.5 77 418 93<221.5 279.5> 597 85<279.5 306 279.5 320> 637 85<150 179.5> 666 21G<64 64> 698 20G<369 369>
VStem: 34 109<128.5 173.5 128.5 201> 328 108<118 233 233 233 310 346 118 373.5>
LayerCount: 2
Fore
SplineSet
436 346 m 2xe780
 436 118 l 2
 438 88 451 76 480 72 c 1
 477 -11 l 1
 416 -11 381 -3 344 26 c 1
 344 26 264 -11 183 -11 c 0
 84 -11 34 44 34 148 c 0
 34 254 92 290 199 299 c 2
 328 310 l 1
 328 346 l 2
 328 401 304 418 255 418 c 0
 188 418 67 408 67 408 c 1
 63 485 l 1
 63 485 172 511 264 511 c 0
 386 511 436 460 436 346 c 2xe780
328 233 m 1
 212 222 l 2
 166 218 143 196 143 151 c 0
 143 106 162 78 204 78 c 0
 261 78 328 100 328 100 c 1
 328 233 l 1
369 718 m 1
 393 654 l 1
 393 654 343 597 297 597 c 0xf380
 255 597 196 637 163 637 c 0
 137 637 88 603 88 603 c 1xe980
 64 666 l 1xe780
 64 666 115 722 162 722 c 0xe980
 203 722 265 682 294 682 c 0xf380
 318 682 369 718 369 718 c 1
EndSplineSet
EndChar

StartChar: aring
Encoding: 229 229 166
Width: 507
Flags: MW
HStem: -11 89<183 223.5> 227.5 77 418 93<221.5 279.5> 530 60<246.5 275 246.5 291> 691 61<246.5 275>
VStem: 34 109<128.5 173.5 128.5 201> 149 62<626.5 655 626.5 672> 310 62<626.5 655> 328 108<118 233 233 233 310 346 118 373.5>
LayerCount: 2
Fore
SplineSet
436 346 m 2xea80
 436 118 l 2
 438 88 451 76 480 72 c 1
 477 -11 l 1
 416 -11 381 -3 344 26 c 1
 344 26 264 -11 183 -11 c 0
 84 -11 34 44 34 148 c 0xec80
 34 254 92 290 199 299 c 2
 328 310 l 1
 328 346 l 2
 328 401 304 418 255 418 c 0
 188 418 67 408 67 408 c 1
 63 485 l 1
 63 485 172 511 264 511 c 0
 386 511 436 460 436 346 c 2xea80
328 233 m 1
 212 222 l 2
 166 218 143 196 143 151 c 0
 143 106 162 78 204 78 c 0
 261 78 328 100 328 100 c 1
 328 233 l 1
149 641 m 0xfb
 149 703 197 752 260 752 c 0
 322 752 372 703 372 641 c 0
 372 577 322 530 260 530 c 0
 197 530 149 577 149 641 c 0xfb
211 641 m 0
 211 612 232 590 261 590 c 0
 289 590 310 612 310 641 c 0
 310 669 289 691 261 691 c 0
 232 691 211 669 211 641 c 0
EndSplineSet
EndChar

StartChar: eacute
Encoding: 233 233 167
Width: 508
Flags: MW
HStem: -11 95<224.5 294> 204 84<152 362 151 462 152 152> 421 90<222 295.5>
VStem: 42 109<288 288 288 336.5> 362 107<288 338>
LayerCount: 2
Fore
SplineSet
266 84 m 0
 345 84 450 93 450 93 c 1
 452 12 l 1
 452 12 338 -11 250 -11 c 0
 100 -11 42 69 42 245 c 0
 42 428 121 511 259 511 c 0
 399 511 469 438 469 282 c 1
 462 204 l 1
 152 204 l 1
 153 124 183 84 266 84 c 0
151 288 m 1
 362 288 l 1
 362 388 332 421 259 421 c 0
 185 421 152 384 151 288 c 1
122 647 m 1
 358 748 l 1
 392 654 l 1
 148 576 l 1
 122 647 l 1
EndSplineSet
EndChar

StartChar: egrave
Encoding: 232 232 168
Width: 508
Flags: MW
HStem: -11 95<224.5 294> 204 84<152 362 151 462 152 152> 421 90<222 295.5>
VStem: 42 109<288 288 288 336.5> 362 107<288 338>
LayerCount: 2
Fore
SplineSet
266 84 m 0
 345 84 450 93 450 93 c 1
 452 12 l 1
 452 12 338 -11 250 -11 c 0
 100 -11 42 69 42 245 c 0
 42 428 121 511 259 511 c 0
 399 511 469 438 469 282 c 1
 462 204 l 1
 152 204 l 1
 153 124 183 84 266 84 c 0
151 288 m 1
 362 288 l 1
 362 388 332 421 259 421 c 0
 185 421 152 384 151 288 c 1
149 748 m 1
 385 647 l 1
 359 576 l 1
 115 654 l 1
 149 748 l 1
EndSplineSet
EndChar

StartChar: ecircumflex
Encoding: 234 234 169
Width: 508
Flags: MW
HStem: -11 95<224.5 294> 204 84<152 362 151 462 152 152> 421 90<222 295.5> 585 146<99 293 99 293 224 318 224 420> 661 21G<260 260> 661 70<260 260>
VStem: 42 109<288 288 288 336.5> 362 107<288 338>
LayerCount: 2
Fore
SplineSet
266 84 m 0xeb
 345 84 450 93 450 93 c 1
 452 12 l 1
 452 12 338 -11 250 -11 c 0
 100 -11 42 69 42 245 c 0
 42 428 121 511 259 511 c 0
 399 511 469 438 469 282 c 1
 462 204 l 1
 152 204 l 1
 153 124 183 84 266 84 c 0xeb
151 288 m 1
 362 288 l 1
 362 388 332 421 259 421 c 0
 185 421 152 384 151 288 c 1
99 585 m 1xf3
 224 731 l 1
 293 731 l 1xe7
 420 585 l 1
 318 585 l 1xf3
 260 661 l 1xeb
 202 585 l 1
 99 585 l 1xf3
EndSplineSet
EndChar

StartChar: edieresis
Encoding: 235 235 170
Width: 508
Flags: MW
HStem: -11 95<224.5 294> 204 84<152 362 151 462 152 152> 421 90<222 295.5> 607 114<100 204 100 204 309 413 100 309>
VStem: 42 109<288 288 288 336.5> 100 104<607 721 607 721> 309 104<607 721 607 721> 362 107<288 338>
LayerCount: 2
Fore
SplineSet
266 84 m 0xf6
 345 84 450 93 450 93 c 1
 452 12 l 1
 452 12 338 -11 250 -11 c 0
 100 -11 42 69 42 245 c 0
 42 428 121 511 259 511 c 0
 399 511 469 438 469 282 c 1
 462 204 l 1
 152 204 l 1xf9
 153 124 183 84 266 84 c 0xf6
151 288 m 1xf9
 362 288 l 1
 362 388 332 421 259 421 c 0
 185 421 152 384 151 288 c 1xf9
100 607 m 1xf6
 100 721 l 1
 204 721 l 1
 204 607 l 1
 100 607 l 1xf6
309 607 m 1
 309 721 l 1
 413 721 l 1
 413 607 l 1
 309 607 l 1
EndSplineSet
EndChar

StartChar: idieresis
Encoding: 239 239 171
Width: 241
Flags: MW
HStem: 607 114<-40 64 -40 64 169 273 -40 169>
VStem: -40 104<607 721 607 721> 169 104<607 721 607 721>
LayerCount: 2
Fore
SplineSet
66 500 m 1
 66 0 l 1
 175 0 l 1
 175 500 l 1
 66 500 l 1
-40 607 m 1
 -40 721 l 1
 64 721 l 1
 64 607 l 1
 -40 607 l 1
169 607 m 1
 169 721 l 1
 273 721 l 1
 273 607 l 1
 169 607 l 1
EndSplineSet
EndChar

StartChar: ntilde
Encoding: 241 241 172
Width: 546
Flags: MW
HStem: 597 85<330.5 357 330.5 371> 637 85<201 230.5> 666 21G<115 115> 698 20G<420 420>
VStem: 175 202<0 265 0 388 0 388>
LayerCount: 2
Fore
SplineSet
66 0 m 1x38
 175 0 l 1
 175 388 l 1
 175 388 230 414 288 414 c 0
 364 414 377 365 377 265 c 2
 377 0 l 1
 485 0 l 1
 485 268 l 2
 485 432 451 511 312 511 c 0
 247 511 174 469 174 469 c 1
 174 500 l 1
 66 500 l 1x98
 66 0 l 1x38
420 718 m 1
 444 654 l 1
 444 654 394 597 348 597 c 0x98
 306 597 247 637 214 637 c 0
 188 637 139 603 139 603 c 1x48
 115 666 l 1x38
 115 666 166 722 213 722 c 0x48
 254 722 316 682 345 682 c 0
 369 682 420 718 420 718 c 1
EndSplineSet
EndChar

StartChar: oacute
Encoding: 243 243 173
Width: 530
Flags: MW
HStem: -11 759<179.5 368>
VStem: 152 226<195 311>
LayerCount: 2
Fore
SplineSet
265 511 m 0
 98 511 42 415 42 253 c 0
 42 87 94 -11 265 -11 c 0
 437 -11 488 87 488 253 c 0
 488 415 432 511 265 511 c 0
265 81 m 0
 172 81 152 137 152 253 c 0
 152 369 177 419 265 419 c 0
 353 419 378 369 378 253 c 0
 378 137 358 81 265 81 c 0
132 647 m 1
 368 748 l 1
 402 654 l 1
 158 576 l 1
 132 647 l 1
EndSplineSet
EndChar

StartChar: ograve
Encoding: 242 242 174
Width: 530
Flags: MW
HStem: -11 92<218.5 311.5 218.5 351> 419 92<221 309>
VStem: 42 110<195 311 195 334> 378 110<195 311>
LayerCount: 2
Fore
SplineSet
265 511 m 0
 432 511 488 415 488 253 c 0
 488 87 437 -11 265 -11 c 0
 94 -11 42 87 42 253 c 0
 42 415 98 511 265 511 c 0
265 81 m 0
 358 81 378 137 378 253 c 0
 378 369 353 419 265 419 c 0
 177 419 152 369 152 253 c 0
 152 137 172 81 265 81 c 0
165 748 m 1
 401 647 l 1
 375 576 l 1
 131 654 l 1
 165 748 l 1
EndSplineSet
EndChar

StartChar: ocircumflex
Encoding: 244 244 175
Width: 530
Flags: MW
HStem: 585 146<100 294 100 294 225 319 225 421> 661 21G<261 261> 661 70<261 261>
VStem: 152 226<195 311>
LayerCount: 2
Fore
SplineSet
265 511 m 0x90
 98 511 42 415 42 253 c 0
 42 87 94 -11 265 -11 c 0
 437 -11 488 87 488 253 c 0
 488 415 432 511 265 511 c 0x90
265 81 m 0
 172 81 152 137 152 253 c 0
 152 369 177 419 265 419 c 0
 353 419 378 369 378 253 c 0
 378 137 358 81 265 81 c 0
100 585 m 1
 225 731 l 1
 294 731 l 1x30
 421 585 l 1
 319 585 l 1x90
 261 661 l 1x50
 203 585 l 1
 100 585 l 1
EndSplineSet
EndChar

StartChar: odieresis
Encoding: 246 246 176
Width: 530
Flags: MW
HStem: 607 114<107 211 107 211 316 420 107 316>
VStem: 107 104<607 721 607 721> 152 226<195 311> 316 104<607 721 607 721>
LayerCount: 2
Fore
SplineSet
265 511 m 0xd0
 98 511 42 415 42 253 c 0
 42 87 94 -11 265 -11 c 0
 437 -11 488 87 488 253 c 0
 488 415 432 511 265 511 c 0xd0
265 81 m 0xa0
 172 81 152 137 152 253 c 0
 152 369 177 419 265 419 c 0
 353 419 378 369 378 253 c 0
 378 137 358 81 265 81 c 0xa0
107 607 m 1xd0
 107 721 l 1
 211 721 l 1
 211 607 l 1
 107 607 l 1xd0
316 607 m 1
 316 721 l 1
 420 721 l 1
 420 607 l 1
 316 607 l 1
EndSplineSet
EndChar

StartChar: otilde
Encoding: 245 245 177
Width: 530
Flags: MW
HStem: 597 85<312.5 339 312.5 353> 637 85<183 212.5> 666 21G<97 97> 698 20G<402 402>
VStem: 152 226<195 311>
LayerCount: 2
Fore
SplineSet
265 511 m 0x98
 98 511 42 415 42 253 c 0
 42 87 94 -11 265 -11 c 0
 437 -11 488 87 488 253 c 0
 488 415 432 511 265 511 c 0x98
265 81 m 0
 172 81 152 137 152 253 c 0
 152 369 177 419 265 419 c 0
 353 419 378 369 378 253 c 0
 378 137 358 81 265 81 c 0
402 718 m 1
 426 654 l 1
 426 654 376 597 330 597 c 0x98
 288 597 229 637 196 637 c 0
 170 637 121 603 121 603 c 1x48
 97 666 l 1x38
 97 666 148 722 195 722 c 0x48
 236 722 298 682 327 682 c 0
 351 682 402 718 402 718 c 1
EndSplineSet
EndChar

StartChar: uacute
Encoding: 250 250 178
Width: 543
Flags: MW
HStem: -11 759<162.5 377>
VStem: 170 199<238 500>
LayerCount: 2
Fore
SplineSet
477 500 m 1
 369 500 l 1
 369 112 l 1
 369 112 315 86 255 86 c 0
 177 86 170 127 170 238 c 2
 170 500 l 1
 61 500 l 1
 61 239 l 2
 61 63 91 -11 234 -11 c 0
 296 -11 369 31 369 31 c 1
 369 0 l 1
 477 0 l 1
 477 500 l 1
141 647 m 1
 377 748 l 1
 411 654 l 1
 167 576 l 1
 141 647 l 1
EndSplineSet
EndChar

StartChar: ugrave
Encoding: 249 249 179
Width: 543
Flags: MW
HStem: -11 97<216 265> 0 86<216 477 216 369> 480 20G<61 170 170 170 369 477 477 477>
VStem: 61 109<239 500> 369 108<0 31 31 31 112 500 0 500>
LayerCount: 2
Fore
SplineSet
369 500 m 1xb8
 477 500 l 1
 477 0 l 1
 369 0 l 1x78
 369 31 l 1
 369 31 296 -11 234 -11 c 0
 91 -11 61 63 61 239 c 2
 61 500 l 1
 170 500 l 1
 170 238 l 2
 170 127 177 86 255 86 c 0
 315 86 369 112 369 112 c 1
 369 500 l 1xb8
139 748 m 1
 375 647 l 1
 349 576 l 1
 105 654 l 1
 139 748 l 1
EndSplineSet
EndChar

StartChar: ucircumflex
Encoding: 251 251 180
Width: 543
Flags: MW
HStem: 585 146<92 286 92 286 217 311 217 413> 661 21G<253 253> 661 70<253 253>
VStem: 170 199<238 500>
LayerCount: 2
Fore
SplineSet
477 500 m 1x50
 369 500 l 1
 369 112 l 1
 369 112 315 86 255 86 c 0
 177 86 170 127 170 238 c 2
 170 500 l 1
 61 500 l 1
 61 239 l 2
 61 63 91 -11 234 -11 c 0
 296 -11 369 31 369 31 c 1
 369 0 l 1
 477 0 l 1
 477 500 l 1x50
92 585 m 1x90
 217 731 l 1
 286 731 l 1x30
 413 585 l 1
 311 585 l 1x90
 253 661 l 1x50
 195 585 l 1
 92 585 l 1x90
EndSplineSet
EndChar

StartChar: udieresis
Encoding: 252 252 181
Width: 543
Flags: MW
HStem: 607 114<117 221 117 221 326 430 117 326>
VStem: 117 104<607 721 607 721> 170 199<238 500> 326 104<607 721 607 721>
LayerCount: 2
Fore
SplineSet
477 500 m 1xa0
 369 500 l 1
 369 112 l 1
 369 112 315 86 255 86 c 0
 177 86 170 127 170 238 c 2
 170 500 l 1
 61 500 l 1
 61 239 l 2
 61 63 91 -11 234 -11 c 0
 296 -11 369 31 369 31 c 1
 369 0 l 1
 477 0 l 1
 477 500 l 1xa0
117 607 m 1xd0
 117 721 l 1
 221 721 l 1
 221 607 l 1
 117 607 l 1xd0
326 607 m 1
 326 721 l 1
 430 721 l 1
 430 607 l 1
 326 607 l 1
EndSplineSet
EndChar

StartChar: minus
Encoding: 8722 8722 182
Width: 560
Flags: MW
HStem: 202 98<64 496 64 496>
VStem: 64 432<202 300 202 300>
LayerCount: 2
Fore
SplineSet
64 202 m 1
 64 300 l 1
 496 300 l 1
 496 202 l 1
 64 202 l 1
EndSplineSet
EndChar

StartChar: multiply
Encoding: 215 215 183
Width: 560
Flags: MW
HStem: 33 435<132 429 428 429>
VStem: 62 435<102 102>
LayerCount: 2
Fore
SplineSet
132 467 m 1
 280 317 l 1
 429 468 l 1
 497 399 l 1
 346 250 l 1
 497 102 l 1
 428 33 l 1
 280 184 l 1
 132 33 l 1
 62 102 l 1
 213 250 l 1
 63 398 l 1
 132 467 l 1
EndSplineSet
EndChar

StartChar: dotlessi
Encoding: 305 305 184
Width: 241
Flags: MW
HStem: 0 21G<66 66 66 175> 480 20G<66 175 175 175>
VStem: 66 109<0 500 0 500>
LayerCount: 2
Fore
SplineSet
66 0 m 1
 66 500 l 1
 175 500 l 1
 175 0 l 1
 66 0 l 1
EndSplineSet
EndChar

StartChar: iacute
Encoding: 237 237 185
Width: 241
Flags: MW
HStem: 0 748<66 270 175 270>
VStem: 34 270<647 654>
LayerCount: 2
Fore
SplineSet
34 647 m 1
 270 748 l 1
 304 654 l 1
 60 576 l 1
 34 647 l 1
66 500 m 1
 66 0 l 1
 175 0 l 1
 175 500 l 1
 66 500 l 1
EndSplineSet
EndChar

StartChar: igrave
Encoding: 236 236 186
Width: 241
Flags: MW
HStem: 0 21G<66 66 66 175> 480 20G<66 175 175 175>
VStem: 66 109<0 500 0 500>
LayerCount: 2
Fore
SplineSet
66 0 m 1
 66 500 l 1
 175 500 l 1
 175 0 l 1
 66 0 l 1
-25 748 m 1
 211 647 l 1
 185 576 l 1
 -59 654 l 1
 -25 748 l 1
EndSplineSet
EndChar

StartChar: icircumflex
Encoding: 238 238 187
Width: 241
Flags: MW
HStem: 585 146<-44 150 -44 150 81 175 81 277> 661 21G<117 117> 661 70<117 117>
VStem: -44 321<585 585>
LayerCount: 2
Fore
SplineSet
66 500 m 1x90
 66 0 l 1
 175 0 l 1
 175 500 l 1
 66 500 l 1x90
-44 585 m 1
 81 731 l 1
 150 731 l 1x30
 277 585 l 1
 175 585 l 1x90
 117 661 l 1x50
 59 585 l 1
 -44 585 l 1
EndSplineSet
EndChar

StartChar: germandbls
Encoding: 223 223 188
Width: 595
Flags: MW
HStem: -11 21G<335.5 437.5> -11 96<335.5 393.5 335 437.5> 0 21G<66 175 66 66> 623 96<241.5 321>
VStem: 66 109<0 527> 237 112<382 401 382 411.5> 384 112<545.5 582.5> 455 112<132.5 174.5>
LayerCount: 2
Fore
SplineSet
175 0 m 1x3e
 66 0 l 1
 66 532 l 2
 66 669 129 719 282 719 c 0
 427 719 496 676 496 567 c 0x3e
 496 493 467 466 408 440 c 0
 359 418 349 410 349 392 c 0
 349 372 361 362 440 324 c 0
 531 281 567 251 567 170 c 0
 567 33 510 -11 365 -11 c 0x5d
 306 -11 221 8 221 8 c 1x9d
 225 96 l 1
 225 96 317 85 353 85 c 0
 434 85 455 111 455 154 c 0x5d
 455 195 440 207 356 246 c 0
 267 285 237 318 237 382 c 0
 237 441 261 470 314 492 c 0
 372 516 384 531 384 560 c 0
 384 605 360 623 282 623 c 0
 201 623 175 599 175 527 c 2
 175 0 l 1x3e
EndSplineSet
EndChar

StartChar: ccedilla
Encoding: 231 231 189
Width: 442
Flags: MW
HStem: -231 73<245.5 250 225.5 298.5> -221 21G<177 177> -100 58<205 252 205 252> -11 97<252 277.5> -8 21G<205 205> 414 97<230 279.5 178.5 301> 491 20G<178.5 279.5>
VStem: 44 110<193 314.5 193 346.5> 205 47<-42 -11 -42 -8 -42 -8> 277 94<-138 -116.5>
LayerCount: 2
Fore
SplineSet
371 -127 m 0xadc0
 371 -199 330 -231 267 -231 c 0xad80
 224 -231 177 -221 177 -221 c 1x6d80
 181 -156 l 1
 181 -156 215 -158 236 -158 c 0
 264 -158 277 -149 277 -127 c 0
 277 -106 264 -100 236 -100 c 2xadc0
 205 -100 l 1
 205 -8 l 1
 86 7 44 85 44 257 c 0
 44 436 104 511 253 511 c 0xad80
 306 511 403 492 403 492 c 1xab80
 399 406 l 1
 399 406 320 414 282 414 c 0
 178 414 154 372 154 257 c 0
 154 129 175 86 283 86 c 0
 321 86 400 94 400 94 c 1
 403 7 l 1
 403 7 303 -11 252 -11 c 1
 252 -42 l 1xb580
 329 -43 371 -57 371 -127 c 0xadc0
EndSplineSet
EndChar

StartChar: lslash
Encoding: 322 322 190
Width: 350
Flags: MW
HStem: 0 21G<117 117 117 225> 688 20G<117 225 225 225>
VStem: 117 108<0 244 244 244 431 708>
LayerCount: 2
Fore
SplineSet
117 0 m 1
 117 244 l 1
 59 204 l 1
 6 278 l 1
 117 355 l 1
 117 708 l 1
 225 708 l 1
 225 431 l 1
 293 479 l 1
 346 405 l 1
 225 320 l 1
 225 0 l 1
 117 0 l 1
EndSplineSet
EndChar

StartChar: eth
Encoding: 240 240 191
Width: 559
Flags: MW
HStem: -9 98<230 313.5 230 357> 338 97<225 290 182.5 297> 699 20G<105 105>
VStem: 40 114<175.5 248 175.5 281> 400 114<310 310 405 405>
LayerCount: 2
Fore
SplineSet
164 490 m 1
 119 553 l 1
 204 610 l 1
 171 621 132 631 88 641 c 1
 105 719 l 1
 179 709 243 694 298 673 c 1
 396 739 l 1
 442 676 l 1
 377 633 l 1
 467 573 514 482 514 349 c 0
 514 100 444 -9 270 -9 c 0
 122 -9 40 66 40 215 c 0
 40 347 111 435 254 435 c 0
 326 435 400 405 400 405 c 1
 394 474 366 529 288 573 c 1
 164 490 l 1
261 338 m 0
 189 338 154 281 154 215 c 0
 154 136 190 89 270 89 c 0
 357 89 399 146 400 310 c 1
 400 310 333 338 261 338 c 0
EndSplineSet
EndChar

StartChar: Thorn
Encoding: 222 222 192
Width: 597
Flags: MW
HStem: 0 21G<79 190 79 79> 108 108<190 329 329 330 190 329> 482 106<190 329 190 330>
VStem: 79 111<0 108 216 482 588 693> 451 113<313.5 400>
LayerCount: 2
Fore
SplineSet
329 216 m 2
 412 216 451 270 451 357 c 0
 451 443 412 482 329 482 c 2
 190 482 l 1
 190 216 l 1
 329 216 l 2
330 108 m 2
 190 108 l 1
 190 0 l 1
 79 0 l 1
 79 693 l 1
 190 693 l 1
 190 588 l 1
 330 588 l 2
 486 588 564 513 564 357 c 0
 564 201 486 108 330 108 c 2
EndSplineSet
Position2: "'cpsp' Capital Spacing in Lateinisch lookup 0 subtable" dx=5 dy=0 dh=10 dv=0
EndChar

StartChar: oslash
Encoding: 248 248 193
Width: 530
Flags: MW
HStem: -11 92<258.5 311.5 258.5 351> -5 21G<197 197> 419 92<221 270.5> 485 20G<329 329>
VStem: 42 110<222 311 222 334> 378 110<195 283>
LayerCount: 2
Fore
SplineSet
265 511 m 0xac
 288 511 310 508 329 505 c 1
 370 606 l 1
 438 581 l 1
 396 480 l 1
 463 440 488 361 488 253 c 0
 488 87 437 -11 265 -11 c 0x9c
 240 -11 217 -9 197 -5 c 1x6c
 154 -110 l 1
 87 -85 l 1
 131 20 l 1
 65 62 42 142 42 253 c 0
 42 415 98 511 265 511 c 0xac
265 81 m 0
 358 81 378 137 378 253 c 0
 378 313 371 355 352 382 c 1
 231 84 l 1
 241 82 252 81 265 81 c 0
265 419 m 0
 177 419 152 369 152 253 c 0
 152 191 157 147 176 119 c 1
 295 416 l 1
 286 418 276 419 265 419 c 0
EndSplineSet
EndChar

StartChar: zero.pnum
Encoding: 65540 -1 194
Width: 534
Flags: MW
HStem: -9 93<230 305 230 333> 416 93<230 305>
VStem: 46 102<179 314 179 343.5> 386 102<179 314>
LayerCount: 2
Fore
SplineSet
267 509 m 0
 401 509 488 446 488 242 c 0
 488 44 399 -9 267 -9 c 0
 136 -9 46 44 46 243 c 0
 46 444 135 509 267 509 c 0
267 416 m 0
 193 416 148 385 148 243 c 0
 148 115 193 84 267 84 c 0
 343 84 386 115 386 243 c 0
 386 385 343 416 267 416 c 0
EndSplineSet
Substitution2: "'frac' Diagonal Fractions in Lateinisch lookup 1 subtable" zerosuperior
EndChar

StartChar: one.pnum
Encoding: 65541 -1 195
Width: 378
Flags: MW
HStem: 0 21G<207 308 207 207> 480 20G<221 308 308 308>
VStem: 207 101<0 383 383 383>
LayerCount: 2
Fore
SplineSet
19 382 m 1
 221 500 l 1
 308 500 l 1
 308 0 l 1
 207 0 l 1
 207 383 l 1
 57 300 l 1
 19 382 l 1
EndSplineSet
Substitution2: "'frac' Diagonal Fractions in Lateinisch lookup 1 subtable" onesuperior
EndChar

StartChar: two.pnum
Encoding: 65542 -1 196
Width: 481
Flags: MW
HStem: 0 93<192 436 192 436> 412 97<200.5 245>
VStem: 318 109<325.5 373.5>
LayerCount: 2
Fore
SplineSet
436 0 m 1
 48 0 l 1
 48 89 l 1
 194 202 l 2
 284 269 318 302 318 349 c 0
 318 398 285 412 205 412 c 0
 166 412 54 397 54 396 c 2
 48 489 l 1
 48 489 162 509 239 509 c 0
 347 509 427 472 427 363 c 0
 427 277 384 237 304 179 c 2
 192 93 l 1
 436 93 l 1
 436 0 l 1
EndSplineSet
Substitution2: "'frac' Diagonal Fractions in Lateinisch lookup 1 subtable" twosuperior
EndChar

StartChar: three.pnum
Encoding: 65543 -1 197
Width: 482
Flags: MW
HStem: -9 21G -9 101<202.5 277 202.5 299> 211 89<112 240 112 241 112 240> 413 97<198 261.5>
VStem: 320 102<346.5 379.5> 335 102<132.5 176>
LayerCount: 2
Fore
SplineSet
50 491 m 1x74
 50 491 160 510 236 510 c 0
 351 510 422 478 422 385 c 0x78
 422 308 372 280 349 267 c 1
 387 252 437 221 437 144 c 0
 437 38 355 -9 243 -9 c 0x74
 160 -9 42 12 42 12 c 1xb4
 54 105 l 1
 54 105 162 92 243 92 c 0
 311 92 335 112 335 153 c 0
 335 199 290 210 241 211 c 2x74
 112 211 l 1
 112 300 l 1
 240 300 l 2
 280 301 320 315 320 359 c 0
 320 400 286 413 237 413 c 0x78
 153 413 60 400 60 400 c 1
 50 491 l 1x74
EndSplineSet
Substitution2: "'frac' Diagonal Fractions in Lateinisch lookup 1 subtable" threesuperior
EndChar

StartChar: four.pnum
Encoding: 65544 -1 198
Width: 479
Flags: MW
HStem: -9 193<143 299 143 401> 87 97<143 299 143 299 401 447> 480 20G<171 279 279 279>
VStem: 299 102<-9 87 -9 87 184 307>
LayerCount: 2
Fore
SplineSet
299 -9 m 1xb0
 299 87 l 1
 32 87 l 1
 32 162 l 1x70
 171 500 l 1
 279 500 l 1
 143 184 l 1
 299 184 l 1
 299 307 l 1
 401 307 l 1
 401 184 l 1
 447 184 l 1xb0
 447 87 l 1
 401 87 l 1x70
 401 -9 l 1
 299 -9 l 1xb0
EndSplineSet
Substitution2: "'frac' Diagonal Fractions in Lateinisch lookup 1 subtable" foursuperior
EndChar

StartChar: five.pnum
Encoding: 65545 -1 199
Width: 499
Flags: MW
HStem: -9 99<216.5 281.5 216.5 321.5> 225 95<237.5 281> 397 106<169 438 169 169>
VStem: 346 112<132.5 182>
LayerCount: 2
Fore
SplineSet
76 503 m 1
 438 503 l 1
 438 397 l 1
 169 397 l 1
 156 297 l 1
 156 297 211 320 264 320 c 0
 387 320 458 269 458 163 c 0
 458 56 387 -9 256 -9 c 0
 171 -9 45 19 45 19 c 1
 57 112 l 1
 57 112 180 90 253 90 c 0
 310 90 346 108 346 157 c 0
 346 207 311 225 251 225 c 0
 203 225 135 198 135 198 c 1
 56 214 l 1
 76 503 l 1
EndSplineSet
Substitution2: "'frac' Diagonal Fractions in Lateinisch lookup 1 subtable" fivesuperior
EndChar

StartChar: six.pnum
Encoding: 65546 -1 200
Width: 503
Flags: MW
HStem: -10 89<222.5 286.5 222.5 314> 226 95<256.5 294> 419 90<231.5 298>
VStem: 46 102<206 206 290 340> 363 102<128.5 182.5>
LayerCount: 2
Fore
SplineSet
437 494 m 1
 430 409 l 1
 430 409 330 419 266 419 c 0
 197 419 148 390 148 290 c 1
 181 304 235 321 278 321 c 0
 393 321 465 274 465 157 c 0
 465 49 378 -10 250 -10 c 0
 119 -10 46 66 46 254 c 0
 46 444 144 509 266 509 c 0
 353 509 437 494 437 494 c 1
262 226 m 0
 215 226 148 206 148 206 c 1
 150 122 187 79 258 79 c 0
 315 79 363 100 363 157 c 0
 363 208 326 226 262 226 c 0
EndSplineSet
Substitution2: "'frac' Diagonal Fractions in Lateinisch lookup 1 subtable" sixsuperior
EndChar

StartChar: seven.pnum
Encoding: 65547 -1 201
Width: 417
Flags: MW
HStem: -9 21G<183 183> 411 89<31 387 31 290>
VStem: 290 97<389 411 411 411>
LayerCount: 2
Fore
SplineSet
31 411 m 1
 31 500 l 1
 387 500 l 1
 387 388 l 1
 183 -9 l 1
 95 15 l 1
 290 389 l 1
 290 411 l 1
 31 411 l 1
EndSplineSet
Substitution2: "'frac' Diagonal Fractions in Lateinisch lookup 1 subtable" sevensuperior
EndChar

StartChar: eight.pnum
Encoding: 65548 -1 202
Width: 505
Flags: MW
HStem: -10 88<220.5 284 220.5 310.5> 217 79<216 286 216 286> 421 88<219 284.5>
VStem: 46 101<118 163.5 118 170.5> 57 101<344 381.5 344 421> 347 101<344 381.5> 357 102<119 166.5>
LayerCount: 2
Fore
SplineSet
252 509 m 0xec
 369 509 448 469 448 372 c 0xf4
 448 311 415 282 373 262 c 1
 419 238 459 215 459 135 c 0
 459 29 369 -10 252 -10 c 0
 136 -10 46 30 46 133 c 0xf2
 46 208 84 238 129 262 c 1
 90 282 57 311 57 372 c 0
 57 470 134 509 252 509 c 0xec
252 78 m 0xf2
 316 78 357 94 357 144 c 0
 357 189 329 204 286 217 c 1
 216 217 l 1
 172 203 147 185 147 142 c 0
 147 94 189 78 252 78 c 0xf2
252 421 m 0xec
 186 421 158 399 158 364 c 0
 158 324 179 308 216 296 c 1
 286 296 l 1
 324 307 347 324 347 364 c 0
 347 399 317 421 252 421 c 0xec
EndSplineSet
Substitution2: "'frac' Diagonal Fractions in Lateinisch lookup 1 subtable" eightsuperior
EndChar

StartChar: nine.pnum
Encoding: 65549 -1 203
Width: 486
Flags: MW
HStem: -9 21G<178 286> -9 91<186 259 186 286> 187 88<200.5 254> 420 90<201.5 265.5>
VStem: 40 102<322.5 370 322.5 395.5> 337 104<168 212>
LayerCount: 2
Fore
SplineSet
60 11 m 1xbc
 69 96 l 1
 69 96 148 82 224 82 c 0
 294 82 337 124 337 212 c 1
 337 212 287 187 221 187 c 0
 97 187 40 244 40 342 c 0
 40 449 119 510 236 510 c 0
 364 510 441 431 441 251 c 0
 441 58 348 -9 224 -9 c 0x7c
 132 -9 60 11 60 11 c 1xbc
230 275 m 0
 289 275 333 299 333 299 c 1
 331 378 299 420 232 420 c 0
 171 420 142 397 142 343 c 0
 142 302 171 275 230 275 c 0
EndSplineSet
Substitution2: "'frac' Diagonal Fractions in Lateinisch lookup 1 subtable" ninesuperior
EndChar

StartChar: brokenbar
Encoding: 166 166 204
Width: 256
Flags: MW
HStem: -215 21G<74 182 74 74> 688 20G<74 182 182 182>
VStem: 74 108<-215 164 -215 164 335 708>
LayerCount: 2
Fore
SplineSet
74 708 m 1
 182 708 l 1
 182 335 l 1
 74 335 l 1
 74 708 l 1
74 164 m 1
 182 164 l 1
 182 -215 l 1
 74 -215 l 1
 74 164 l 1
EndSplineSet
EndChar

StartChar: plusminus
Encoding: 177 177 205
Width: 560
Flags: MW
HStem: 27 98<52 508 52 508> 280 98<52 230 52 230 328 508>
VStem: 230 98<168 280 168 280 378 493>
LayerCount: 2
Fore
SplineSet
52 280 m 1
 52 378 l 1
 230 378 l 1
 230 493 l 1
 328 493 l 1
 328 378 l 1
 508 378 l 1
 508 280 l 1
 328 280 l 1
 328 168 l 1
 230 168 l 1
 230 280 l 1
 52 280 l 1
52 125 m 1
 508 125 l 1
 508 27 l 1
 52 27 l 1
 52 125 l 1
EndSplineSet
EndChar

StartChar: pi
Encoding: 960 960 206
Width: 560
Flags: MW
HStem: -7 92<490.5 522 490.5 522> 0 21G<85 194 85 85> 407 93<93.5 410 221 337 221 221>
VStem: 337 108<154 407 407 407>
LayerCount: 2
Fore
SplineSet
337 154 m 2xb0
 337 407 l 1
 221 407 l 1
 194 0 l 1
 85 0 l 1x70
 116 407 l 1
 71 407 20 394 20 394 c 1
 20 483 l 1
 20 483 82 500 166 500 c 2
 410 500 l 2
 474 500 529 513 529 513 c 1
 529 423 l 1
 529 423 503 412 445 409 c 1
 445 154 l 2
 445 103 459 85 522 85 c 1
 522 -7 l 1
 362 -7 337 23 337 154 c 2xb0
EndSplineSet
EndChar

StartChar: bullet
Encoding: 8226 8226 207
Width: 460
Flags: MW
HStem: 103 282<105 355 105 355>
VStem: 105 250<103 385 103 385>
LayerCount: 2
Fore
SplineSet
105 103 m 1
 105 385 l 1
 355 385 l 1
 355 103 l 1
 105 103 l 1
EndSplineSet
EndChar

StartChar: ordfeminine
Encoding: 170 170 208
Width: 403
Flags: MW
HStem: 332 68<311 353> 333 73<163 170.5> 472 59 582 77<170 206>
VStem: 47 94<426 448 426 465.5> 237 93<422 474 474 474 533 551 412 556 412 565>
LayerCount: 2
Fore
SplineSet
330 551 m 2x7c
 330 412 l 1
 335 406 346 401 353 400 c 1
 351 332 l 1xbc
 271 332 257 343 243 362 c 1
 243 362 195 333 146 333 c 0
 82 333 47 373 47 435 c 0
 47 496 85 525 161 529 c 2
 237 533 l 1
 237 556 l 2
 237 574 221 582 191 582 c 0
 149 582 67 575 67 575 c 1
 64 638 l 1
 64 638 134 659 196 659 c 0
 280 659 330 637 330 551 c 2x7c
237 474 m 1
 177 470 l 2
 152 468 141 459 141 437 c 0
 141 415 152 406 174 406 c 0
 201 406 237 422 237 422 c 1x7c
 237 474 l 1
EndSplineSet
EndChar

StartChar: ordmasculine
Encoding: 186 186 209
Width: 403
Flags: MW
HStem: 333 86<180 224.5 180 253> 574 85<180 224.5>
VStem: 46 97<470.5 524 470.5 554> 258 99<470.5 524>
LayerCount: 2
Fore
SplineSet
202 659 m 0
 304 659 357 610 357 498 c 0
 357 386 304 333 202 333 c 0
 100 333 46 386 46 498 c 0
 46 610 100 659 202 659 c 0
202 419 m 0
 247 419 258 444 258 497 c 0
 258 551 247 574 202 574 c 0
 158 574 143 551 143 497 c 0
 143 444 158 419 202 419 c 0
EndSplineSet
EndChar

StartChar: quotedblleft
Encoding: 8220 8220 210
Width: 413
Flags: MW
HStem: 456 235<118 156 42 201 289 327 118 213>
VStem: 42 330<456 691>
LayerCount: 2
Fore
SplineSet
372 691 m 1
 327 456 l 1
 213 456 l 1
 289 691 l 1
 372 691 l 1
201 691 m 1
 156 456 l 1
 42 456 l 1
 118 691 l 1
 201 691 l 1
EndSplineSet
EndChar

StartChar: asciitilde
Encoding: 126 126 211
Width: 560
Flags: MW
HStem: 181 98<361.5 404 361.5 412> 232 98<158.5 201>
VStem: 64 432<233 278>
LayerCount: 2
Fore
SplineSet
487 320 m 1xa0
 496 233 l 1
 496 233 441 181 383 181 c 0xa0
 328 181 221 232 181 232 c 0
 136 232 74 190 74 190 c 1
 64 278 l 1
 64 278 126 330 184 330 c 0x60
 239 330 338 279 385 279 c 0
 423 279 487 320 487 320 c 1xa0
EndSplineSet
EndChar

StartChar: emdash
Encoding: 8212 8212 212
Width: 1122
Flags: MW
HStem: 220 93<61 1061 61 1061>
VStem: 61 1000<220 313 220 313>
LayerCount: 2
Fore
SplineSet
61 313 m 1
 1061 313 l 1
 1061 220 l 1
 61 220 l 1
 61 313 l 1
EndSplineSet
Substitution2: "'case' Case-Sensitive Forms in Lateinisch lookup 4 subtable" emdash.cap
EndChar

StartChar: six
Encoding: 54 54 213
Width: 560
Flags: MW
HStem: -11 97<238.5 326.5 238.5 361> 321 98<270.5 327.5> 574 97<258.5 351>
VStem: 41 114<292 292 292 453> 409 115<169.5 246.5>
LayerCount: 2
Fore
SplineSet
500 647 m 1
 490 560 l 1
 490 560 393 574 309 574 c 0
 208 574 157 503 156 388 c 0
 156 387 241 419 300 419 c 0
 447 419 524 353 524 209 c 0
 524 63 435 -11 287 -11 c 0
 116 -11 41 118 41 330 c 0
 41 576 145 671 309 671 c 0
 393 671 500 647 500 647 c 1
290 321 m 0
 227 321 155 292 155 292 c 1
 156 176 190 86 287 86 c 0
 366 86 409 130 409 209 c 0
 409 284 365 321 290 321 c 0
EndSplineSet
Substitution2: "'frac' Diagonal Fractions in Lateinisch lookup 1 subtable" sixsuperior
EndChar

StartChar: nine
Encoding: 57 57 214
Width: 560
Flags: MW
HStem: -11 97<206 299.5 206 331> 244 98<228 285> 574 97<232 319>
VStem: 34 115<413.5 489 413.5 519.5> 402 115<278 278.5>
LayerCount: 2
Fore
SplineSet
57 13 m 1
 67 100 l 1
 67 100 164 86 248 86 c 0
 351 86 401 153 402 278 c 0
 402 279 314 244 256 244 c 0
 115 244 34 310 34 451 c 0
 34 588 125 671 270 671 c 0
 441 671 517 541 517 331 c 0
 517 72 414 -11 248 -11 c 0
 164 -11 57 13 57 13 c 1
265 342 m 0
 326 342 403 371 403 371 c 1
 402 486 368 574 270 574 c 0
 194 574 149 527 149 451 c 0
 149 376 191 342 265 342 c 0
EndSplineSet
Substitution2: "'frac' Diagonal Fractions in Lateinisch lookup 1 subtable" ninesuperior
EndChar

StartChar: yen
Encoding: 165 165 215
Width: 560
Flags: MW
HStem: 0 21G<226 337 226 226> 146 92<58 226 58 226 337 502> 301 92<58 170 58 170 58 223 392 502>
VStem: 226 111<0 146 0 146 238 283>
LayerCount: 2
Fore
SplineSet
58 301 m 1
 58 393 l 1
 170 393 l 1
 13 660 l 1
 137 660 l 1
 281 424 l 1
 424 660 l 1
 548 660 l 1
 392 393 l 1
 502 393 l 1
 502 301 l 1
 341 301 l 1
 337 283 l 1
 337 238 l 1
 502 238 l 1
 502 146 l 1
 337 146 l 1
 337 0 l 1
 226 0 l 1
 226 146 l 1
 58 146 l 1
 58 238 l 1
 226 238 l 1
 226 283 l 1
 223 301 l 1
 58 301 l 1
EndSplineSet
EndChar

StartChar: less
Encoding: 60 60 216
Width: 560
Flags: MW
HStem: 11 477<474 474>
VStem: 64 410<11 296 11 296>
LayerCount: 2
Fore
SplineSet
474 377 m 1
 180 253 l 1
 474 123 l 1
 474 11 l 1
 64 206 l 1
 64 296 l 1
 474 488 l 1
 474 377 l 1
EndSplineSet
EndChar

StartChar: greater
Encoding: 62 62 217
Width: 560
Flags: MW
HStem: 11 477<86 86>
VStem: 86 410<11 296 123 296 206 488 206 488>
LayerCount: 2
Fore
SplineSet
380 253 m 1
 86 377 l 1
 86 488 l 1
 496 296 l 1
 496 206 l 1
 86 11 l 1
 86 123 l 1
 380 253 l 1
EndSplineSet
EndChar

StartChar: bracketleft
Encoding: 91 91 218
Width: 344
Flags: MW
HStem: -123 97<183 306 183 306> 652 97<183 306 183 183>
VStem: 73 110<-26 652 -26 749 -26 749>
LayerCount: 2
Fore
SplineSet
306 749 m 1
 306 652 l 1
 183 652 l 1
 183 -26 l 1
 306 -26 l 1
 306 -123 l 1
 73 -123 l 1
 73 749 l 1
 306 749 l 1
EndSplineSet
Substitution2: "'case' Case-Sensitive Forms in Lateinisch lookup 4 subtable" bracketleft.cap
EndChar

StartChar: backslash
Encoding: 92 92 219
Width: 471
Flags: MW
HStem: 670 21G<31 31>
VStem: 31 409
LayerCount: 2
Fore
SplineSet
440 13 m 1
 345 -27 l 1
 31 670 l 1
 125 712 l 1
 440 13 l 1
EndSplineSet
EndChar

StartChar: bracketright
Encoding: 93 93 220
Width: 344
Flags: MW
HStem: -123 97<38 161 38 271 38 161> 652 97<38 271 38 161>
VStem: 161 110<-26 652 652 652>
LayerCount: 2
Fore
SplineSet
38 652 m 1
 38 749 l 1
 271 749 l 1
 271 -123 l 1
 38 -123 l 1
 38 -26 l 1
 161 -26 l 1
 161 652 l 1
 38 652 l 1
EndSplineSet
Substitution2: "'case' Case-Sensitive Forms in Lateinisch lookup 4 subtable" bracketright.cap
EndChar

StartChar: bar
Encoding: 124 124 221
Width: 252
Flags: MW
HStem: -215 21G<72 72 72 180> 688 20G<72 180 180 180>
VStem: 72 108<-215 708 -215 708>
LayerCount: 2
Fore
SplineSet
72 -215 m 1
 72 708 l 1
 180 708 l 1
 180 -215 l 1
 72 -215 l 1
EndSplineSet
EndChar

StartChar: notequal
Encoding: 8800 8800 222
Width: 560
Flags: MW
HStem: -10 21G<114 114> 103 98<60 163 60 206 306 498 60 263> 301 98<60 293 60 250 60 350 393 498>
VStem: 60 438<103 201 103 201 301 399 103 399>
LayerCount: 2
Fore
SplineSet
60 301 m 1
 60 399 l 1
 293 399 l 1
 361 554 l 1
 446 520 l 1
 393 399 l 1
 498 399 l 1
 498 301 l 1
 350 301 l 1
 306 201 l 1
 498 201 l 1
 498 103 l 1
 263 103 l 1
 199 -44 l 1
 114 -10 l 1
 163 103 l 1
 60 103 l 1
 60 201 l 1
 206 201 l 1
 250 301 l 1
 60 301 l 1
EndSplineSet
EndChar

StartChar: mu
Encoding: 181 181 223
Width: 560
Flags: MW
HStem: -215 21G<72 181 72 72> -11 97<232.5 276> -4 21G<181 181> 0 86<230 488 230 380> 480 20G<72 181 181 181 380 488 488 488>
VStem: 72 109<-215 -4 214 500> 380 108<0 31 31 31 112 500 0 500>
LayerCount: 2
Fore
SplineSet
380 500 m 1xce
 488 500 l 1
 488 0 l 1
 380 0 l 1x9e
 380 31 l 1
 380 31 307 -11 245 -11 c 0xce
 220 -11 199 -9 181 -4 c 1xae
 181 -215 l 1
 72 -215 l 1
 72 500 l 1
 181 500 l 1
 181 214 l 2
 182 121 194 86 266 86 c 0
 326 86 380 112 380 112 c 1
 380 500 l 1xce
EndSplineSet
EndChar

StartChar: ae
Encoding: 230 230 224
Width: 793
Flags: MW
HStem: -11 93<179.5 219> -11 99<508.5 578.5> 203 85<436 646 436 746 436 646> 222 83.5 407 103<230.5 282> 414 96<513 579.5>
VStem: 34 109<128.5 173.5 128.5 204> 327 109<203 226> 646 107<288 334>
LayerCount: 2
Fore
SplineSet
550 88 m 0x6780
 629 88 735 97 735 97 c 1
 737 12 l 1
 737 12 622 -11 535 -11 c 0
 466 -11 417 6 384 39 c 1
 357 27 l 2
 332 16 261 -11 177 -11 c 0
 83 -11 34 49 34 148 c 0
 34 260 96 292 211 301 c 2
 328 310 l 1
 328 342 l 2
 328 385 302 407 262 407 c 0
 188 407 70 396 70 396 c 1x5b80
 66 492 l 1
 66 492 193 510 268 510 c 0
 329 510 373 494 400 458 c 1
 434 494 483 510 543 510 c 0
 683 510 753 438 753 282 c 1
 746 203 l 1
 436 203 l 1
 437 125 467 88 550 88 c 0x6780
197 82 m 0x9780
 252 82 331 105 335 107 c 1
 329 142 327 182 327 226 c 1
 212 218 l 2
 167 215 143 196 143 151 c 0
 143 106 162 82 197 82 c 0x9780
436 288 m 1x6780
 646 288 l 1
 646 380 616 414 543 414 c 0
 469 414 436 376 436 288 c 1x6780
EndSplineSet
EndChar

StartChar: florin
Encoding: 402 402 225
Width: 560
Flags: MW
HStem: -232 97<122 153 119.5 200> -221 21G<42 42> 377 93<137 195 137 195 304 435> 604 98<341.5 354.5 279.5 380.5> 691 21G<443 443>
VStem: 195 109<-48 377 470 507 507 515>
LayerCount: 2
Fore
SplineSet
304 -50 m 2xac
 304 -190 254 -232 146 -232 c 0xac
 98 -232 42 -221 42 -221 c 1x6c
 42 -131 l 1
 42 -131 105 -135 134 -135 c 0
 172 -135 195 -114 195 -48 c 2
 195 377 l 1
 137 377 l 1
 137 470 l 1
 195 470 l 1
 195 507 l 2
 195 636 223 702 336 702 c 0xb4
 373 702 443 691 443 691 c 1xac
 443 602 l 1
 443 602 398 604 363 604 c 0
 320 604 304 578 304 515 c 2xb4
 304 470 l 1
 435 470 l 1
 435 377 l 1
 304 377 l 1
 304 -50 l 2xac
EndSplineSet
EndChar

StartChar: oe
Encoding: 339 339 226
Width: 844
Flags: MW
HStem: -11 98<219.5 305.5> 203 85<487 697 487 797 487 697> 413 97<222 305.5 182 307.5>
VStem: 42 110<196.5 309 196.5 334> 378 109<203 203 288 307> 697 108<288 334>
LayerCount: 2
Fore
SplineSet
602 88 m 0
 681 88 786 97 786 97 c 1
 788 12 l 1
 788 12 674 -11 586 -11 c 0
 511 -11 461 10 429 67 c 1
 396 10 345 -11 266 -11 c 0
 94 -11 42 87 42 253 c 0
 42 415 98 510 266 510 c 0
 345 510 400 487 433 419 c 1
 469 489 525 510 594 510 c 0
 735 510 805 438 805 282 c 1
 797 203 l 1
 487 203 l 1
 488 125 518 88 602 88 c 0
266 87 m 0
 359 87 378 143 378 252 c 0
 378 362 349 413 266 413 c 0
 178 413 152 365 152 253 c 0
 152 140 173 87 266 87 c 0
487 288 m 1
 697 288 l 1
 697 380 668 414 594 414 c 0
 521 414 487 375 487 288 c 1
EndSplineSet
EndChar

StartChar: daggerdbl
Encoding: 8225 8225 227
Width: 516
Flags: MW
HStem: 112 93<49 204 49 204 312 467> 407 93<49 204 49 204 312 466>
VStem: 204 108<-73 112 -73 112 205 407 500 685>
LayerCount: 2
Fore
SplineSet
204 -73 m 1
 204 112 l 1
 49 112 l 1
 49 205 l 1
 204 205 l 1
 204 407 l 1
 49 407 l 1
 49 500 l 1
 204 500 l 1
 204 685 l 1
 312 685 l 1
 312 500 l 1
 466 500 l 1
 466 407 l 1
 312 407 l 1
 312 205 l 1
 467 205 l 1
 467 112 l 1
 312 112 l 1
 312 -73 l 1
 204 -73 l 1
EndSplineSet
EndChar

StartChar: quotedbl
Encoding: 34 34 228
Width: 395
Flags: MW
HStem: 453 232<64 160 64 64 234 329 234 234>
VStem: 62 101 232 100
LayerCount: 2
Fore
SplineSet
329 453 m 1
 234 453 l 1
 230 685 l 1
 335 685 l 1
 329 453 l 1
160 453 m 1
 64 453 l 1
 60 685 l 1
 166 685 l 1
 160 453 l 1
EndSplineSet
EndChar

StartChar: quotesingle
Encoding: 39 39 229
Width: 225
Flags: MW
HStem: 453 232<64 64 64 160>
VStem: 62.5 101
LayerCount: 2
Fore
SplineSet
64 453 m 1
 61 685 l 1
 167 685 l 1
 160 453 l 1
 64 453 l 1
EndSplineSet
EndChar

StartChar: parenleft
Encoding: 40 40 230
Width: 289
Flags: MW
HStem: -125 875<155 258 155 258>
VStem: 43 120<203 399 203 415.5>
LayerCount: 2
Fore
SplineSet
155 750 m 1
 258 750 l 1
 258 750 163 497 163 301 c 0
 163 105 258 -125 258 -125 c 1
 155 -125 l 1
 155 -125 43 72 43 301 c 0
 43 530 155 750 155 750 c 1
EndSplineSet
Substitution2: "'case' Case-Sensitive Forms in Lateinisch lookup 4 subtable" parenleft.cap
EndChar

StartChar: parenright
Encoding: 41 41 231
Width: 289
Flags: MW
HStem: -125 875<31 134 31 134>
VStem: 126 120<203 399>
LayerCount: 2
Fore
SplineSet
31 750 m 1
 134 750 l 1
 134 750 246 530 246 301 c 0
 246 72 134 -125 134 -125 c 1
 31 -125 l 1
 31 -125 126 105 126 301 c 0
 126 497 31 750 31 750 c 1
EndSplineSet
Substitution2: "'case' Case-Sensitive Forms in Lateinisch lookup 4 subtable" parenright.cap
EndChar

StartChar: comma
Encoding: 44 44 232
Width: 246
Flags: MW
HStem: -123 247<26 194 74 114>
VStem: 26 168
LayerCount: 2
Fore
SplineSet
26 -123 m 1
 74 124 l 1
 194 124 l 1
 114 -123 l 1
 26 -123 l 1
EndSplineSet
EndChar

StartChar: hyphen
Encoding: 45 45 233
Width: 421
Flags: MW
HStem: 220 99<61 360 61 360>
VStem: 61 299<220 319 220 319>
LayerCount: 2
Fore
SplineSet
61 220 m 1
 61 319 l 1
 360 319 l 1
 360 220 l 1
 61 220 l 1
EndSplineSet
EndChar

StartChar: period
Encoding: 46 46 234
Width: 239
Flags: MW
HStem: 0 144<61 178 61 178>
VStem: 61 117<0 144 0 144>
LayerCount: 2
Fore
SplineSet
61 0 m 1
 61 144 l 1
 178 144 l 1
 178 0 l 1
 61 0 l 1
EndSplineSet
EndChar

StartChar: colon
Encoding: 58 58 235
Width: 239
Flags: MW
HStem: 0 144<61 178 61 178> 303 144<61 178 61 178>
VStem: 61 117<0 144 0 144 303 447>
LayerCount: 2
Fore
SplineSet
61 303 m 1
 61 447 l 1
 178 447 l 1
 178 303 l 1
 61 303 l 1
61 0 m 1
 61 144 l 1
 178 144 l 1
 178 0 l 1
 61 0 l 1
EndSplineSet
EndChar

StartChar: semicolon
Encoding: 59 59 236
Width: 266
Flags: MW
HStem: 303 144<77 194 77 194>
VStem: 77 117<303 447 303 447>
LayerCount: 2
Fore
SplineSet
84 124 m 1
 36 -123 l 1
 124 -123 l 1
 204 124 l 1
 84 124 l 1
77 303 m 1
 77 447 l 1
 194 447 l 1
 194 303 l 1
 77 303 l 1
EndSplineSet
EndChar

StartChar: equal
Encoding: 61 61 237
Width: 560
Flags: MW
HStem: 103 98<61 499 61 499> 301 98<61 499 61 499>
VStem: 61 438<103 201 103 201 301 399 103 399>
LayerCount: 2
Fore
SplineSet
61 301 m 1
 61 399 l 1
 499 399 l 1
 499 301 l 1
 61 301 l 1
61 103 m 1
 61 201 l 1
 499 201 l 1
 499 103 l 1
 61 103 l 1
EndSplineSet
EndChar

StartChar: question
Encoding: 63 63 238
Width: 441
Flags: MW
HStem: 0 140<133 249 133 249> 599 97<164 226.5> 663 21G<33 33>
VStem: 126 112<210 306> 133 116<0 140 0 140> 294 112<500.5 548>
LayerCount: 2
Fore
SplineSet
406 534 m 0xac
 406 445 391 412 319 354 c 0
 253 303 238 278 238 243 c 2
 238 210 l 1xac
 150 210 l 1
 150 210 126 241 126 288 c 0
 126 324 155 355 207 399 c 0
 281 459 294 478 294 523 c 0
 294 573 265 599 188 599 c 0
 126 599 39 580 39 580 c 1
 33 663 l 1
 33 663 126 696 202 696 c 0xd4
 341 696 406 649 406 534 c 0xac
133 0 m 1
 133 140 l 1
 249 140 l 1
 249 0 l 1
 133 0 l 1
EndSplineSet
EndChar

StartChar: underscore
Encoding: 95 95 239
Width: 625
Flags: MW
HStem: -174 93<99 527 99 527>
VStem: 99 428<-174 -81 -174 -81>
LayerCount: 2
Fore
SplineSet
99 -81 m 1
 527 -81 l 1
 527 -174 l 1
 99 -174 l 1
 99 -81 l 1
EndSplineSet
EndChar

StartChar: braceleft
Encoding: 123 123 240
Width: 357
Flags: MW
HStem: 666 92<319 320>
VStem: 122 106<28 61.5 564.5 601.5>
LayerCount: 2
Fore
SplineSet
235 171 m 0
 235 140 228 89 228 54 c 0
 228 2 243 -34 318 -39 c 1
 318 -131 l 1
 175 -126 122 -77 122 42 c 0
 122 81 129 138 129 163 c 0
 129 214 95 249 19 270 c 1
 19 355 l 1
 96 373 129 405 129 456 c 0
 129 484 122 546 122 583 c 0
 122 709 176 753 319 758 c 1
 320 666 l 1
 245 661 228 628 228 575 c 0
 228 542 235 479 235 450 c 0
 235 368 217 337 126 313 c 1
 217 289 235 252 235 171 c 0
EndSplineSet
Substitution2: "'case' Case-Sensitive Forms in Lateinisch lookup 4 subtable" braceleft.cap
EndChar

StartChar: braceright
Encoding: 125 125 241
Width: 357
Flags: MW
HStem: 666 92<37 38>
VStem: 129 106<28 61.5 -17.5 71.5 564.5 601.5>
LayerCount: 2
Fore
SplineSet
122 171 m 0
 122 252 140 289 231 313 c 1
 140 337 122 368 122 450 c 0
 122 479 129 542 129 575 c 0
 129 628 112 661 37 666 c 1
 38 758 l 1
 181 753 235 709 235 583 c 0
 235 546 228 484 228 456 c 0
 228 405 261 373 338 355 c 1
 338 270 l 1
 262 249 228 214 228 163 c 0
 228 138 235 81 235 42 c 0
 235 -77 182 -126 39 -131 c 1
 39 -39 l 1
 114 -34 129 2 129 54 c 0
 129 89 122 140 122 171 c 0
EndSplineSet
Substitution2: "'case' Case-Sensitive Forms in Lateinisch lookup 4 subtable" braceright.cap
EndChar

StartChar: cent
Encoding: 162 162 242
Width: 560
Flags: MW
HStem: -78 204<274 351.5 282 351.5 282 364> 374 202<281.5 348.5>
VStem: 93 111<204 293.5 204 322.5> 274 90<-78 32 32 32>
LayerCount: 2
Fore
SplineSet
274 -78 m 1
 274 32 l 1
 157 39 93 98 93 249 c 0
 93 396 159 460 273 468 c 1
 273 576 l 1
 364 576 l 1
 364 464 l 1
 406 461 452 452 452 452 c 1
 449 369 l 1
 449 369 370 374 327 374 c 0
 236 374 204 338 204 249 c 0
 204 159 234 126 330 126 c 0
 373 126 450 131 450 131 c 1
 453 48 l 1
 453 48 405 38 364 36 c 1
 364 -78 l 1
 274 -78 l 1
EndSplineSet
EndChar

StartChar: quoteleft
Encoding: 8216 8216 243
Width: 242
Flags: MW
HStem: 456 235<118 156 42 201>
VStem: 42 159
LayerCount: 2
Fore
SplineSet
201 691 m 1
 156 456 l 1
 42 456 l 1
 118 691 l 1
 201 691 l 1
EndSplineSet
EndChar

StartChar: quoteright
Encoding: 8217 8217 244
Width: 238
Flags: MW
HStem: 457 235<47 206 92 130>
VStem: 47 159
LayerCount: 2
Fore
SplineSet
47 457 m 1
 92 692 l 1
 206 692 l 1
 130 457 l 1
 47 457 l 1
EndSplineSet
EndChar

StartChar: divide
Encoding: 247 247 245
Width: 560
Flags: MW
HStem: 23 118<225 333 225 333> 241 110<105 173 105 173 386 455>
VStem: 173 213<351 428 351 428> 225 108<23 141 23 141>
LayerCount: 2
Fore
SplineSet
105 241 m 1xd0
 105 351 l 1
 173 351 l 1
 173 428 l 1
 386 428 l 1
 386 351 l 1
 455 351 l 1
 455 241 l 1xe0
 105 241 l 1xd0
225 23 m 1xd0
 225 141 l 1
 333 141 l 1
 333 23 l 1
 225 23 l 1xd0
EndSplineSet
EndChar

StartChar: Euro
Encoding: 8364 8364 246
Width: 560
Flags: MW
HStem: -11 96<302.5 363> 202 84<28 85 28 91 28 85 202 460 202 202> 365 84<28 90 28 84 202 460> 575 96<301 366 251.5 370>
VStem: 84 111<330 365 286 365>
LayerCount: 2
Fore
SplineSet
28 365 m 1
 28 449 l 1
 90 449 l 1
 108 602 171 671 332 671 c 0
 400 671 479 656 521 647 c 1
 517 560 l 1
 474 568 394 575 346 575 c 0
 256 575 216 542 202 449 c 1
 460 449 l 1
 460 365 l 1
 195 365 l 1
 195 330 l 1
 195 286 l 1
 460 286 l 1
 460 202 l 1
 202 202 l 1
 217 117 256 85 349 85 c 0
 398 85 476 93 517 99 c 1
 520 11 l 1
 475 1 394 -11 332 -11 c 0
 172 -11 110 61 91 202 c 1
 28 202 l 1
 28 286 l 1
 85 286 l 1
 84 300 84 315 84 330 c 2
 84 365 l 1
 28 365 l 1
EndSplineSet
EndChar

StartChar: ampersand
Encoding: 38 38 247
Width: 696
Flags: MW
HStem: -11 97<237 316 237 341.5> 615 92<289.5 342.5>
VStem: 38 110<168 242 168 256> 123 110<526.5 563 519 604> 396 110<510.5 565> 506 105<374 376>
LayerCount: 2
Fore
SplineSet
315 707 m 0xe8
 440 707 506 650 506 550 c 0xe8
 506 457 464 414 361 354 c 1
 483 233 l 1
 492 259 504 335 506 376 c 1
 611 374 l 1
 603 303 582 216 562 169 c 1
 681 60 l 1
 619 -11 l 1
 506 87 l 1
 462 27 386 -11 297 -11 c 0
 100 -11 38 68 38 199 c 0xe4
 38 313 86 365 186 402 c 1
 133 464 123 495 123 558 c 0xd8
 123 650 197 707 315 707 c 0xe8
285 86 m 0
 347 86 406 108 432 148 c 1
 243 337 l 1
 178 312 148 276 148 208 c 0
 148 128 189 86 285 86 c 0
233 536 m 0xd8
 233 502 246 473 278 439 c 2
 300 416 l 1
 368 454 396 482 396 539 c 0
 396 591 370 615 315 615 c 0
 264 615 233 590 233 536 c 0xd8
EndSplineSet
EndChar

StartChar: asterisk
Encoding: 42 42 248
Width: 423
Flags: MW
HStem: 504 64<256 382 256 382 255 382> 693 20G<231 231>
VStem: 46 336<458 504>
LayerCount: 2
Fore
SplineSet
382 504 m 1
 255 504 l 1
 294 382 l 1
 232 363 l 1
 191 486 l 1
 86 407 l 1
 46 458 l 1
 153 537 l 1
 49 611 l 1
 88 665 l 1
 191 590 l 1
 231 713 l 1
 295 692 l 1
 256 568 l 1
 382 568 l 1
 382 504 l 1
EndSplineSet
EndChar

StartChar: sterling
Encoding: 163 163 249
Width: 560
Flags: MW
HStem: 0 93<77 156 263 400 77 156> 333 93<90 156 90 156 263 423> 573 97<304 347 261.5 355.5>
VStem: 156 107<93 333 93 333 426 478>
LayerCount: 2
Fore
SplineSet
459 650 m 1
 456 564 l 1
 456 564 383 573 328 573 c 0
 280 573 263 550 263 478 c 2
 263 426 l 1
 423 426 l 1
 423 333 l 1
 263 333 l 1
 263 93 l 1
 400 93 l 1
 472 109 l 1
 489 18 l 1
 408 0 l 1
 77 0 l 1
 77 93 l 1
 156 93 l 1
 156 333 l 1
 90 333 l 1
 90 426 l 1
 156 426 l 1
 156 483 l 2
 156 636 209 670 314 670 c 0
 380 670 459 650 459 650 c 1
EndSplineSet
EndChar

StartChar: paragraph
Encoding: 182 182 250
Width: 596
Flags: MW
HStem: 0 21G<224 318 224 224 403 497 403 403> 592 93<318 403 318 318 497 497 497 549>
VStem: 224 94<0 303 303 303> 403 94<0 592 0 592>
LayerCount: 2
Fore
SplineSet
403 0 m 1
 403 592 l 1
 318 592 l 1
 318 0 l 1
 224 0 l 1
 224 303 l 1
 217 303 l 2
 107 303 31 381 31 493 c 0
 31 605 108 685 219 685 c 2
 549 685 l 1
 549 592 l 1
 497 592 l 1
 497 0 l 1
 403 0 l 1
EndSplineSet
EndChar

StartChar: dagger
Encoding: 8224 8224 251
Width: 479
Flags: MW
HStem: 407 93<31 185 31 185 294 449>
VStem: 185 109<407 407 500 685> 189 101
LayerCount: 2
Fore
SplineSet
31 407 m 1xa0
 31 500 l 1
 185 500 l 1
 185 685 l 1
 294 685 l 1
 294 500 l 1xc0
 449 500 l 1
 449 407 l 1
 294 407 l 1
 286 -73 l 1
 193 -73 l 1
 185 407 l 1
 31 407 l 1xa0
EndSplineSet
EndChar

StartChar: percent
Encoding: 37 37 252
Width: 560
Flags: MW
HStem: -11 67<411 437.5 411 460.5> -6 21G<138 138> 207 68<411 437.5> 385 68<123 149 123 172> 604 67<123 149> 670 21G
VStem: 20 82<503.5 555 503.5 577.5> 170 81<503 555> 309 81<107 158.5 107 181> 458 82<107 158.5>
LayerCount: 2
Fore
SplineSet
138 -6 m 1x77c0
 360 691 l 1
 422 670 l 1
 200 -26 l 1
 138 -6 l 1x77c0
136 671 m 0xbbc0
 209 671 251 626 251 529 c 0
 251 432 208 385 136 385 c 0
 63 385 20 432 20 529 c 0
 20 626 63 671 136 671 c 0xbbc0
102 529 m 0
 102 478 110 453 136 453 c 0
 162 453 170 477 170 529 c 0
 170 581 162 604 136 604 c 0
 110 604 102 581 102 529 c 0
424 275 m 0
 497 275 540 229 540 133 c 0
 540 36 497 -11 424 -11 c 0
 352 -11 309 36 309 133 c 0
 309 229 351 275 424 275 c 0
390 133 m 0
 390 81 398 56 424 56 c 0
 451 56 458 81 458 133 c 0
 458 184 451 207 424 207 c 0
 398 207 390 184 390 133 c 0
EndSplineSet
EndChar

StartChar: plus
Encoding: 43 43 253
Width: 560
Flags: MW
HStem: 202 98<52 230 52 230 328 508>
VStem: 230 98<21 202 21 202 300 479>
LayerCount: 2
Fore
SplineSet
52 202 m 1
 52 300 l 1
 230 300 l 1
 230 479 l 1
 328 479 l 1
 328 300 l 1
 508 300 l 1
 508 202 l 1
 328 202 l 1
 328 21 l 1
 230 21 l 1
 230 202 l 1
 52 202 l 1
EndSplineSet
EndChar

StartChar: asciicircum
Encoding: 94 94 254
Width: 560
Flags: MW
HStem: 316 344<37 321 37 321 227 514 227 400>
VStem: 37 477<316 316>
LayerCount: 2
Fore
SplineSet
400 316 m 1
 276 554 l 1
 151 316 l 1
 37 316 l 1
 227 660 l 1
 321 660 l 1
 514 316 l 1
 400 316 l 1
EndSplineSet
EndChar

StartChar: quotedblright
Encoding: 8221 8221 255
Width: 412
Flags: MW
HStem: 458 235<47 206 92 130 265 303 92 220>
VStem: 47 332<458 693>
LayerCount: 2
Fore
SplineSet
47 458 m 1
 92 693 l 1
 206 693 l 1
 130 458 l 1
 47 458 l 1
220 458 m 1
 265 693 l 1
 379 693 l 1
 303 458 l 1
 220 458 l 1
EndSplineSet
EndChar

StartChar: zerosuperior
Encoding: 8304 8304 256
Width: 280
Flags: MW
HStem: 468 78<129 151.5 129 180> 722 78<128.5 152>
VStem: 15 91<596 669.5 596 696.5> 174 90<596 669>
LayerCount: 2
Fore
SplineSet
140 800 m 0
 221 800 264 759 264 633 c 0
 264 506 220 468 140 468 c 0
 60 468 15 506 15 633 c 0
 15 760 59 800 140 800 c 0
140 722 m 0
 117 722 106 706 106 633 c 0
 106 559 118 546 140 546 c 0
 163 546 174 559 174 633 c 0
 174 705 164 722 140 722 c 0
EndSplineSet
Substitution2: "Single Substitution lookup 5 subtable" zeroinferior
EndChar

StartChar: onesuperior
Encoding: 185 185 257
Width: 280
Flags: MW
HStem: 693 21G<116 116> 697 20G<19 19>
VStem: 116 88<478 693 693 693>
LayerCount: 2
Fore
SplineSet
19 717 m 1x60
 124 790 l 1
 204 790 l 1x60
 204 478 l 1
 116 478 l 1
 116 693 l 1
 60 655 l 1xa0
 19 717 l 1x60
EndSplineSet
Substitution2: "Single Substitution lookup 5 subtable" oneinferior
EndChar

StartChar: twosuperior
Encoding: 178 178 258
Width: 280
Flags: MW
HStem: 478 79<137 246 137 246> 717 83<116.5 123.5>
VStem: 25 221<478 553 553 553> 152 92<681.5 701>
LayerCount: 2
Fore
SplineSet
246 478 m 1xa0
 25 478 l 1
 25 553 l 1xa0
 104 624 l 2
 137 652 152 671 152 692 c 0
 152 710 137 717 110 717 c 0
 85 717 31 710 31 710 c 1
 27 790 l 1
 27 790 94 800 139 800 c 0
 216 800 244 772 244 704 c 0
 244 659 227 632 186 599 c 2xd0
 137 557 l 1
 246 557 l 1
 246 478 l 1xa0
EndSplineSet
Substitution2: "Single Substitution lookup 5 subtable" twoinferior
EndChar

StartChar: threesuperior
Encoding: 179 179 259
Width: 280
Flags: MW
HStem: 468 78<117.5 139.5 107.5 177> 600 72<63 128 128 129 63 128> 722 78<113.5 132.5>
VStem: 156 92<693.5 706.5> 164 91<565 584>
LayerCount: 2
Fore
SplineSet
28 791 m 1xe8
 28 791 93 800 134 800 c 0
 210 800 248 774 248 714 c 0xf0
 248 673 228 650 214 642 c 1
 240 632 255 614 255 567 c 0
 255 499 212 468 142 468 c 0
 93 468 24 476 24 476 c 1
 30 553 l 1
 30 553 89 546 126 546 c 0
 153 546 164 556 164 574 c 0
 164 594 151 600 129 600 c 2xe8
 63 600 l 1
 63 672 l 1
 128 672 l 2
 143 672 156 682 156 698 c 0
 156 715 144 722 121 722 c 0xf0
 81 722 34 716 34 716 c 1
 28 791 l 1xe8
EndSplineSet
Substitution2: "Single Substitution lookup 5 subtable" threeinferior
EndChar

StartChar: foursuperior
Encoding: 8308 8308 260
Width: 280
Flags: MW
HStem: 519 79<107 154 107 154 241 259>
VStem: 159 82
LayerCount: 2
Fore
SplineSet
154 478 m 1
 154 519 l 1
 18 519 l 1
 18 592 l 1
 70 790 l 1
 168 790 l 1
 107 598 l 1
 154 598 l 1
 164 687 l 1
 241 687 l 1
 241 598 l 1
 259 598 l 1
 259 519 l 1
 241 519 l 1
 241 478 l 1
 154 478 l 1
EndSplineSet
Substitution2: "Single Substitution lookup 5 subtable" fourinferior
EndChar

StartChar: fivesuperior
Encoding: 8309 8309 261
Width: 280
Flags: MW
HStem: 470 76<119 143 112 181> 604 75<132.5 192.5> 669 21G<114 114> 715 75<118 247 118 118>
VStem: 43 73 166 91<566 586.5>
LayerCount: 2
Fore
SplineSet
48 790 m 1xbc
 247 790 l 1
 247 715 l 1
 118 715 l 1
 114 669 l 1xbc
 114 669 142 679 164 679 c 0
 221 679 257 653 257 580 c 0
 257 507 218 470 144 470 c 0
 94 470 31 484 31 484 c 1
 37 555 l 1
 37 555 93 546 131 546 c 0
 155 546 166 556 166 576 c 0
 166 597 156 604 141 604 c 0
 124 604 103 596 103 596 c 1
 38 604 l 1xdc
 48 790 l 1xbc
EndSplineSet
Substitution2: "Single Substitution lookup 5 subtable" fiveinferior
EndChar

StartChar: sixsuperior
Encoding: 8310 8310 262
Width: 280
Flags: MW
HStem: 468 76<132 153 132 179.5> 613 72<148 153.5> 723 77<139.5 171>
VStem: 21 89<601 601.5 601 682.5> 173 88<569.5 591.5>
LayerCount: 2
Fore
SplineSet
250 789 m 1
 246 717 l 1
 246 717 186 723 156 723 c 0
 123 723 111 706 111 676 c 0
 111 675 138 685 158 685 c 0
 231 685 261 649 261 581 c 0
 261 509 213 468 146 468 c 0
 60 468 21 525 21 625 c 0
 21 740 55 800 153 800 c 0
 189 800 250 789 250 789 c 1
144 613 m 0
 125 613 110 602 110 601 c 0
 111 567 121 544 143 544 c 0
 163 544 173 559 173 580 c 0
 173 603 163 613 144 613 c 0
EndSplineSet
Substitution2: "Single Substitution lookup 5 subtable" sixinferior
EndChar

StartChar: sevensuperior
Encoding: 8311 8311 263
Width: 280
Flags: MW
HStem: 703 87<28 245 28 144>
VStem: 144 101<699 703 703 703>
LayerCount: 2
Fore
SplineSet
28 703 m 1
 28 790 l 1
 245 790 l 1
 245 699 l 1
 146 469 l 1
 48 485 l 1
 144 687 l 1
 144 703 l 1
 28 703 l 1
EndSplineSet
Substitution2: "Single Substitution lookup 5 subtable" seveninferior
EndChar

StartChar: eightsuperior
Encoding: 8312 8312 264
Width: 280
Flags: MW
HStem: 468 71<129 151 129 179> 607 62<130 150 130 150> 729 71<129.5 151>
VStem: 16 90<560 578.5 560 591.5> 21 87<694.5 711 694.5 741.5> 172 87<694.5 710.5> 174 90<560.5 579>
LayerCount: 2
Fore
SplineSet
140 800 m 0xec
 220 800 259 771 259 713 c 0xf4
 259 668 236 644 225 641 c 1
 236 638 264 619 264 570 c 0
 264 494 218 468 140 468 c 0
 62 468 16 492 16 568 c 0xf2
 16 615 45 638 55 642 c 1
 46 645 21 664 21 713 c 0
 21 770 59 800 140 800 c 0xec
140 539 m 0xf2
 162 539 174 550 174 571 c 0
 174 587 165 599 150 607 c 1
 130 607 l 1
 116 599 106 587 106 570 c 0
 106 550 118 539 140 539 c 0xf2
140 729 m 0xec
 119 729 108 720 108 702 c 0
 108 687 117 676 130 669 c 1
 150 669 l 1
 164 676 172 687 172 702 c 0
 172 719 162 729 140 729 c 0xec
EndSplineSet
Substitution2: "Single Substitution lookup 5 subtable" eightinferior
EndChar

StartChar: ninesuperior
Encoding: 8313 8313 265
Width: 280
Flags: MW
HStem: 468 78<109.5 138.5 102.5 178.5> 583 69<128.5 132> 661 21G<171 171> 723 77<128.5 149.5>
VStem: 20 88<677.5 699 677.5 723.5> 171 89<661 682>
LayerCount: 2
Fore
SplineSet
31 480 m 1
 36 553 l 1
 36 553 84 546 121 546 c 0
 156 546 167 565 168 591 c 1
 168 591 143 583 121 583 c 0xfc
 55 583 20 620 20 687 c 0
 20 760 66 800 135 800 c 0
 223 800 260 744 260 635 c 0
 260 522 225 468 132 468 c 0
 87 468 31 480 31 480 c 1
137 652 m 0
 151 652 171 661 171 661 c 1xbc
 171 703 161 723 138 723 c 0
 119 723 108 710 108 688 c 0
 108 667 120 652 137 652 c 0
EndSplineSet
Substitution2: "Single Substitution lookup 5 subtable" nineinferior
EndChar

StartChar: questiondown
Encoding: 191 191 266
Width: 437
Flags: MW
HStem: -196 97<211.5 274> 360 140<189 305 189 305>
VStem: 32 112<-48 -0.5 -48 10.5> 189 116<360 500 360 500> 200 112<194 290 194 290>
LayerCount: 2
Fore
SplineSet
32 -34 m 0xf0
 32 55 47 88 119 146 c 0
 185 197 200 222 200 257 c 2
 200 290 l 1xf0
 288 290 l 1
 288 290 312 259 312 212 c 0xe8
 312 176 283 145 231 101 c 0
 157 41 144 22 144 -23 c 0
 144 -73 173 -99 250 -99 c 0
 312 -99 399 -80 399 -80 c 1
 405 -163 l 1
 405 -163 312 -196 236 -196 c 0
 97 -196 32 -149 32 -34 c 0xf0
305 500 m 1
 305 360 l 1
 189 360 l 1
 189 500 l 1
 305 500 l 1
EndSplineSet
Substitution2: "'case' Case-Sensitive Forms in Lateinisch lookup 4 subtable" questiondown.cap
EndChar

StartChar: questiondown.cap
Encoding: 65550 -1 267
Width: 431
Flags: MW
HStem: -11 97<209.5 272> 545 140<187 303 187 303>
VStem: 30 112<137 184.5 137 195.5> 187 116<545 685 545 685> 198 112<379 475 379 475>
LayerCount: 2
Fore
SplineSet
30 151 m 0xf0
 30 240 45 273 117 331 c 0
 183 382 198 407 198 442 c 2
 198 475 l 1xf0
 286 475 l 1
 286 475 310 444 310 397 c 0xe8
 310 361 281 330 229 286 c 0
 155 226 142 207 142 162 c 0
 142 112 171 86 248 86 c 0
 310 86 397 105 397 105 c 1
 403 22 l 1
 403 22 310 -11 234 -11 c 0
 95 -11 30 36 30 151 c 0xf0
303 685 m 1
 303 545 l 1
 187 545 l 1
 187 685 l 1
 303 685 l 1
EndSplineSet
EndChar

StartChar: ellipsis
Encoding: 8230 8230 268
Width: 748
Flags: MW
HStem: 0 144<61 178 61 178 316 433 61 316 570 687>
VStem: 61 117<0 144 0 144> 316 117<0 144 0 144> 570 117<0 144 0 144>
LayerCount: 2
Fore
SplineSet
61 0 m 1
 61 144 l 1
 178 144 l 1
 178 0 l 1
 61 0 l 1
316 0 m 1
 316 144 l 1
 433 144 l 1
 433 0 l 1
 316 0 l 1
570 0 m 1
 570 144 l 1
 687 144 l 1
 687 0 l 1
 570 0 l 1
EndSplineSet
EndChar

StartChar: endash.cap
Encoding: 65551 -1 269
Width: 624
Flags: MW
HStem: 250 93<62 562 62 562>
VStem: 62 500<250 343 250 343>
LayerCount: 2
Fore
SplineSet
62 343 m 1
 562 343 l 1
 562 250 l 1
 62 250 l 1
 62 343 l 1
EndSplineSet
Position2: "'cpsp' Capital Spacing in Lateinisch lookup 0 subtable" dx=5 dy=0 dh=10 dv=0
EndChar

StartChar: emdash.cap
Encoding: 65552 -1 270
Width: 1124
Flags: MW
HStem: 250 93<62 1062 62 1062>
VStem: 62 1000<250 343 250 343>
LayerCount: 2
Fore
SplineSet
62 343 m 1
 1062 343 l 1
 1062 250 l 1
 62 250 l 1
 62 343 l 1
EndSplineSet
Position2: "'cpsp' Capital Spacing in Lateinisch lookup 0 subtable" dx=5 dy=0 dh=10 dv=0
EndChar

StartChar: periodcentered
Encoding: 183 183 271
Width: 239
Flags: MW
HStem: 194 144<61 178 61 178>
VStem: 61 117<194 338 194 338>
LayerCount: 2
Fore
SplineSet
61 194 m 1
 61 338 l 1
 178 338 l 1
 178 194 l 1
 61 194 l 1
EndSplineSet
Substitution2: "'case' Case-Sensitive Forms in Lateinisch lookup 4 subtable" periodcentered.cap
EndChar

StartChar: periodcentered.cap
Encoding: 65553 -1 272
Width: 239
Flags: MW
HStem: 259 144<61 178 61 178>
VStem: 61 117<259 403 259 403>
LayerCount: 2
Fore
SplineSet
61 259 m 1
 61 403 l 1
 178 403 l 1
 178 259 l 1
 61 259 l 1
EndSplineSet
Position2: "'cpsp' Capital Spacing in Lateinisch lookup 0 subtable" dx=5 dy=0 dh=10 dv=0
EndChar

StartChar: currency
Encoding: 164 164 273
Width: 560
Flags: MW
HStem: 62 92<263.5 296.5> 350 92<263.5 296.5 263.5 307>
VStem: 90 92<235.5 268.5> 378 92<235.5 268.5 235.5 279>
LayerCount: 2
Fore
SplineSet
443 14 m 1
 371 86 l 1
 344 71 313 62 280 62 c 0
 247 62 215 71 188 86 c 1
 117 14 l 1
 42 89 l 1
 114 160 l 1
 98 187 90 219 90 252 c 0
 90 285 99 316 114 343 c 1
 42 415 l 1
 117 490 l 1
 188 418 l 1
 215 433 247 442 280 442 c 0
 313 442 344 433 371 418 c 1
 443 490 l 1
 518 415 l 1
 446 343 l 1
 461 316 470 285 470 252 c 0
 470 219 461 187 446 160 c 1
 518 89 l 1
 443 14 l 1
280 154 m 0
 334 154 378 198 378 252 c 0
 378 306 334 350 280 350 c 0
 226 350 182 306 182 252 c 0
 182 198 226 154 280 154 c 0
EndSplineSet
EndChar

StartChar: perthousand
Encoding: 8240 8240 274
Width: 841
Flags: MW
HStem: -11 67<424 450 424 473.5 681 707.5> -6 21G<151 151> 207 68<424 450 681 707.5> 453 151<135 161.5> 671 20
VStem: 115 67<503.5 555> 322 81<107 158.5 107 181> 471 82<107 158.5> 579 81<107 158.5 107 181> 728 82<107 158.5>
LayerCount: 2
Fore
SplineSet
148 604 m 0xbec0
 175 604 182 581 182 529 c 0
 182 477 175 453 148 453 c 0
 122 453 115 478 115 529 c 0
 115 581 122 604 148 604 c 0xbec0
151 -6 m 1x6e
 373 691 l 1
 435 670 l 1
 213 -26 l 1
 151 -6 l 1x6e
33 529 m 0
 33 432 76 385 148 385 c 0
 221 385 264 432 264 529 c 0
 264 626 221 671 148 671 c 0
 75 671 33 626 33 529 c 0
322 133 m 0
 322 229 364 275 437 275 c 0
 510 275 553 229 553 133 c 0
 553 36 510 -11 437 -11 c 0xa3
 364 -11 322 36 322 133 c 0
403 133 m 0xa3
 403 81 411 56 437 56 c 0
 463 56 471 81 471 133 c 0
 471 184 463 207 437 207 c 0
 411 207 403 184 403 133 c 0xa3
579 133 m 0xa0c0
 579 229 621 275 694 275 c 0
 767 275 810 229 810 133 c 0
 810 36 767 -11 694 -11 c 0
 622 -11 579 36 579 133 c 0xa0c0
660 133 m 0
 660 81 668 56 694 56 c 0
 721 56 728 81 728 133 c 0
 728 184 721 207 694 207 c 0
 668 207 660 184 660 133 c 0
EndSplineSet
EndChar

StartChar: lessequal
Encoding: 8804 8804 275
Width: 560
Flags: MW
HStem: 20 98<66 488 66 488> 488 20G<488 488>
VStem: 66 422<20 118 20 118 20 373 20 373>
LayerCount: 2
Fore
SplineSet
488 402 m 1
 188 330 l 1
 488 251 l 1
 488 145 l 1
 66 278 l 1
 66 373 l 1
 488 508 l 1
 488 402 l 1
66 20 m 1
 66 118 l 1
 488 118 l 1
 488 20 l 1
 66 20 l 1
EndSplineSet
EndChar

StartChar: greaterequal
Encoding: 8805 8805 276
Width: 560
Flags: MW
HStem: 20 98<72 494 72 494> 488 20G<72 72>
VStem: 72 422<20 118 20 118 20 251 20 251 20 508 20 508>
LayerCount: 2
Fore
SplineSet
372 330 m 1
 72 402 l 1
 72 508 l 1
 494 373 l 1
 494 278 l 1
 72 145 l 1
 72 251 l 1
 372 330 l 1
494 118 m 1
 494 20 l 1
 72 20 l 1
 72 118 l 1
 494 118 l 1
EndSplineSet
EndChar

StartChar: logicalnot
Encoding: 172 172 277
Width: 560
Flags: MW
HStem: 254 97<61 395 61 493>
VStem: 395 98<110 254 254 254>
LayerCount: 2
Fore
SplineSet
61 351 m 1
 493 351 l 1
 493 110 l 1
 395 110 l 1
 395 254 l 1
 61 254 l 1
 61 351 l 1
EndSplineSet
EndChar

StartChar: Delta
Encoding: 8710 8710 278
Width: 560
Flags: MW
HStem: 0 93<157 402 157 512> 568 92<267 293 267 267>
VStem: 48 464<0 82 0 84 0 84>
LayerCount: 2
Fore
SplineSet
48 84 m 1
 187 660 l 1
 373 660 l 1
 512 82 l 1
 512 0 l 1
 48 0 l 1
 48 84 l 1
293 568 m 1
 267 568 l 1
 157 93 l 1
 402 93 l 1
 293 568 l 1
EndSplineSet
EndChar

StartChar: Omega
Encoding: 8486 8486 279
Width: 560
Flags: MW
HStem: -9 93<49 148 49 252 49 148 412 511> 574 97<229 331>
VStem: 48 115<301 430 292.5 480> 397 115<301 430> 412 99<-9 84>
LayerCount: 2
Fore
SplineSet
49 84 m 1xf0
 148 84 l 1
 148 84 48 221 48 381 c 0
 48 579 107 671 280 671 c 0
 453 671 512 579 512 381 c 0xf0
 512 221 412 84 412 84 c 1
 511 84 l 1
 511 -9 l 1xe8
 308 -9 l 1
 308 72 l 1
 308 72 397 232 397 353 c 0
 397 507 382 574 280 574 c 0
 178 574 163 507 163 353 c 0
 163 232 252 72 252 72 c 1
 252 -9 l 1
 49 -9 l 1
 49 84 l 1xf0
EndSplineSet
EndChar

StartChar: oslashacute
Encoding: 511 511 280
Width: 530
Flags: MW
HStem: -110 858<154 367>
VStem: 152 226<222 283 195 311>
LayerCount: 2
Fore
SplineSet
265 511 m 0
 98 511 42 415 42 253 c 0
 42 142 65 62 131 20 c 1
 87 -85 l 1
 154 -110 l 1
 197 -5 l 1
 217 -9 240 -11 265 -11 c 0
 437 -11 488 87 488 253 c 0
 488 361 463 440 396 480 c 1
 438 581 l 1
 370 606 l 1
 329 505 l 1
 310 508 288 511 265 511 c 0
265 81 m 0
 252 81 241 82 231 84 c 1
 352 382 l 1
 371 355 378 313 378 253 c 0
 378 137 358 81 265 81 c 0
131 647 m 1
 367 748 l 1
 401 654 l 1
 157 576 l 1
 131 647 l 1
265 419 m 0
 276 419 286 418 295 416 c 1
 176 119 l 1
 157 147 152 191 152 253 c 0
 152 369 177 419 265 419 c 0
EndSplineSet
EndChar

StartChar: exclamdown
Encoding: 161 161 281
Width: 248
Flags: MW
HStem: 360 140<66 183 66 183>
VStem: 66 117<360 500 360 500> 71 106
LayerCount: 2
Fore
SplineSet
183 500 m 1xc0
 183 360 l 1
 66 360 l 1
 66 500 l 1
 183 500 l 1xc0
172 259 m 1xa0
 182 -185 l 1
 66 -185 l 1
 76 259 l 1
 172 259 l 1xa0
EndSplineSet
Substitution2: "'case' Case-Sensitive Forms in Lateinisch lookup 4 subtable" exclamdown.cap
EndChar

StartChar: exclamdown.cap
Encoding: 65554 -1 282
Width: 266
Flags: MW
HStem: 1 21G<75 191 75 75> 546 140<75 192 75 192>
VStem: 75 117<546 686 546 686> 80 106
LayerCount: 2
Fore
SplineSet
192 686 m 1xe0
 192 546 l 1
 75 546 l 1
 75 686 l 1
 192 686 l 1xe0
181 445 m 1xd0
 191 1 l 1
 75 1 l 1
 85 445 l 1
 181 445 l 1xd0
EndSplineSet
EndChar

StartChar: quotesinglbase
Encoding: 8218 8218 283
Width: 239
Flags: MW
HStem: -57 113<57 133 79 97>
VStem: 57 76
LayerCount: 2
Fore
SplineSet
57 -57 m 1
 79 56 l 1
 133 56 l 1
 97 -57 l 1
 57 -57 l 1
EndSplineSet
EndChar

StartChar: parenleft.cap
Encoding: 65555 -1 284
Width: 289
Flags: MW
HStem: -95 875<155 258 155 258>
VStem: 43 120<233 429 233 445.5>
LayerCount: 2
Fore
SplineSet
155 780 m 1
 258 780 l 1
 258 780 163 527 163 331 c 0
 163 135 258 -95 258 -95 c 1
 155 -95 l 1
 155 -95 43 102 43 331 c 0
 43 560 155 780 155 780 c 1
EndSplineSet
Position2: "'cpsp' Capital Spacing in Lateinisch lookup 0 subtable" dx=5 dy=0 dh=10 dv=0
EndChar

StartChar: parenright.cap
Encoding: 65556 -1 285
Width: 289
Flags: MW
HStem: -90 875<31 134 31 134>
VStem: 126 120<261 457>
LayerCount: 2
Fore
SplineSet
134 -90 m 1
 31 -90 l 1
 31 -90 126 163 126 359 c 0
 126 555 31 785 31 785 c 1
 134 785 l 1
 134 785 246 588 246 359 c 0
 246 130 134 -90 134 -90 c 1
EndSplineSet
Position2: "'cpsp' Capital Spacing in Lateinisch lookup 0 subtable" dx=5 dy=0 dh=10 dv=0
EndChar

StartChar: bracketleft.cap
Encoding: 65557 -1 286
Width: 344
Flags: MW
HStem: -93 97<183 306 183 306> 682 97<183 306 183 183>
VStem: 73 110<4 682 4 779 4 779>
LayerCount: 2
Fore
SplineSet
306 779 m 1
 306 682 l 1
 183 682 l 1
 183 4 l 1
 306 4 l 1
 306 -93 l 1
 73 -93 l 1
 73 779 l 1
 306 779 l 1
EndSplineSet
Position2: "'cpsp' Capital Spacing in Lateinisch lookup 0 subtable" dx=5 dy=0 dh=10 dv=0
EndChar

StartChar: bracketright.cap
Encoding: 65558 -1 287
Width: 344
Flags: MW
HStem: -93 97<38 161 38 271 38 161> 682 97<38 271 38 161>
VStem: 161 110<4 682 682 682>
LayerCount: 2
Fore
SplineSet
38 682 m 1
 38 779 l 1
 271 779 l 1
 271 -93 l 1
 38 -93 l 1
 38 4 l 1
 161 4 l 1
 161 682 l 1
 38 682 l 1
EndSplineSet
Position2: "'cpsp' Capital Spacing in Lateinisch lookup 0 subtable" dx=5 dy=0 dh=10 dv=0
EndChar

StartChar: braceleft.cap
Encoding: 65559 -1 288
Width: 357
Flags: MW
HStem: 696 92<319 320>
VStem: 122 106<58 91.5 594.5 631.5>
LayerCount: 2
Fore
SplineSet
235 201 m 0
 235 170 228 119 228 84 c 0
 228 32 243 -4 318 -9 c 1
 318 -101 l 1
 175 -96 122 -47 122 72 c 0
 122 111 129 168 129 193 c 0
 129 244 95 279 19 300 c 1
 19 385 l 1
 96 403 129 435 129 486 c 0
 129 514 122 576 122 613 c 0
 122 739 176 783 319 788 c 1
 320 696 l 1
 245 691 228 658 228 605 c 0
 228 572 235 509 235 480 c 0
 235 398 217 367 126 343 c 1
 217 319 235 282 235 201 c 0
EndSplineSet
Position2: "'cpsp' Capital Spacing in Lateinisch lookup 0 subtable" dx=5 dy=0 dh=10 dv=0
EndChar

StartChar: braceright.cap
Encoding: 65560 -1 289
Width: 358
Flags: MW
HStem: -104 92<37 38> 693 21G<39 39>
VStem: 129 106<52.5 89.5 8 95.5 592.5 626>
LayerCount: 2
Fore
SplineSet
122 483 m 0
 122 514 129 565 129 600 c 0
 129 652 114 688 39 693 c 1
 39 785 l 1
 182 780 235 731 235 612 c 0
 235 573 228 516 228 491 c 0
 228 440 262 405 338 384 c 1
 338 299 l 1
 261 281 228 249 228 198 c 0
 228 170 235 108 235 71 c 0
 235 -55 181 -99 38 -104 c 1
 37 -12 l 1
 112 -7 129 26 129 79 c 0
 129 112 122 175 122 204 c 0
 122 286 140 317 231 341 c 1
 140 365 122 402 122 483 c 0
EndSplineSet
Position2: "'cpsp' Capital Spacing in Lateinisch lookup 0 subtable" dx=5 dy=0 dh=10 dv=0
EndChar

StartChar: grave.cap
Encoding: 65561 -1 290
Width: 254
Flags: MW
HStem: 760 179
VStem: 9 271<836 842>
LayerCount: 2
Fore
SplineSet
44 939 m 1
 280 836 l 1
 252 760 l 1
 9 842 l 1
 44 939 l 1
EndSplineSet
EndChar

StartChar: acute.cap
Encoding: 65562 -1 291
Width: 254
Flags: MW
HStem: 760 179
VStem: 6 271<836 842>
LayerCount: 2
Fore
SplineSet
6 836 m 1
 242 939 l 1
 277 842 l 1
 34 760 l 1
 6 836 l 1
EndSplineSet
EndChar

StartChar: circumflex.cap
Encoding: 65563 -1 292
Width: 476
Flags: MW
HStem: 776 143<37 265 37 265 171 283 171 399>
VStem: 37 362<776 776>
LayerCount: 2
Fore
SplineSet
37 776 m 1
 171 919 l 1
 265 919 l 1
 399 776 l 1
 283 776 l 1
 219 843 l 1
 154 776 l 1
 37 776 l 1
EndSplineSet
EndChar

StartChar: caron.cap
Encoding: 65564 -1 293
Width: 254
Flags: MW
HStem: 776 143<-41 93 -41 187>
VStem: -41 362<919 919>
LayerCount: 2
Fore
SplineSet
93 776 m 1
 -41 919 l 1
 76 919 l 1
 141 853 l 1
 204 919 l 1
 321 919 l 1
 187 776 l 1
 93 776 l 1
EndSplineSet
EndChar

StartChar: tilde.cap
Encoding: 65565 -1 294
Width: 254
Flags: MW
HStem: 777 96<214.5 241 214.5 256> 827 96<52 81.5>
VStem: -35 364<838 861>
LayerCount: 2
Fore
SplineSet
305 917 m 1xa0
 329 838 l 1
 329 838 280 777 232 777 c 0xa0
 182 777 98 827 65 827 c 0
 39 827 -11 783 -11 783 c 1
 -35 861 l 1
 -35 861 16 923 64 923 c 0x60
 120 923 200 873 229 873 c 0
 253 873 305 917 305 917 c 1xa0
EndSplineSet
EndChar

StartChar: dieresis.cap
Encoding: 65566 -1 295
Width: 254
Flags: MW
HStem: 783 114<-33 71 -33 71 176 280 -33 176>
VStem: -33 104<783 897 783 897> 176 104<783 897 783 897>
LayerCount: 2
Fore
SplineSet
-33 783 m 1
 -33 897 l 1
 71 897 l 1
 71 783 l 1
 -33 783 l 1
176 783 m 1
 176 897 l 1
 280 897 l 1
 280 783 l 1
 176 783 l 1
EndSplineSet
EndChar

StartChar: macron.cap
Encoding: 65567 -1 296
Width: 254
Flags: MW
HStem: 795 81<-24 308 -24 308>
VStem: -24 332<795 876 795 876>
LayerCount: 2
Fore
SplineSet
-24 795 m 1
 -24 876 l 1
 308 876 l 1
 308 795 l 1
 -24 795 l 1
EndSplineSet
EndChar

StartChar: breve.cap
Encoding: 65568 -1 297
Width: 254
Flags: MW
HStem: 771 78<126.5 169 126.5 201.5>
VStem: -26 348<914 914>
LayerCount: 2
Fore
SplineSet
-26 914 m 1
 73 914 l 1
 76 876 106 849 147 849 c 0
 191 849 220 876 223 914 c 1
 322 914 l 1
 314 831 256 771 147 771 c 0
 39 771 -19 831 -26 914 c 1
EndSplineSet
EndChar

StartChar: ring.cap
Encoding: 65569 -1 298
Width: 254
Flags: MW
HStem: 630 71<122.5 159.5 122.5 178.5> 794 70<122.5 159.5>
VStem: 5 76<732.5 761.5 732.5 784.5> 202 76<732.5 761.5>
LayerCount: 2
Fore
SplineSet
278 747 m 0
 278 672 216 630 141 630 c 0
 66 630 5 672 5 747 c 0
 5 822 66 864 141 864 c 0
 216 864 278 822 278 747 c 0
81 747 m 0
 81 718 104 701 141 701 c 0
 178 701 202 718 202 747 c 0
 202 776 178 794 141 794 c 0
 104 794 81 776 81 747 c 0
EndSplineSet
EndChar

StartChar: hungarumlaut.cap
Encoding: 65570 -1 299
Width: 254
Flags: MW
HStem: 745 204<69 254>
VStem: -31 393<780 909>
LayerCount: 2
Fore
SplineSet
173 779 m 1
 272 948 l 1
 362 909 l 1
 254 745 l 1
 173 779 l 1
-31 780 m 1
 69 949 l 1
 158 910 l 1
 51 746 l 1
 -31 780 l 1
EndSplineSet
EndChar

StartChar: dotaccent.cap
Encoding: 65571 -1 300
Width: 254
Flags: MW
HStem: 782 114<73 181 73 181>
VStem: 73 108<782 896 782 896>
LayerCount: 2
Fore
SplineSet
73 782 m 1
 73 896 l 1
 181 896 l 1
 181 782 l 1
 73 782 l 1
EndSplineSet
EndChar

StartChar: Aringacute
Encoding: 506 506 301
Width: 599
Flags: MW
HStem: 0 21G<20 131 20 20 468 580 468 468> 147 98<190 409 190 431 168 409> 592 93<275 303 298 303 298 325> 665 20 778 70<279.5 316.5>
VStem: 162 76<717.5 745.5 716.5 768.5> 359 76<718 745.5>
LayerCount: 2
Fore
SplineSet
435 731 m 0xde
 435 705 428 683 415 665 c 1
 580 0 l 1
 468 0 l 1
 431 147 l 1
 168 147 l 1
 131 0 l 1
 20 0 l 1
 183 663 l 1
 170 681 162 704 162 731 c 0
 162 806 223 848 298 848 c 0
 373 848 435 806 435 731 c 0xde
275 592 m 1xee
 190 245 l 1
 409 245 l 1
 325 592 l 1
 275 592 l 1xee
155 933 m 1
 391 1036 l 1
 426 939 l 1
 183 857 l 1
 155 933 l 1
238 731 m 0xde
 238 702 261 685 298 685 c 2
 303 685 l 2
 337 686 359 703 359 731 c 0
 359 760 335 778 298 778 c 0
 261 778 238 760 238 731 c 0xde
EndSplineSet
Position2: "'cpsp' Capital Spacing in Lateinisch lookup 0 subtable" dx=5 dy=0 dh=10 dv=0
EndChar

StartChar: Eng
Encoding: 330 330 302
Width: 686
Flags: MW
HStem: -202 98<404 437.5 404 475> 0 98<417 496 481 496 481 496> 588 97<190 204 190 190>
VStem: 79 111<0 588 0 685 0 685> 496 111<-17 0 0 0 98 685>
LayerCount: 2
Fore
SplineSet
79 0 m 1
 79 685 l 1
 273 685 l 1
 481 98 l 1
 496 98 l 1
 496 685 l 1
 607 685 l 1
 607 -25 l 2
 607 -175 546 -202 404 -202 c 1
 404 -104 l 1
 471 -104 496 -93 496 -17 c 2
 496 0 l 1
 417 0 l 1
 204 588 l 1
 190 588 l 1
 190 0 l 1
 79 0 l 1
EndSplineSet
Position2: "'cpsp' Capital Spacing in Lateinisch lookup 0 subtable" dx=5 dy=0 dh=10 dv=0
EndChar

StartChar: amacron
Encoding: 257 257 303
Width: 507
Flags: MW
HStem: -11 89<183 223.5> 227.5 77 418 93<221.5 279.5> 609 82<109 391 109 391>
VStem: 34 109<128.5 173.5 128.5 201> 109 282<609 691 609 691> 328 108<118 233 233 233 310 346 118 373.5>
LayerCount: 2
Fore
SplineSet
436 346 m 2xfa
 436 118 l 2
 438 88 451 76 480 72 c 1
 477 -11 l 1
 416 -11 381 -3 344 26 c 1
 344 26 264 -11 183 -11 c 0
 84 -11 34 44 34 148 c 0
 34 254 92 290 199 299 c 2
 328 310 l 1
 328 346 l 2
 328 401 304 418 255 418 c 0
 188 418 67 408 67 408 c 1
 63 485 l 1
 63 485 172 511 264 511 c 0
 386 511 436 460 436 346 c 2xfa
328 233 m 1
 212 222 l 2
 166 218 143 196 143 151 c 0
 143 106 162 78 204 78 c 0
 261 78 328 100 328 100 c 1
 328 233 l 1
109 609 m 1xf4
 109 691 l 1
 391 691 l 1
 391 609 l 1
 109 609 l 1xf4
EndSplineSet
EndChar

StartChar: abreve
Encoding: 259 259 304
Width: 508
Flags: MW
HStem: 82 140 304.5 102.5 510 174<232.5 274 232.5 322.5> 588 153<73 309.5>
VStem: 143 185<128.5 172.5>
LayerCount: 2
Fore
SplineSet
436 131 m 2xd8
 436 343 l 2
 436 464 377 510 268 510 c 0
 193 510 66 490 66 490 c 1xe8
 69 397 l 1
 69 397 188 407 262 407 c 0
 302 407 328 384 328 342 c 2
 328 310 l 1
 199 299 l 2
 91 291 34 254 34 148 c 0
 34 49 84 -11 177 -11 c 0
 258 -11 344 25 344 25 c 1
 373 1 400 -11 476 -11 c 1
 479 82 l 1
 450 86 437 96 436 131 c 2xd8
212 218 m 2
 328 226 l 1
 328 104 l 1
 328 104 254 82 197 82 c 0
 162 82 143 106 143 151 c 0
 143 194 166 215 212 218 c 2
73 741 m 1xd8
 185 741 l 1
 189 705 212 684 253 684 c 0
 295 684 317 705 320 741 c 1
 432 741 l 1
 425 652 366 588 253 588 c 0
 140 588 81 652 73 741 c 1xd8
EndSplineSet
EndChar

StartChar: aringacute
Encoding: 507 507 305
Width: 507
Flags: MW
HStem: -11 89<183 223.5> 227.5 77 418 93<221.5 279.5> 530 60<235.5 264 235.5 280> 691 61<235.5 264>
VStem: 34 109<128.5 173.5 128.5 201> 138 62<626.5 655 626.5 672> 299 62<626.5 655> 328 108<118 233 233 233 310 346 118 373.5>
LayerCount: 2
Fore
SplineSet
436 346 m 2xea80
 436 118 l 2
 438 88 451 76 480 72 c 1
 477 -11 l 1
 416 -11 381 -3 344 26 c 1
 344 26 264 -11 183 -11 c 0
 84 -11 34 44 34 148 c 0xec80
 34 254 92 290 199 299 c 2
 328 310 l 1
 328 346 l 2
 328 401 304 418 255 418 c 0
 188 418 67 408 67 408 c 1
 63 485 l 1
 63 485 172 511 264 511 c 0
 386 511 436 460 436 346 c 2xea80
328 233 m 1
 212 222 l 2
 166 218 143 196 143 151 c 0
 143 106 162 78 204 78 c 0
 261 78 328 100 328 100 c 1
 328 233 l 1
138 641 m 0xfb
 138 703 186 752 249 752 c 0
 311 752 361 703 361 641 c 0
 361 577 311 530 249 530 c 0
 186 530 138 577 138 641 c 0xfb
200 641 m 0
 200 612 221 590 250 590 c 0
 278 590 299 612 299 641 c 0
 299 669 278 691 250 691 c 0
 221 691 200 669 200 641 c 0
118 840 m 1
 354 941 l 1
 388 847 l 1
 144 769 l 1
 118 840 l 1
EndSplineSet
EndChar

StartChar: aogonek
Encoding: 261 261 306
Width: 506
Flags: MW
HStem: -212 84<359 430> -11 89<183 223.5> -10 21G 227.5 77 418 93<221.5 279.5>
VStem: 34 109<128.5 173.5 128.5 201> 287 102<-101.5 -83.5> 328 108<118 233 233 233 310 346 118 373.5>
LayerCount: 2
Fore
SplineSet
436 346 m 2xdd
 436 118 l 2
 438 88 451 76 480 72 c 1
 477 -11 l 1xdd
 464 -11 452 -11 441 -10 c 1xde
 423 -28 389 -64 389 -90 c 0
 389 -113 404 -128 425 -128 c 0
 435 -128 470 -123 470 -123 c 1
 480 -202 l 1
 480 -202 427 -212 388 -212 c 0
 330 -212 287 -177 287 -119 c 0
 287 -48 368 10 368 10 c 1xbe
 360 14 352 19 344 26 c 1xde
 344 26 264 -11 183 -11 c 0
 84 -11 34 44 34 148 c 0
 34 254 92 290 199 299 c 2
 328 310 l 1
 328 346 l 2
 328 401 304 418 255 418 c 0
 188 418 67 408 67 408 c 1
 63 485 l 1
 63 485 172 511 264 511 c 0
 386 511 436 460 436 346 c 2xdd
328 233 m 1
 212 222 l 2
 166 218 143 196 143 151 c 0
 143 106 162 78 204 78 c 0
 261 78 328 100 328 100 c 1
 328 233 l 1
EndSplineSet
EndChar

StartChar: aeacute
Encoding: 509 509 307
Width: 793
Flags: MW
HStem: -11 93<179.5 219> -11 99<508.5 578.5> 203 85<436 646 436 746 436 646> 222 83.5 407 103<230.5 282> 414 96<513 579.5>
VStem: 34 109<128.5 173.5 128.5 204> 327 109<203 226> 646 107<288 334>
LayerCount: 2
Fore
SplineSet
550 88 m 0x6780
 629 88 735 97 735 97 c 1
 737 12 l 1
 737 12 622 -11 535 -11 c 0
 466 -11 417 6 384 39 c 1
 357 27 l 2
 332 16 261 -11 177 -11 c 0
 83 -11 34 49 34 148 c 0
 34 260 96 292 211 301 c 2
 328 310 l 1
 328 342 l 2
 328 385 302 407 262 407 c 0
 188 407 70 396 70 396 c 1x5b80
 66 492 l 1
 66 492 193 510 268 510 c 0
 329 510 373 494 400 458 c 1
 434 494 483 510 543 510 c 0
 683 510 753 438 753 282 c 1
 746 203 l 1
 436 203 l 1
 437 125 467 88 550 88 c 0x6780
197 82 m 0x9780
 252 82 331 105 335 107 c 1
 329 142 327 182 327 226 c 1
 212 218 l 2
 167 215 143 196 143 151 c 0
 143 106 162 82 197 82 c 0x9780
436 288 m 1x6780
 646 288 l 1
 646 380 616 414 543 414 c 0
 469 414 436 376 436 288 c 1x6780
271 647 m 1
 507 748 l 1
 541 654 l 1
 297 576 l 1
 271 647 l 1
EndSplineSet
EndChar

StartChar: cacute
Encoding: 263 263 308
Width: 442
Flags: MW
HStem: -11 97<229 276.5> 414 97<230 279.5 178.5 301> 491 20G<178.5 279.5>
VStem: 44 110<193 314.5 193 346.5>
LayerCount: 2
Fore
SplineSet
253 511 m 0xd0
 306 511 403 492 403 492 c 1xb0
 399 406 l 1
 399 406 320 414 282 414 c 0
 178 414 154 372 154 257 c 0
 154 129 175 86 283 86 c 0
 321 86 400 94 400 94 c 1
 403 7 l 1
 403 7 302 -11 251 -11 c 0
 97 -11 44 65 44 257 c 0
 44 436 104 511 253 511 c 0xd0
110 647 m 1
 346 748 l 1
 380 654 l 1
 136 576 l 1
 110 647 l 1
EndSplineSet
EndChar

StartChar: ccircumflex
Encoding: 265 265 309
Width: 442
Flags: MW
HStem: -11 97<229 276.5> 414 97<230 279.5 178.5 301> 491 20G<178.5 279.5> 585 146<66 260 66 260 191 285 191 387> 661 21G<227 227> 661 70<227 227>
VStem: 44 110<193 314.5 193 346.5>
LayerCount: 2
Fore
SplineSet
253 511 m 0xca
 306 511 403 492 403 492 c 1xaa
 399 406 l 1
 399 406 320 414 282 414 c 0
 178 414 154 372 154 257 c 0
 154 129 175 86 283 86 c 0
 321 86 400 94 400 94 c 1
 403 7 l 1
 403 7 302 -11 251 -11 c 0
 97 -11 44 65 44 257 c 0
 44 436 104 511 253 511 c 0xca
66 585 m 1xd2
 191 731 l 1
 260 731 l 1xc6
 387 585 l 1
 285 585 l 1xd2
 227 661 l 1xca
 169 585 l 1
 66 585 l 1xd2
EndSplineSet
EndChar

StartChar: ccaron
Encoding: 269 269 310
Width: 442
Flags: MW
HStem: -11 97<229 276.5> 414 97<230 279.5 178.5 301> 491 20G<178.5 279.5> 585 146<80 205 80 274>
VStem: 44 110<193 314.5 193 346.5>
LayerCount: 2
Fore
SplineSet
253 511 m 0xd8
 306 511 403 492 403 492 c 1xb8
 399 406 l 1
 399 406 320 414 282 414 c 0
 178 414 154 372 154 257 c 0
 154 129 175 86 283 86 c 0
 321 86 400 94 400 94 c 1
 403 7 l 1
 403 7 302 -11 251 -11 c 0
 97 -11 44 65 44 257 c 0
 44 436 104 511 253 511 c 0xd8
205 585 m 1
 80 731 l 1
 182 731 l 1
 241 656 l 1
 299 731 l 1
 401 731 l 1
 274 585 l 1
 205 585 l 1
EndSplineSet
EndChar

StartChar: cdotaccent
Encoding: 267 267 311
Width: 442
Flags: MW
HStem: -11 97<229 276.5> 414 97<230 279.5 178.5 301> 491 20G<178.5 279.5> 579 114<200 308 200 308>
VStem: 44 110<193 314.5 193 346.5> 200 108<579 693 579 693>
LayerCount: 2
Fore
SplineSet
253 511 m 0xdc
 306 511 403 492 403 492 c 1xbc
 399 406 l 1
 399 406 320 414 282 414 c 0
 178 414 154 372 154 257 c 0
 154 129 175 86 283 86 c 0
 321 86 400 94 400 94 c 1
 403 7 l 1
 403 7 302 -11 251 -11 c 0
 97 -11 44 65 44 257 c 0
 44 436 104 511 253 511 c 0xdc
200 579 m 1
 200 693 l 1
 308 693 l 1
 308 579 l 1
 200 579 l 1
EndSplineSet
EndChar

StartChar: dcaron
Encoding: 271 271 312
Width: 625
Flags: MW
HStem: -11 97<218.5 262.5> 0 86 417 94<222 271 179.5 280> 680 28 688 20G<365 474 474 474>
VStem: 43 110<185 306 185 339.5> 365 109<111 407 407 407 498 708 0 708>
LayerCount: 2
Fore
SplineSet
576 680 m 1xb6
 533 458 l 1
 629 458 l 1
 682 680 l 1
 576 680 l 1xb6
474 708 m 1
 474 0 l 1
 366 0 l 1x6e
 366 26 l 1
 366 26 293 -11 232 -11 c 0
 104 -11 43 56 43 249 c 0
 43 430 108 511 251 511 c 0
 291 511 359 499 365 498 c 1
 365 708 l 1
 474 708 l 1
249 86 m 0xae
 306 86 365 111 365 111 c 1
 365 407 l 1
 359 408 301 417 259 417 c 0
 185 417 153 363 153 249 c 0
 153 121 188 86 249 86 c 0xae
EndSplineSet
EndChar

StartChar: dcroat
Encoding: 273 273 313
Width: 540
Flags: MW
HStem: -11 97<218.5 262.5> 0 86 417 94<222 271 179.5 280> 622 94<155 466 155 365> 688 20G<466 474 474 474>
VStem: 43 110<185 306 185 339.5> 365 109<111 407 407 407 498 622 622 622>
LayerCount: 2
Fore
SplineSet
155 622 m 1xb6
 155 716 l 1xb6
 466 716 l 1
 466 708 l 1
 474 708 l 1
 474 0 l 1
 366 0 l 1x6e
 366 26 l 1
 366 26 293 -11 232 -11 c 0
 104 -11 43 56 43 249 c 0
 43 430 108 511 251 511 c 0
 291 511 359 499 365 498 c 1
 365 622 l 1
 155 622 l 1xb6
249 86 m 0
 306 86 365 111 365 111 c 1
 365 407 l 1
 359 408 301 417 259 417 c 0
 185 417 153 363 153 249 c 0
 153 121 188 86 249 86 c 0
EndSplineSet
EndChar

StartChar: ecaron
Encoding: 283 283 314
Width: 508
Flags: MW
HStem: -11 95<224.5 294> 204 84<152 362 151 462 152 152> 421 90<222 295.5> 585 146<93 218 93 287>
VStem: 42 109<288 288 288 336.5> 362 107<288 338>
LayerCount: 2
Fore
SplineSet
266 84 m 0
 345 84 450 93 450 93 c 1
 452 12 l 1
 452 12 338 -11 250 -11 c 0
 100 -11 42 69 42 245 c 0
 42 428 121 511 259 511 c 0
 399 511 469 438 469 282 c 1
 462 204 l 1
 152 204 l 1
 153 124 183 84 266 84 c 0
151 288 m 1
 362 288 l 1
 362 388 332 421 259 421 c 0
 185 421 152 384 151 288 c 1
218 585 m 1
 93 731 l 1
 195 731 l 1
 254 656 l 1
 312 731 l 1
 414 731 l 1
 287 585 l 1
 218 585 l 1
EndSplineSet
EndChar

StartChar: emacron
Encoding: 275 275 315
Width: 508
Flags: MW
HStem: -11 95<224.5 294> 204 84<152 362 151 462 152 152> 421 90<222 295.5> 609 82<117 399 117 399>
VStem: 42 109<288 288 288 336.5> 117 282<609 691 609 691> 362 107<288 338>
LayerCount: 2
Fore
SplineSet
266 84 m 0xfa
 345 84 450 93 450 93 c 1
 452 12 l 1
 452 12 338 -11 250 -11 c 0
 100 -11 42 69 42 245 c 0
 42 428 121 511 259 511 c 0
 399 511 469 438 469 282 c 1
 462 204 l 1
 152 204 l 1
 153 124 183 84 266 84 c 0xfa
151 288 m 1
 362 288 l 1
 362 388 332 421 259 421 c 0
 185 421 152 384 151 288 c 1
117 609 m 1xf4
 117 691 l 1
 399 691 l 1
 399 609 l 1
 117 609 l 1xf4
EndSplineSet
EndChar

StartChar: ebreve
Encoding: 277 277 316
Width: 508
Flags: MW
HStem: -11 95<224.5 294> 204 84<152 362 151 462 152 152> 421 90<222 295.5> 579 75<236 280.5 236 305.5>
VStem: 42 109<288 288 288 336.5> 100 84<728 728> 331 84<728 728> 362 107<288 338>
LayerCount: 2
Fore
SplineSet
266 84 m 0xf9
 345 84 450 93 450 93 c 1
 452 12 l 1
 452 12 338 -11 250 -11 c 0
 100 -11 42 69 42 245 c 0
 42 428 121 511 259 511 c 0
 399 511 469 438 469 282 c 1
 462 204 l 1
 152 204 l 1
 153 124 183 84 266 84 c 0xf9
151 288 m 1
 362 288 l 1
 362 388 332 421 259 421 c 0
 185 421 152 384 151 288 c 1
100 728 m 1xf6
 184 728 l 1
 188 684 214 654 258 654 c 0
 303 654 328 685 331 728 c 1
 415 728 l 1
 407 650 353 579 258 579 c 0
 162 579 108 650 100 728 c 1xf6
EndSplineSet
EndChar

StartChar: edotaccent
Encoding: 279 279 317
Width: 508
Flags: MW
HStem: -11 95<224.5 294> 204 84<152 362 151 462 152 152> 421 90<222 295.5> 579 114<201 309 201 309>
VStem: 42 109<288 288 288 336.5> 201 108<579 693 579 693> 362 107<288 338>
LayerCount: 2
Fore
SplineSet
266 84 m 0
 345 84 450 93 450 93 c 1
 452 12 l 1
 452 12 338 -11 250 -11 c 0
 100 -11 42 69 42 245 c 0
 42 428 121 511 259 511 c 0
 399 511 469 438 469 282 c 1
 462 204 l 1
 152 204 l 1
 153 124 183 84 266 84 c 0
151 288 m 1
 362 288 l 1
 362 388 332 421 259 421 c 0
 185 421 152 384 151 288 c 1
201 579 m 1
 201 693 l 1
 309 693 l 1
 309 579 l 1
 201 579 l 1
EndSplineSet
EndChar

StartChar: eogonek
Encoding: 281 281 318
Width: 509
Flags: MW
HStem: -212 84<316 387> -11 95<224.5 258.5> 204 84<152 362 151 462 152 152> 421 90<222 295.5>
VStem: 42 109<288 288 288 336.5> 244 102<-101.5 -95.5> 362 107<288 338> 410 41
LayerCount: 2
Fore
SplineSet
410 1 m 1x7d
 410 1 346 -56 346 -90 c 0
 346 -113 361 -128 382 -128 c 0
 392 -128 427 -123 427 -123 c 1
 437 -202 l 1
 437 -202 384 -212 345 -212 c 0
 287 -212 244 -177 244 -119 c 0
 244 -72 279 -31 303 -8 c 1xfe
 284 -10 267 -11 250 -11 c 0
 100 -11 42 69 42 245 c 0
 42 428 121 511 259 511 c 0
 399 511 469 438 469 282 c 1
 462 204 l 1x7a
 152 204 l 1
 153 124 183 84 266 84 c 0
 345 84 450 93 450 93 c 1
 452 12 l 1
 452 12 428 7 397 2 c 1
 410 1 l 1x7d
151 288 m 1
 362 288 l 1
 362 388 332 421 259 421 c 0x7a
 185 421 152 384 151 288 c 1
EndSplineSet
EndChar

StartChar: gcircumflex
Encoding: 285 285 319
Width: 525
Flags: MW
HStem: -232 89<227.5 313.5 227.5 339> -7 88 163 84<241 282.5 217 312.5> 415.5 85.5 425 85<217 272 191.5 282.5> 585 146<107 301 107 301 232 326 232 428> 661 21G<268 268> 661 70<268 268>
VStem: 42 107<-101 -62.5 -101 -62.5> 49 108<305.5 366 305.5 399> 85 103<104 117.5> 342 108<305.5 355.5 268 366> 394 109<-98.5 -47>
LayerCount: 2
Fore
SplineSet
272 -232 m 0xf288
 121 -232 42 -202 42 -88 c 0xf288
 42 -37 67 -6 118 33 c 1
 97 47 85 75 85 106 c 0xf228
 85 129 121 186 121 186 c 1
 84 208 49 246 49 336 c 0
 49 462 134 510 249 510 c 0xea50
 295 510 351 497 351 497 c 1
 506 501 l 1
 506 413 l 1
 423 418 l 1
 436 401 450 375 450 336 c 0
 450 200 379 163 246 163 c 0
 236 163 211 165 202 167 c 1
 202 167 188 133 188 120 c 0xf230
 188 88 199 82 296 81 c 0
 454 80 503 47 503 -68 c 0
 503 -186 406 -232 272 -232 c 0xf288
287 -13 m 0
 256 -13 189 -7 189 -7 c 1
 161 -30 149 -47 149 -78 c 0
 149 -124 182 -143 273 -143 c 0
 354 -143 394 -123 394 -74 c 0
 394 -20 368 -14 287 -13 c 0
249 247 m 0xec50
 316 247 342 275 342 336 c 0
 342 396 316 425 249 425 c 0
 185 425 157 396 157 336 c 0
 157 275 185 247 249 247 c 0xec50
107 585 m 1
 232 731 l 1
 301 731 l 1xf148
 428 585 l 1
 326 585 l 1xf448
 268 661 l 1xf248
 210 585 l 1
 107 585 l 1
EndSplineSet
EndChar

StartChar: gbreve
Encoding: 287 287 320
Width: 525
Flags: MW
HStem: -232 89<227.5 313.5 227.5 339> -7 88 163 84<241 282.5 217 312.5> 415.5 85.5 425 85<217 272 191.5 282.5> 579 75<245 289.5 245 314.5>
VStem: 42 107<-101 -62.5 -101 -62.5> 49 108<305.5 366 305.5 399> 85 103<104 117.5> 109 84<728 728> 340 84<728 728> 342 108<305.5 355.5 268 366> 394 109<-98.5 -47>
LayerCount: 2
Fore
SplineSet
272 -232 m 0xf608
 121 -232 42 -202 42 -88 c 0xf608
 42 -37 67 -6 118 33 c 1
 97 47 85 75 85 106 c 0xf488
 85 129 121 186 121 186 c 1
 84 208 49 246 49 336 c 0
 49 462 134 510 249 510 c 0xed10
 295 510 351 497 351 497 c 1
 506 501 l 1
 506 413 l 1
 423 418 l 1
 436 401 450 375 450 336 c 0
 450 200 379 163 246 163 c 0
 236 163 211 165 202 167 c 1
 202 167 188 133 188 120 c 0xf490
 188 88 199 82 296 81 c 0
 454 80 503 47 503 -68 c 0
 503 -186 406 -232 272 -232 c 0xf608
287 -13 m 0
 256 -13 189 -7 189 -7 c 1
 161 -30 149 -47 149 -78 c 0
 149 -124 182 -143 273 -143 c 0
 354 -143 394 -123 394 -74 c 0
 394 -20 368 -14 287 -13 c 0
249 247 m 0xed10
 316 247 342 275 342 336 c 0
 342 396 316 425 249 425 c 0
 185 425 157 396 157 336 c 0
 157 275 185 247 249 247 c 0xed10
109 728 m 1xf460
 193 728 l 1
 197 684 223 654 267 654 c 0
 312 654 337 685 340 728 c 1
 424 728 l 1
 416 650 362 579 267 579 c 0
 171 579 117 650 109 728 c 1xf460
EndSplineSet
EndChar

StartChar: gdotaccent
Encoding: 289 289 321
Width: 525
Flags: MW
HStem: -232 89<227.5 313.5 227.5 339> -7 88 163 84<241 282.5 217 312.5> 415.5 85.5 425 85<217 272 191.5 282.5> 579 114<212 320 212 320>
VStem: 42 107<-101 -62.5 -101 -62.5> 49 108<305.5 366 305.5 399> 85 103<104 117.5> 212 108<579 693 579 693> 342 108<305.5 355.5 268 366> 394 109<-98.5 -47>
LayerCount: 2
Fore
SplineSet
272 -232 m 0xf650
 121 -232 42 -202 42 -88 c 0xf650
 42 -37 67 -6 118 33 c 1
 97 47 85 75 85 106 c 0xf4d0
 85 129 121 186 121 186 c 1
 84 208 49 246 49 336 c 0
 49 462 134 510 249 510 c 0xed60
 295 510 351 497 351 497 c 1
 506 501 l 1
 506 413 l 1
 423 418 l 1
 436 401 450 375 450 336 c 0
 450 200 379 163 246 163 c 0
 236 163 211 165 202 167 c 1
 202 167 188 133 188 120 c 0xf4e0
 188 88 199 82 296 81 c 0
 454 80 503 47 503 -68 c 0
 503 -186 406 -232 272 -232 c 0xf650
287 -13 m 0
 256 -13 189 -7 189 -7 c 1
 161 -30 149 -47 149 -78 c 0
 149 -124 182 -143 273 -143 c 0
 354 -143 394 -123 394 -74 c 0
 394 -20 368 -14 287 -13 c 0
249 247 m 0xed60
 316 247 342 275 342 336 c 0
 342 396 316 425 249 425 c 0
 185 425 157 396 157 336 c 0
 157 275 185 247 249 247 c 0xed60
212 579 m 1xf550
 212 693 l 1
 320 693 l 1
 320 579 l 1
 212 579 l 1xf550
EndSplineSet
EndChar

StartChar: gcommaaccent
Encoding: 291 291 322
Width: 525
Flags: MW
HStem: -232 89<227.5 313.5 227.5 339> -7 88 163 84<241 282.5 217 312.5> 415.5 85.5 425 85<217 272 191.5 282.5> 586 222<232 285 180 329>
VStem: 42 107<-101 -62.5 -101 -62.5> 49 108<305.5 366 305.5 399> 85 103<104 117.5> 342 108<305.5 355.5 268 366> 394 109<-98.5 -47>
LayerCount: 2
Fore
SplineSet
329 808 m 1xf520
 285 586 l 1
 180 586 l 1
 232 808 l 1
 329 808 l 1xf520
272 -232 m 0xf620
 121 -232 42 -202 42 -88 c 0xf620
 42 -37 67 -6 118 33 c 1
 97 47 85 75 85 106 c 0xf4a0
 85 129 121 186 121 186 c 1
 84 208 49 246 49 336 c 0
 49 462 134 510 249 510 c 0xed40
 295 510 351 497 351 497 c 1
 506 501 l 1
 506 413 l 1
 423 418 l 1
 436 401 450 375 450 336 c 0
 450 200 379 163 246 163 c 0
 236 163 211 165 202 167 c 1
 202 167 188 133 188 120 c 0xf4c0
 188 88 199 82 296 81 c 0
 454 80 503 47 503 -68 c 0
 503 -186 406 -232 272 -232 c 0xf620
287 -13 m 0
 256 -13 189 -7 189 -7 c 1
 161 -30 149 -47 149 -78 c 0
 149 -124 182 -143 273 -143 c 0
 354 -143 394 -123 394 -74 c 0
 394 -20 368 -14 287 -13 c 0
249 247 m 0xed40
 316 247 342 275 342 336 c 0
 342 396 316 425 249 425 c 0
 185 425 157 396 157 336 c 0
 157 275 185 247 249 247 c 0xed40
EndSplineSet
EndChar

StartChar: hcircumflex
Encoding: 293 293 323
Width: 546
Flags: MW
HStem: 0 21G<66 175 66 66 376 376 376 485> 414 97<280.5 325.5> 688 20G<66 175 175 175> 760 146<112 306 112 306 237 331 237 433>
VStem: 66 109<0 392 474 708> 376 109<0 265 265 268 0 315>
LayerCount: 2
Fore
SplineSet
175 0 m 1
 66 0 l 1
 66 708 l 1
 175 708 l 1
 175 474 l 1
 175 474 249 511 312 511 c 0
 451 511 485 432 485 268 c 2
 485 0 l 1
 376 0 l 1
 376 265 l 2
 376 365 364 414 287 414 c 0
 232 414 175 392 175 392 c 1
 175 0 l 1
112 760 m 1
 237 906 l 1
 306 906 l 1
 433 760 l 1
 331 760 l 1
 273 836 l 1
 215 760 l 1
 112 760 l 1
EndSplineSet
EndChar

StartChar: hbar
Encoding: 295 295 324
Width: 546
Flags: MW
HStem: 0 21G<66 175 66 66 376 485 376 376> 414 97<280.5 325.5> 553 94<11 66 11 66 175 322> 553 155<11 175 11 175 66 175 66 322>
VStem: 66 109<0 392 474 553 647 708> 376 109<0 265 265 268 0 315>
LayerCount: 2
Fore
SplineSet
11 553 m 1xdc
 11 647 l 1
 66 647 l 1xec
 66 708 l 1
 175 708 l 1xdc
 175 647 l 1
 322 647 l 1xec
 322 553 l 1
 175 553 l 1
 175 474 l 1
 175 474 249 511 312 511 c 0
 451 511 485 432 485 268 c 2
 485 0 l 1
 376 0 l 1
 376 265 l 2
 376 365 364 414 287 414 c 0
 232 414 175 392 175 392 c 1
 175 0 l 1
 66 0 l 1
 66 553 l 1
 11 553 l 1xdc
EndSplineSet
EndChar

StartChar: itilde
Encoding: 297 297 325
Width: 241
Flags: MW
HStem: 597 85<173.5 200 173.5 214> 637 85<44 73.5> 666 21G<-42 -42> 698 20G<263 263>
VStem: -42 329<654 666>
LayerCount: 2
Fore
SplineSet
66 500 m 1x38
 66 0 l 1
 175 0 l 1
 175 500 l 1
 66 500 l 1x38
263 718 m 1
 287 654 l 1
 287 654 237 597 191 597 c 0x98
 149 597 90 637 57 637 c 0
 31 637 -18 603 -18 603 c 1x48
 -42 666 l 1x38
 -42 666 9 722 56 722 c 0x48
 97 722 159 682 188 682 c 0x98
 212 682 263 718 263 718 c 1
EndSplineSet
EndChar

StartChar: imacron
Encoding: 299 299 326
Width: 241
Flags: MW
HStem: 609 82<-20 262 -20 262>
VStem: -20 86 175 87
LayerCount: 2
Fore
SplineSet
66 500 m 1
 66 0 l 1
 175 0 l 1
 175 500 l 1
 66 500 l 1
-20 609 m 1
 -20 691 l 1
 262 691 l 1
 262 609 l 1
 -20 609 l 1
EndSplineSet
EndChar

StartChar: ibreve
Encoding: 301 301 327
Width: 241
Flags: MW
HStem: 579 75<99 143.5 99 168.5>
VStem: -37 84<728 728> 194 84<728 728>
LayerCount: 2
Fore
SplineSet
66 500 m 1
 66 0 l 1
 175 0 l 1
 175 500 l 1
 66 500 l 1
-37 728 m 1
 47 728 l 1
 51 684 77 654 121 654 c 0
 166 654 191 685 194 728 c 1
 278 728 l 1
 270 650 216 579 121 579 c 0
 25 579 -29 650 -37 728 c 1
EndSplineSet
EndChar

StartChar: iogonek
Encoding: 303 303 328
Width: 241
Flags: MW
HStem: -212 84<74.5 145> 0 21G<66 66 66 75 175 175> 480 20G<66 175 175 175> 585 115<66 175 66 175>
VStem: 66 109<0 500 0 500 585 700>
LayerCount: 2
Fore
SplineSet
66 0 m 1
 66 500 l 1
 175 500 l 1
 175 0 l 1
 175 0 104 -54 104 -90 c 0
 104 -113 119 -128 140 -128 c 0
 150 -128 186 -123 186 -123 c 1
 195 -202 l 1
 195 -202 142 -212 103 -212 c 0
 46 -212 2 -177 2 -119 c 0
 2 -66 51 -19 75 0 c 1
 66 0 l 1
66 585 m 1
 66 700 l 1
 175 700 l 1
 175 585 l 1
 66 585 l 1
EndSplineSet
EndChar

StartChar: jcircumflex
Encoding: 309 309 329
Width: 242
Flags: MW
HStem: -227 21G<2 2> 480 20G<67 175 175 175> 585 146<-39 155 -39 155 86 180 86 282> 661 21G<122 122> 661 70<122 122>
VStem: 67 108<19 500>
LayerCount: 2
Fore
SplineSet
67 19 m 2xd4
 67 500 l 1
 175 500 l 1
 175 18 l 2
 175 -114 139 -158 2 -227 c 1
 -41 -146 l 1
 50 -89 67 -69 67 19 c 2xd4
-39 585 m 1xe4
 86 731 l 1
 155 731 l 1xcc
 282 585 l 1
 180 585 l 1xe4
 122 661 l 1xd4
 64 585 l 1
 -39 585 l 1xe4
EndSplineSet
EndChar

StartChar: kcommaaccent
Encoding: 311 311 330
Width: 499
Flags: MW
HStem: -300 223<38 187 81 134> 0 21G<66 175 66 66 362 362 362 485> 207.5 94.5 480 20G<355 477 477 477> 688 20G<66 175 175 175>
VStem: 66 109<0 204 299 708>
LayerCount: 2
Fore
SplineSet
38 -300 m 1
 81 -77 l 1
 187 -77 l 1
 134 -300 l 1
 38 -300 l 1
175 0 m 1
 66 0 l 1
 66 708 l 1
 175 708 l 1
 175 299 l 1
 237 305 l 1
 355 500 l 1
 477 500 l 1
 333 266 l 1
 485 0 l 1
 362 0 l 1
 240 211 l 1
 175 204 l 1
 175 0 l 1
EndSplineSet
EndChar

StartChar: lacute
Encoding: 314 314 331
Width: 253
Flags: MW
HStem: 0 21G<72 72 72 181> 688 20G<72 181 181 181>
VStem: 72 109<0 708 0 708 0 783>
LayerCount: 2
Fore
SplineSet
72 0 m 1
 72 708 l 1
 181 708 l 1
 181 0 l 1
 72 0 l 1
46 854 m 1
 282 955 l 1
 316 861 l 1
 72 783 l 1
 46 854 l 1
EndSplineSet
EndChar

StartChar: lcaron
Encoding: 318 318 332
Width: 331
Flags: MW
HStem: 0 21G<72 72 72 181> 680 28
VStem: 72 109<0 708 0 708>
LayerCount: 2
Fore
SplineSet
282 680 m 1
 239 458 l 1
 335 458 l 1
 388 680 l 1
 282 680 l 1
72 0 m 1
 72 708 l 1
 181 708 l 1
 181 0 l 1
 72 0 l 1
EndSplineSet
EndChar

StartChar: lcommaaccent
Encoding: 316 316 333
Width: 253
Flags: MW
HStem: 0 21G<72 72 72 181> 688 20G<72 181 181 181>
VStem: 72 109<0 708 0 708>
LayerCount: 2
Fore
SplineSet
72 0 m 1
 72 708 l 1
 181 708 l 1
 181 0 l 1
 72 0 l 1
69 -77 m 1
 25 -300 l 1
 122 -300 l 1
 175 -77 l 1
 69 -77 l 1
EndSplineSet
EndChar

StartChar: nacute
Encoding: 324 324 334
Width: 546
Flags: MW
HStem: 0 748<66 388 175 388 388 388 388 485 388 485>
VStem: 175 202<0 265 0 388 0 388>
LayerCount: 2
Fore
SplineSet
66 0 m 1
 175 0 l 1
 175 388 l 1
 175 388 230 414 288 414 c 0
 364 414 377 365 377 265 c 2
 377 0 l 1
 485 0 l 1
 485 268 l 2
 485 432 451 511 312 511 c 0
 247 511 174 469 174 469 c 1
 174 500 l 1
 66 500 l 1
 66 0 l 1
152 647 m 1
 388 748 l 1
 422 654 l 1
 178 576 l 1
 152 647 l 1
EndSplineSet
EndChar

StartChar: ncaron
Encoding: 328 328 335
Width: 546
Flags: MW
HStem: 0 21G<66 175 66 66 377 377 377 485> 414 97<279.5 326> 469 31<66 174> 585 146<111 236 111 305>
VStem: 66 109<0 388> 377 108<0 265 265 268 0 315>
LayerCount: 2
Fore
SplineSet
175 0 m 1xdc
 66 0 l 1
 66 500 l 1
 174 500 l 1
 174 469 l 1xbc
 174 469 247 511 312 511 c 0
 451 511 485 432 485 268 c 2
 485 0 l 1
 377 0 l 1
 377 265 l 2
 377 365 364 414 288 414 c 0
 230 414 175 388 175 388 c 1
 175 0 l 1xdc
236 585 m 1
 111 731 l 1
 213 731 l 1
 272 656 l 1
 330 731 l 1
 432 731 l 1
 305 585 l 1
 236 585 l 1
EndSplineSet
EndChar

StartChar: ncommaaccent
Encoding: 326 326 336
Width: 546
Flags: MW
HStem: -300 223<50 199 93 146> 0 21G<66 175 66 66 377 377 377 485> 414 97<279.5 326> 469 31<66 174>
VStem: 66 109<0 388> 377 108<0 265 265 268 0 315>
LayerCount: 2
Fore
SplineSet
50 -300 m 1xec
 93 -77 l 1
 199 -77 l 1
 146 -300 l 1
 50 -300 l 1xec
175 0 m 1
 66 0 l 1
 66 500 l 1
 174 500 l 1
 174 469 l 1xdc
 174 469 247 511 312 511 c 0
 451 511 485 432 485 268 c 2
 485 0 l 1
 377 0 l 1
 377 265 l 2
 377 365 364 414 288 414 c 0
 230 414 175 388 175 388 c 1
 175 0 l 1
EndSplineSet
EndChar

StartChar: omacron
Encoding: 333 333 337
Width: 530
Flags: MW
HStem: 614 82<127 409 127 409>
VStem: 127 282<614 696 614 696> 152 226<195 311>
LayerCount: 2
Fore
SplineSet
265 511 m 0xa0
 98 511 42 415 42 253 c 0
 42 87 94 -11 265 -11 c 0
 437 -11 488 87 488 253 c 0
 488 415 432 511 265 511 c 0xa0
265 81 m 0
 172 81 152 137 152 253 c 0
 152 369 177 419 265 419 c 0
 353 419 378 369 378 253 c 0
 378 137 358 81 265 81 c 0
127 614 m 1xc0
 127 696 l 1
 409 696 l 1
 409 614 l 1
 127 614 l 1xc0
EndSplineSet
EndChar

StartChar: obreve
Encoding: 335 335 338
Width: 530
Flags: MW
HStem: 579 75<246 290.5 246 315.5>
VStem: 110 84<728 728> 152 226<195 311> 341 84<728 728>
LayerCount: 2
Fore
SplineSet
265 511 m 0xa0
 98 511 42 415 42 253 c 0
 42 87 94 -11 265 -11 c 0
 437 -11 488 87 488 253 c 0
 488 415 432 511 265 511 c 0xa0
265 81 m 0
 172 81 152 137 152 253 c 0
 152 369 177 419 265 419 c 0
 353 419 378 369 378 253 c 0
 378 137 358 81 265 81 c 0
110 728 m 1xd0
 194 728 l 1
 198 684 224 654 268 654 c 0
 313 654 338 685 341 728 c 1
 425 728 l 1
 417 650 363 579 268 579 c 0
 172 579 118 650 110 728 c 1xd0
EndSplineSet
EndChar

StartChar: ohungarumlaut
Encoding: 337 337 339
Width: 530
Flags: MW
HStem: -11 805<179.5 399>
VStem: 152 226<195 311>
LayerCount: 2
Fore
SplineSet
265 511 m 0
 98 511 42 415 42 253 c 0
 42 87 94 -11 265 -11 c 0
 437 -11 488 87 488 253 c 0
 488 415 432 511 265 511 c 0
265 81 m 0
 172 81 152 137 152 253 c 0
 152 369 177 419 265 419 c 0
 353 419 378 369 378 253 c 0
 378 137 358 81 265 81 c 0
270 626 m 1
 399 794 l 1
 484 737 l 1
 349 571 l 1
 270 626 l 1
71 626 m 1
 200 793 l 1
 285 737 l 1
 150 571 l 1
 71 626 l 1
EndSplineSet
EndChar

StartChar: racute
Encoding: 341 341 340
Width: 361
Flags: MW
HStem: 0 21G<66 66 66 175> 440 60<66 174> 491 20G<344 344>
VStem: 66 109<0 349 0 500>
LayerCount: 2
Fore
SplineSet
66 0 m 1xb0
 66 500 l 1
 174 500 l 1
 174 440 l 1xd0
 174 440 259 495 344 511 c 1
 344 402 l 1
 253 384 175 349 175 349 c 1
 175 0 l 1
 66 0 l 1xb0
56 647 m 1
 292 748 l 1
 326 654 l 1
 82 576 l 1
 56 647 l 1
EndSplineSet
EndChar

StartChar: rcommaaccent
Encoding: 343 343 341
Width: 361
Flags: MW
HStem: 0 21G<66 66 66 175> 440 60<66 174> 491 20G<344 344>
VStem: 66 109<-77 349 0 349 0 500>
LayerCount: 2
Fore
SplineSet
66 -77 m 1xb0
 23 -300 l 1
 120 -300 l 1
 172 -77 l 1
 66 -77 l 1xb0
66 0 m 1
 66 500 l 1
 174 500 l 1
 174 440 l 1xd0
 174 440 259 495 344 511 c 1
 344 402 l 1
 253 384 175 349 175 349 c 1
 175 0 l 1
 66 0 l 1
EndSplineSet
EndChar

StartChar: rcaron
Encoding: 345 345 342
Width: 361
Flags: MW
HStem: 0 21G<66 66 66 175> 440 60<66 174> 491 20G<344 344> 585 146<14 139 14 208>
VStem: 66 109<0 349 0 500>
LayerCount: 2
Fore
SplineSet
66 0 m 1xb8
 66 500 l 1
 174 500 l 1
 174 440 l 1xd8
 174 440 259 495 344 511 c 1
 344 402 l 1
 253 384 175 349 175 349 c 1
 175 0 l 1
 66 0 l 1xb8
139 585 m 1
 14 731 l 1
 116 731 l 1
 175 656 l 1
 233 731 l 1
 335 731 l 1
 208 585 l 1
 139 585 l 1
EndSplineSet
EndChar

StartChar: sacute
Encoding: 347 347 343
Width: 469
Flags: MW
HStem: -11 21G<197.5 294> -11 97<197.5 258 196.5 294> 413 97<205 263.5 177.5 265> 490 20G<177.5 263.5>
VStem: 40 108<341.5 378.5 341.5 411.5> 322 108<123 162.5>
LayerCount: 2
Fore
SplineSet
415 488 m 1x5c
 413 397 l 1
 413 397 295 413 235 413 c 0
 175 413 148 399 148 358 c 0
 148 325 169 316 267 299 c 0
 387 278 430 248 430 148 c 0
 430 31 356 -11 232 -11 c 0x6c
 163 -11 47 11 47 11 c 1xac
 51 102 l 1
 51 102 171 86 222 86 c 0
 294 86 322 101 322 145 c 0
 322 180 305 191 206 207 c 0
 96 225 40 249 40 355 c 0
 40 468 128 510 227 510 c 0x6c
 300 510 415 488 415 488 c 1x5c
101 647 m 1
 337 748 l 1
 371 654 l 1
 127 576 l 1
 101 647 l 1
EndSplineSet
EndChar

StartChar: scircumflex
Encoding: 349 349 344
Width: 469
Flags: MW
HStem: -11 21G<197.5 294> -11 97<197.5 258 196.5 294> 413 97<205 263.5 177.5 265> 490 20G<177.5 263.5> 585 146<75 269 75 269 200 294 200 396> 661 21G<236 236> 661 70<236 236>
VStem: 40 108<341.5 378.5 341.5 411.5> 322 108<123 162.5>
LayerCount: 2
Fore
SplineSet
415 488 m 1x5580
 413 397 l 1
 413 397 295 413 235 413 c 0
 175 413 148 399 148 358 c 0
 148 325 169 316 267 299 c 0
 387 278 430 248 430 148 c 0
 430 31 356 -11 232 -11 c 0x6980
 163 -11 47 11 47 11 c 1xa580
 51 102 l 1
 51 102 171 86 222 86 c 0
 294 86 322 101 322 145 c 0
 322 180 305 191 206 207 c 0
 96 225 40 249 40 355 c 0
 40 468 128 510 227 510 c 0x6580
 300 510 415 488 415 488 c 1x5580
75 585 m 1
 200 731 l 1
 269 731 l 1x6380
 396 585 l 1
 294 585 l 1x6980
 236 661 l 1x6580
 178 585 l 1
 75 585 l 1
EndSplineSet
EndChar

StartChar: scedilla
Encoding: 351 351 345
Width: 469
Flags: MW
HStem: -231 73<244.5 249 224.5 297.5> -221 21G<176 176> -100 58<204 251 204 251> -10 21G -10 96<204 204 251 251> 413 97<205 263.5 177.5 265> 490 20G<177.5 263.5>
VStem: 40 108<341.5 378.5 341.5 411.5> 204 47<-42 -10 -42 -10 -42 -10> 276 94<-138 -116.5> 322 108<123 162.5>
LayerCount: 2
Fore
SplineSet
370 -127 m 0xb5c0
 370 -199 329 -231 266 -231 c 0xb5a0
 223 -231 176 -221 176 -221 c 1x75a0
 180 -156 l 1
 180 -156 214 -158 235 -158 c 0
 263 -158 276 -149 276 -127 c 0
 276 -106 263 -100 235 -100 c 2xb5c0
 204 -100 l 1
 204 -10 l 1xada0
 135 -6 47 11 47 11 c 1xb5a0
 51 102 l 1
 51 102 171 86 222 86 c 0
 294 86 322 101 322 145 c 0
 322 180 305 191 206 207 c 0
 96 225 40 249 40 355 c 0
 40 468 128 510 227 510 c 0xada0
 300 510 415 488 415 488 c 1xb3a0
 413 397 l 1
 413 397 295 413 235 413 c 0
 175 413 148 399 148 358 c 0
 148 325 169 316 267 299 c 0
 387 278 430 248 430 148 c 0
 430 37 363 -6 251 -10 c 1
 251 -42 l 1xada0
 328 -43 370 -57 370 -127 c 0xb5c0
EndSplineSet
Substitution2: "'locl' Localized Forms in Lateinisch lookup 0 subtable" scommaaccent
EndChar

StartChar: scommaaccent
Encoding: 537 537 346
Width: 469
Flags: MW
HStem: -77 163<82 258 82 258> -11 21G<197.5 294> -11 97<197.5 258 196.5 294> 413 97<205 263.5 177.5 265> 490 20G<177.5 263.5>
VStem: 40 108<341.5 378.5 341.5 411.5> 322 108<123 162.5>
LayerCount: 2
Fore
SplineSet
82 -77 m 1x8e
 38 -300 l 1
 135 -300 l 1
 188 -77 l 1
 82 -77 l 1x8e
415 488 m 1
 413 397 l 1
 413 397 295 413 235 413 c 0
 175 413 148 399 148 358 c 0
 148 325 169 316 267 299 c 0
 387 278 430 248 430 148 c 0
 430 31 356 -11 232 -11 c 0x36
 163 -11 47 11 47 11 c 1x56
 51 102 l 1
 51 102 171 86 222 86 c 0
 294 86 322 101 322 145 c 0
 322 180 305 191 206 207 c 0
 96 225 40 249 40 355 c 0
 40 468 128 510 227 510 c 0x36
 300 510 415 488 415 488 c 1
EndSplineSet
EndChar

StartChar: tcaron
Encoding: 357 357 347
Width: 463
Flags: MW
HStem: -11 103<227 255.5> 401 98<25 89 25 89 198 336> 444 55
VStem: 89 109<175 193 193 401 499 645> 373 105<444 693 444 693>
LayerCount: 2
Fore
SplineSet
336 401 m 1xd8
 198 401 l 1
 198 193 l 2
 198 118 201 92 253 92 c 0
 281 92 334 95 334 95 c 1
 340 2 l 1
 340 2 273 -11 238 -11 c 0
 125 -11 89 31 89 175 c 2
 89 401 l 1
 25 401 l 1
 25 499 l 1
 89 499 l 1
 89 645 l 1
 198 645 l 1
 198 499 l 1
 336 499 l 1
 336 401 l 1xd8
478 693 m 1
 478 444 l 1
 373 444 l 1xb8
 373 693 l 1
 478 693 l 1
EndSplineSet
EndChar

StartChar: tcommaaccent
Encoding: 539 539 348
Width: 358
Flags: MW
HStem: -77 163<89 266 89 266> -11 97<226 254.5> 407 93<25 89 25 89 197 335>
VStem: 89 108<175 187 187 407 500 645>
LayerCount: 2
Fore
SplineSet
89 -77 m 1xb0
 45 -300 l 1
 142 -300 l 1
 195 -77 l 1
 89 -77 l 1xb0
335 407 m 1
 197 407 l 1
 197 187 l 2
 197 112 200 86 252 86 c 0
 280 86 334 89 334 89 c 1
 339 2 l 1
 339 2 272 -11 237 -11 c 0x70
 124 -11 89 31 89 175 c 2
 89 407 l 1
 25 407 l 1
 25 500 l 1
 89 500 l 1
 89 645 l 1
 197 645 l 1
 197 500 l 1
 335 500 l 1
 335 407 l 1
EndSplineSet
EndChar

StartChar: tbar
Encoding: 359 359 349
Width: 360
Flags: MW
HStem: -11 103<227 255.5> 228 82<49 90 49 90 198 310> 401 98<26 90 26 90 198 336>
VStem: 90 108<175 193 193 228 155.5 228 310 401 499 645>
LayerCount: 2
Fore
SplineSet
336 401 m 1
 198 401 l 1
 198 310 l 1
 310 310 l 1
 310 228 l 1
 198 228 l 1
 198 193 l 2
 198 118 201 92 253 92 c 0
 281 92 335 95 335 95 c 1
 340 2 l 1
 340 2 273 -11 238 -11 c 0
 125 -11 90 31 90 175 c 2
 90 228 l 1
 49 228 l 1
 49 310 l 1
 90 310 l 1
 90 401 l 1
 26 401 l 1
 26 499 l 1
 90 499 l 1
 90 645 l 1
 198 645 l 1
 198 499 l 1
 336 499 l 1
 336 401 l 1
EndSplineSet
EndChar

StartChar: utilde
Encoding: 361 361 350
Width: 543
Flags: MW
HStem: 597 85<317.5 344 317.5 358> 637 85<188 217.5> 666 21G<102 102> 698 20G<407 407>
VStem: 170 199<238 500>
LayerCount: 2
Fore
SplineSet
477 500 m 1x38
 369 500 l 1
 369 112 l 1
 369 112 315 86 255 86 c 0
 177 86 170 127 170 238 c 2
 170 500 l 1
 61 500 l 1
 61 239 l 2
 61 63 91 -11 234 -11 c 0
 296 -11 369 31 369 31 c 1
 369 0 l 1
 477 0 l 1
 477 500 l 1x38
407 718 m 1
 431 654 l 1
 431 654 381 597 335 597 c 0x98
 293 597 234 637 201 637 c 0
 175 637 126 603 126 603 c 1x48
 102 666 l 1x38
 102 666 153 722 200 722 c 0x48
 241 722 303 682 332 682 c 0x98
 356 682 407 718 407 718 c 1
EndSplineSet
EndChar

StartChar: umacron
Encoding: 363 363 351
Width: 543
Flags: MW
HStem: 609 82<130 412 130 412>
VStem: 130 282<609 691 609 691> 170 199<238 500>
LayerCount: 2
Fore
SplineSet
477 500 m 1xa0
 369 500 l 1
 369 112 l 1
 369 112 315 86 255 86 c 0
 177 86 170 127 170 238 c 2
 170 500 l 1
 61 500 l 1
 61 239 l 2
 61 63 91 -11 234 -11 c 0
 296 -11 369 31 369 31 c 1
 369 0 l 1
 477 0 l 1
 477 500 l 1xa0
130 609 m 1xc0
 130 691 l 1
 412 691 l 1
 412 609 l 1
 130 609 l 1xc0
EndSplineSet
EndChar

StartChar: ubreve
Encoding: 365 365 352
Width: 543
Flags: MW
HStem: 500 228<111 170 61 195 369 426 369 369> 579 75<247 291.5 247 316.5>
VStem: 111 84<728 728> 170 199<238 500> 342 84<728 728>
LayerCount: 2
Fore
SplineSet
477 500 m 1x90
 369 500 l 1
 369 112 l 1
 369 112 315 86 255 86 c 0
 177 86 170 127 170 238 c 2
 170 500 l 1
 61 500 l 1
 61 239 l 2
 61 63 91 -11 234 -11 c 0
 296 -11 369 31 369 31 c 1
 369 0 l 1
 477 0 l 1
 477 500 l 1x90
111 728 m 1xa0
 195 728 l 1
 199 684 225 654 269 654 c 0x68
 314 654 339 685 342 728 c 1x88
 426 728 l 1
 418 650 364 579 269 579 c 0x68
 173 579 119 650 111 728 c 1xa0
EndSplineSet
EndChar

